<svg width="782" height="394" viewBox="0 0 782 394" fill="none" xmlns="http://www.w3.org/2000/svg">
<g clip-path="url(#clip0_130_1612)">
<rect width="418.616" height="271.698" rx="24.1509" transform="matrix(0.990268 -0.139173 0.406737 0.913545 0 85.2114)" fill="#0A0B14"/>
<path d="M47.3195 118.507L45.5678 118.753L40.4477 107.253L36.0199 107.875L35.3724 106.421L45.9796 104.93L46.6271 106.384L42.1993 107.007L47.3195 118.507ZM54.9722 117.603C52.1695 117.997 49.4543 116.404 48.1313 113.432C46.8042 110.452 47.8688 108.337 50.6714 107.943C53.4643 107.551 56.1756 109.135 57.5026 112.115C58.8256 115.087 57.7651 117.21 54.9722 117.603ZM54.3606 116.229C56.1512 115.978 56.7594 114.557 55.7801 112.357C54.8009 110.158 53.0735 109.065 51.2829 109.317C49.4924 109.568 48.8744 110.991 49.8537 113.19C50.833 115.39 52.5701 116.481 54.3606 116.229ZM56.6786 104.876L58.3718 104.638L59.3751 106.892L61.3408 106.615L61.9124 107.899L59.9467 108.175L62.4168 113.724C62.7965 114.576 63.3577 114.908 64.2238 114.786C64.4184 114.759 64.7956 114.677 64.9044 114.643L65.488 115.953C65.3036 116.027 64.8485 116.12 64.4495 116.176C62.5908 116.437 61.5589 115.838 60.7595 114.042L58.2534 108.413L56.745 108.625L56.1735 107.342L57.6818 107.13L56.6786 104.876ZM69.9314 114.089C71.5273 113.864 72.2938 112.66 71.6943 111.313L71.3545 110.55L68.7172 111.083C67.3907 111.355 66.86 112.021 67.2517 112.901C67.6475 113.79 68.715 114.26 69.9314 114.089ZM70.1434 115.471C68.129 115.754 66.2767 114.822 65.5293 113.143C64.8178 111.545 65.7034 110.352 67.9829 109.898L70.8149 109.338L70.4672 108.557C69.9596 107.417 68.8384 106.85 67.437 107.046C66.133 107.23 65.5674 107.91 65.761 108.856L64.1261 109.086C63.5235 107.453 64.4705 106.004 66.8644 105.667C69.2389 105.334 71.2651 106.308 72.0925 108.166L74.9664 114.621L73.3607 114.847L72.6452 113.24L72.6063 113.245C72.4786 114.399 71.5058 115.279 70.1434 115.471ZM77.2046 114.307L71.4369 101.352L73.1302 101.114L78.8978 114.069L77.2046 114.307ZM79.767 100.182L84.4867 99.5182C88.6517 98.9329 92.181 100.984 93.9956 105.06C95.8143 109.144 94.4291 111.886 90.2544 112.473L85.5347 113.136L79.767 100.182ZM82.1661 101.39L86.6388 111.435L89.4901 111.035C92.6723 110.587 93.644 108.543 92.213 105.329C90.7701 102.088 88.2093 100.54 85.0174 100.989L82.1661 101.39ZM99.2312 102.559C97.645 102.782 97.0353 104.06 97.6197 105.628L103.118 104.855C102.384 103.299 100.827 102.335 99.2312 102.559ZM104.322 107.653L105.986 107.419C106.422 109.094 105.245 110.538 103.036 110.848C100.136 111.256 97.5468 109.645 96.2398 106.709C94.9487 103.81 95.864 101.592 98.6569 101.199C101.391 100.815 103.89 102.41 105.149 105.238L105.413 105.83L98.1536 106.85L98.1935 106.94C98.9889 108.727 100.651 109.743 102.471 109.487C103.755 109.306 104.432 108.572 104.322 107.653ZM113.16 99.3327L113.6 109.192L111.868 109.435L103.984 100.622L105.765 100.372L111.975 107.655L112.014 107.65L111.399 99.5802L113.16 99.3327ZM118.738 108.47L114.581 99.133L116.275 98.895L120.431 108.232L118.738 108.47ZM114.728 97.4429C114.154 97.5236 113.482 97.1508 113.246 96.6211C113.006 96.0824 113.291 95.5845 113.865 95.5038C114.449 95.4218 115.118 95.7857 115.357 96.3243C115.593 96.854 115.312 97.3609 114.728 97.4429ZM128.332 100.453L126.678 100.686C125.983 99.7055 124.755 98.991 123.266 99.2002C121.514 99.4464 120.923 100.951 121.866 103.07C122.833 105.242 124.612 106.356 126.363 106.11C127.745 105.916 128.35 105.115 128.143 103.952L129.807 103.718C130.371 105.614 129.262 107.162 126.965 107.485C124.162 107.879 121.483 106.319 120.144 103.312C118.833 100.367 119.852 98.2205 122.645 97.828C125.175 97.4724 127.371 98.8046 128.332 100.453ZM133.135 97.7941C131.549 98.017 130.939 99.2951 131.524 100.863L137.022 100.091C136.288 98.5339 134.731 97.5698 133.135 97.7941ZM138.226 102.888L139.89 102.654C140.326 104.329 139.149 105.773 136.94 106.083C134.04 106.491 131.451 104.88 130.144 101.944C128.853 99.0446 129.768 96.8269 132.561 96.4344C135.296 96.0501 137.795 97.6449 139.054 100.473L139.317 101.065L132.058 102.086L132.098 102.175C132.893 103.962 134.555 104.978 136.375 104.722C137.66 104.542 138.336 103.807 138.226 102.888ZM139.736 98.3355C139.024 96.7375 140.064 95.3799 142.292 95.0667C144.385 94.7727 146.434 95.7057 147.215 97.2748L145.6 97.5018C145.083 96.6205 144.047 96.1747 142.802 96.3497C141.566 96.5234 141 97.2039 141.364 98.0208C141.652 98.6672 142.379 99.0229 143.647 99.1308L145.37 99.2608C147.625 99.4494 148.668 100.028 149.28 101.401C150.003 103.026 148.851 104.409 146.486 104.741C144.267 105.053 142.225 104.158 141.314 102.53L143.007 102.292C143.624 103.236 144.654 103.644 146.026 103.452C147.398 103.259 148.005 102.601 147.629 101.757C147.333 101.093 146.755 100.793 145.492 100.674L143.524 100.503C141.555 100.331 140.303 99.6103 139.736 98.3355Z" fill="white"/>
<path d="M71.6909 166.627L61.6823 144.147L61.6045 144.158L56.3681 150.141L54.8492 146.729L60.1166 140.723L63.542 140.242L75.0774 166.151L71.6909 166.627ZM85.7601 170.125L82.938 170.522L80.757 161.117L84.3576 160.611L85.7601 170.125ZM82.9632 145.449C80.9487 140.924 83.4163 136.991 88.7102 136.247C93.7316 135.541 99.0815 138.128 100.848 142.096C102.135 144.987 101.674 147.341 98.9737 152.471L94.8835 160.238L94.9155 160.31L108.598 158.387L109.877 161.26L91.3483 163.864L90.357 161.638L95.9673 150.642C98.1123 146.449 98.3921 144.94 97.4328 142.786C96.3216 140.29 92.9625 138.645 89.8679 139.079C86.5787 139.542 85.0627 142.082 86.3498 144.973L86.3578 144.991L82.9712 145.467L82.9632 145.449ZM123.77 159.765C118.399 160.52 113.053 157.99 110.795 153.614L114.24 153.13C115.782 155.851 119.179 157.396 122.546 156.923C126.361 156.387 127.921 153.573 126.37 150.09C124.819 146.606 121.042 144.485 117.305 145.011C114.677 145.38 112.927 146.79 112.586 148.765L109.297 149.227L104.375 134.503L120.451 132.244L121.73 135.117L108.534 136.971L111.435 145.53L111.513 145.519C112.083 143.78 114.003 142.518 116.688 142.14C122.08 141.382 127.595 144.48 129.833 149.508C132.152 154.715 129.629 158.942 123.77 159.765ZM147.262 156.464C140.703 157.386 134.59 152.712 130.944 144.525C127.331 136.409 128.823 130.609 135.343 129.693C141.863 128.777 147.985 133.468 151.606 141.602C155.251 149.789 153.802 155.545 147.262 156.464ZM146.007 153.645C150.386 153.029 150.969 148.579 148.091 142.115C145.253 135.741 140.946 131.92 136.606 132.53C132.266 133.14 131.645 137.691 134.459 144.012C137.337 150.475 141.608 154.263 146.007 153.645Z" fill="white"/>
<path opacity="0.7" d="M84.6237 204.286C87.8078 203.839 90.7217 205.627 92.1862 208.916C93.6507 212.205 92.5755 214.547 89.3914 214.994C86.2072 215.442 83.2965 213.661 81.832 210.371C80.3675 207.082 81.4396 204.734 84.6237 204.286ZM85.1545 205.478C82.8579 205.801 82.1339 207.612 83.2723 210.169C84.4074 212.719 86.5639 214.125 88.8605 213.802C91.1572 213.479 91.8811 211.668 90.746 209.119C89.6076 206.562 87.4511 205.155 85.1545 205.478ZM96.3443 213.834L93.0187 206.365L94.2955 206.185L94.8263 207.378L94.8574 207.373C94.9508 206.505 95.5848 205.867 96.8382 205.691C98.6132 205.441 100.111 206.352 100.865 208.047L103.024 212.895L101.669 213.086L99.61 208.46C99.0728 207.254 98.1636 206.68 96.918 206.855C95.6412 207.034 95.1791 207.984 95.7419 209.248L97.6989 213.644L96.3443 213.834ZM105.141 212.598L100.527 202.234L101.882 202.044L106.496 212.407L105.141 212.598ZM108.714 212.096L105.389 204.626L106.743 204.436L110.069 211.905L108.714 212.096ZM105.506 203.274C105.047 203.339 104.509 203.041 104.32 202.617C104.128 202.186 104.356 201.788 104.816 201.723C105.283 201.657 105.818 201.948 106.01 202.379C106.198 202.803 105.973 203.209 105.506 203.274ZM112.217 211.603L108.892 204.134L110.168 203.955L110.699 205.147L110.73 205.142C110.824 204.275 111.458 203.636 112.711 203.46C114.486 203.21 115.984 204.122 116.738 205.817L118.897 210.664L117.542 210.855L115.483 206.23C114.946 205.023 114.037 204.449 112.791 204.624C111.514 204.803 111.052 205.753 111.615 207.017L113.572 211.413L112.217 211.603ZM121.29 203.406C120.021 203.585 119.533 204.607 120.001 205.862L124.399 205.244C123.812 203.998 122.567 203.227 121.29 203.406ZM125.363 207.482L126.694 207.294C127.042 208.634 126.101 209.789 124.334 210.038C122.014 210.364 119.943 209.075 118.897 206.727C117.864 204.407 118.596 202.633 120.831 202.319C123.018 202.011 125.017 203.287 126.025 205.549L126.236 206.023L120.428 206.84L120.46 206.911C121.096 208.341 122.426 209.153 123.882 208.949C124.909 208.804 125.45 208.217 125.363 207.482Z" fill="white"/>
<path opacity="0.2" d="M87.5714 224.823L103.943 261.594" stroke="white" stroke-width="1.50943" stroke-miterlimit="10" stroke-linecap="round"/>
<rect width="229.937" height="8.0503" rx="4.02515" transform="matrix(0.990268 -0.139173 0.406737 0.913545 107.218 268.949)" fill="url(#paint0_linear_130_1612)"/>
<circle cx="4.02515" cy="4.02515" r="4.02515" transform="matrix(0.990268 -0.139173 0.406737 0.913545 119.476 296.481)" fill="#2156E9"/>
<path d="M143.35 303.041C140.975 303.375 138.725 302.371 137.954 300.64C137.379 299.347 137.871 298.149 139.181 297.636L139.169 297.608C137.801 297.434 136.652 296.656 136.166 295.565C135.469 293.999 136.496 292.626 138.582 292.333C140.684 292.037 142.714 292.973 143.417 294.553C143.897 295.63 143.548 296.611 142.485 297.141L142.498 297.17C144.094 297.282 145.533 298.209 146.105 299.494C146.879 301.232 145.732 302.706 143.35 303.041ZM142.848 301.913C144.397 301.696 145.133 300.73 144.631 299.602C144.123 298.46 142.667 297.81 141.118 298.028C139.576 298.245 138.832 299.212 139.338 300.346C139.84 301.474 141.306 302.13 142.848 301.913ZM140.613 296.893C141.921 296.709 142.53 295.868 142.083 294.863C141.629 293.843 140.394 293.261 139.078 293.446C137.762 293.631 137.163 294.478 137.614 295.491C138.062 296.496 139.297 297.078 140.613 296.893ZM153.299 301.643C150.675 302.012 148.23 300.142 146.772 296.867C145.326 293.621 145.923 291.301 148.531 290.935C151.139 290.568 153.588 292.445 155.036 295.698C156.495 298.973 155.915 301.275 153.299 301.643ZM152.797 300.515C154.549 300.269 154.782 298.489 153.631 295.903C152.495 293.354 150.773 291.825 149.036 292.069C147.3 292.313 147.052 294.134 148.178 296.662C149.329 299.247 151.037 300.763 152.797 300.515ZM163.287 300.239C160.663 300.608 158.218 298.738 156.76 295.463C155.314 292.217 155.911 289.897 158.519 289.531C161.127 289.164 163.576 291.041 165.024 294.294C166.483 297.569 165.903 299.871 163.287 300.239ZM162.785 299.112C164.537 298.865 164.77 297.085 163.618 294.5C162.483 291.95 160.761 290.422 159.024 290.666C157.288 290.91 157.04 292.73 158.166 295.258C159.317 297.844 161.025 299.359 162.785 299.112Z" fill="white"/>
<path opacity="0.7" d="M328.267 170.044C331.451 169.597 334.365 171.385 335.829 174.674C337.294 177.964 336.218 180.305 333.034 180.752C329.85 181.2 326.939 179.419 325.475 176.129C324.01 172.84 325.083 170.492 328.267 170.044ZM328.797 171.236C326.501 171.559 325.777 173.37 326.915 175.927C328.05 178.477 330.207 179.883 332.503 179.56C334.8 179.237 335.524 177.426 334.389 174.877C333.251 172.32 331.094 170.914 328.797 171.236ZM340.423 179.531L337.555 173.089L336.426 173.247L335.969 172.22L337.098 172.062L336.727 171.228C336.087 169.792 336.507 169.008 338.002 168.798C338.306 168.755 338.646 168.738 338.853 168.739L339.304 169.752C339.131 169.754 338.895 169.764 338.67 169.795C337.938 169.898 337.747 170.307 338.077 171.046L338.444 171.872L340.103 171.639L340.56 172.666L338.91 172.898L341.778 179.34L340.423 179.531ZM345.584 178.805L342.716 172.363L341.587 172.522L341.13 171.495L342.259 171.336L341.888 170.503C341.248 169.067 341.669 168.283 343.163 168.073C343.467 168.03 343.807 168.013 344.014 168.014L344.465 169.027C344.292 169.028 344.057 169.038 343.831 169.07C343.099 169.173 342.909 169.581 343.238 170.321L343.606 171.147L345.264 170.914L345.721 171.941L344.071 172.173L346.939 178.615L345.584 178.805ZM350.38 178.131L345.766 167.768L347.12 167.578L351.734 177.941L350.38 178.131ZM353.953 177.629L350.627 170.16L351.982 169.97L355.307 177.439L353.953 177.629ZM350.745 168.808C350.286 168.873 349.747 168.574 349.559 168.151C349.367 167.72 349.595 167.321 350.054 167.257C350.521 167.191 351.056 167.482 351.248 167.913C351.437 168.337 351.212 168.742 350.745 168.808ZM357.456 177.137L354.13 169.668L355.407 169.488L355.938 170.681L355.969 170.676C356.062 169.808 356.696 169.17 357.95 168.994C359.725 168.744 361.222 169.655 361.977 171.35L364.135 176.198L362.781 176.389L360.722 171.763C360.184 170.557 359.275 169.983 358.029 170.158C356.753 170.337 356.291 171.287 356.853 172.551L358.81 176.947L357.456 177.137ZM366.529 168.94C365.26 169.119 364.772 170.141 365.239 171.396L369.638 170.777C369.051 169.532 367.805 168.761 366.529 168.94ZM370.601 173.015L371.933 172.828C372.281 174.168 371.339 175.323 369.572 175.572C367.252 175.898 365.181 174.609 364.136 172.26C363.103 169.941 363.835 168.167 366.069 167.852C368.257 167.545 370.256 168.821 371.263 171.083L371.474 171.557L365.667 172.373L365.699 172.445C366.335 173.874 367.665 174.687 369.12 174.483C370.148 174.338 370.689 173.751 370.601 173.015Z" fill="white"/>
<path opacity="0.2" d="M331.214 190.581L347.586 227.352" stroke="white" stroke-width="1.50943" stroke-miterlimit="10" stroke-linecap="round"/>
<rect width="124.277" height="8.0503" rx="4.02515" transform="matrix(0.990268 -0.139173 0.406737 0.913545 350.86 234.707)" fill="url(#paint1_linear_130_1612)"/>
<circle cx="4.02515" cy="4.02515" r="4.02515" transform="matrix(0.990268 -0.139173 0.406737 0.913545 363.119 262.24)" fill="#F78A49"/>
<path d="M388.395 268.419L387.436 266.264L381.792 267.057L381.271 265.887C381.499 264.115 381.974 262.041 383.065 258.156L385.136 257.865L388.285 264.939L389.873 264.716L390.379 265.85L388.791 266.074L389.75 268.228L388.395 268.419ZM382.659 265.699L382.672 265.728L386.931 265.129L384.261 259.132L384.237 259.136C383.359 262.235 382.907 264.138 382.659 265.699ZM396.965 267.397C394.817 267.699 392.678 266.687 391.775 264.937L393.153 264.743C393.77 265.832 395.129 266.45 396.476 266.26C398.001 266.046 398.625 264.92 398.005 263.527C397.385 262.134 395.874 261.285 394.379 261.495C393.328 261.643 392.628 262.207 392.491 262.997L391.176 263.182L389.207 257.293L395.637 256.389L396.149 257.538L390.871 258.28L392.031 261.703L392.062 261.699C392.29 261.003 393.058 260.498 394.132 260.347C396.289 260.044 398.495 261.283 399.39 263.294C400.318 265.377 399.309 267.068 396.965 267.397ZM406.681 266.032C404.057 266.401 401.612 264.531 400.154 261.256C398.708 258.01 399.305 255.69 401.913 255.324C404.521 254.957 406.97 256.834 408.418 260.087C409.876 263.362 409.297 265.664 406.681 266.032ZM406.179 264.904C407.93 264.658 408.163 262.878 407.012 260.292C405.877 257.743 404.154 256.214 402.418 256.458C400.682 256.702 400.434 258.523 401.56 261.051C402.711 263.637 404.419 265.152 406.179 264.904Z" fill="white"/>
</g>
<rect width="418.616" height="271.698" rx="24.1509" transform="matrix(0.990268 -0.139173 0.406737 0.913545 0 85.2114)" stroke="#242424" stroke-width="1.00629"/>
<g filter="url(#filter0_d_130_1612)">
<rect width="418.616" height="271.698" rx="24.1509" transform="matrix(0.990268 -0.139173 0.406737 0.913545 231.652 109.406)" fill="#0A0B14" shape-rendering="crispEdges"/>
<rect width="418.616" height="271.698" rx="24.1509" transform="matrix(0.990268 -0.139173 0.406737 0.913545 231.652 109.406)" stroke="#242424" stroke-width="1.00629" shape-rendering="crispEdges"/>
<path d="M282.796 142.164L279.734 138.654L274.149 139.44L274.388 143.346L272.549 143.604L271.958 129.922L273.691 129.679L284.635 141.905L282.796 142.164ZM273.671 131.77L274.053 137.993L278.607 137.353L273.729 131.762L273.671 131.77ZM289.344 131.323L289.783 141.182L288.051 141.425L280.167 132.613L281.948 132.362L288.158 139.645L288.197 139.64L287.582 131.57L289.344 131.323ZM298.079 138.633C299.84 138.385 300.418 136.873 299.503 134.817C298.587 132.762 296.802 131.562 295.041 131.81C293.299 132.055 292.752 133.543 293.683 135.635C294.615 137.727 296.337 138.878 298.079 138.633ZM300.284 143.446C298.055 143.759 295.778 142.848 294.788 141.299L296.53 141.054C297.241 141.86 298.495 142.285 299.76 142.107C301.512 141.861 302.157 140.778 301.537 139.387L300.882 137.915L300.843 137.92C300.672 139.022 299.77 139.855 298.35 140.054C295.771 140.417 293.242 138.778 291.951 135.879C290.648 132.952 291.51 130.847 294.128 130.479C295.558 130.278 297.033 130.757 298.188 131.749L298.218 131.745L297.518 130.174L299.134 129.947L303.207 139.095C304.198 141.321 303.076 143.053 300.284 143.446ZM304.082 125.407L308.801 124.744C312.966 124.159 316.496 126.21 318.31 130.285C320.129 134.37 318.744 137.112 314.569 137.698L309.849 138.362L304.082 125.407ZM306.481 126.615L310.954 136.661L313.805 136.261C316.987 135.813 317.959 133.769 316.528 130.555C315.085 127.314 312.524 125.766 309.332 126.215L306.481 126.615ZM323.546 127.785C321.96 128.008 321.35 129.286 321.934 130.854L327.433 130.081C326.698 128.525 325.142 127.56 323.546 127.785ZM328.637 132.879L330.301 132.645C330.736 134.32 329.559 135.763 327.35 136.074C324.45 136.481 321.862 134.871 320.555 131.935C319.263 129.035 320.179 126.818 322.972 126.425C325.706 126.041 328.205 127.636 329.464 130.463L329.728 131.056L322.468 132.076L322.508 132.166C323.304 133.953 324.966 134.969 326.786 134.713C328.07 134.532 328.746 133.798 328.637 132.879ZM337.475 124.558L337.915 134.417L336.183 134.661L328.299 125.848L330.079 125.598L336.29 132.881L336.329 132.876L335.714 124.806L337.475 124.558ZM343.053 133.695L338.896 124.359L340.589 124.121L344.746 133.457L343.053 133.695ZM339.043 122.669C338.469 122.749 337.796 122.377 337.561 121.847C337.321 121.308 337.606 120.81 338.18 120.73C338.764 120.648 339.432 121.011 339.672 121.55C339.908 122.08 339.627 122.587 339.043 122.669ZM352.647 125.679L350.993 125.912C350.298 124.931 349.07 124.217 347.581 124.426C345.829 124.672 345.237 126.177 346.181 128.295C347.148 130.468 348.926 131.582 350.678 131.336C352.06 131.142 352.665 130.341 352.457 129.178L354.121 128.944C354.686 130.839 353.576 132.388 351.28 132.711C348.477 133.105 345.797 131.545 344.458 128.537C343.147 125.593 344.167 123.446 346.96 123.054C349.49 122.698 351.686 124.03 352.647 125.679ZM357.45 123.02C355.864 123.243 355.254 124.521 355.839 126.089L361.337 125.316C360.602 123.76 359.046 122.796 357.45 123.02ZM362.541 128.114L364.205 127.88C364.641 129.555 363.463 130.998 361.254 131.309C358.354 131.717 355.766 130.106 354.459 127.17C353.168 124.27 354.083 122.053 356.876 121.66C359.61 121.276 362.109 122.871 363.368 125.699L363.632 126.291L356.372 127.311L356.412 127.401C357.208 129.188 358.87 130.204 360.69 129.948C361.974 129.767 362.651 129.033 362.541 128.114ZM367.569 116.485L371.267 124.789C372.138 126.746 374.161 127.969 376.594 127.627C379.027 127.285 379.787 125.671 378.915 123.714L375.218 115.41L376.97 115.164L380.715 123.575C381.946 126.34 380.741 128.628 377.257 129.117C373.774 129.607 370.794 127.908 369.563 125.143L365.818 116.731L367.569 116.485ZM385.885 117.583C388.464 117.221 391.063 118.878 392.366 121.804C393.669 124.731 392.774 126.879 390.225 127.237C388.775 127.441 387.315 126.95 386.256 126.011L386.217 126.017L388.28 130.649L386.587 130.887L381.043 118.435L382.648 118.21L383.352 119.79L383.391 119.784C383.546 118.646 384.416 117.79 385.885 117.583ZM389.243 125.916C391.044 125.663 391.577 124.167 390.634 122.048C389.694 119.938 387.966 118.75 386.166 119.003C384.434 119.247 383.881 120.793 384.805 122.867C385.732 124.95 387.511 126.159 389.243 125.916ZM391.542 114.566L393.235 114.328L394.238 116.581L396.204 116.305L396.776 117.588L394.81 117.865L397.28 123.413C397.66 124.266 398.221 124.597 399.087 124.475C399.282 124.448 399.659 124.366 399.768 124.332L400.351 125.643C400.167 125.716 399.712 125.809 399.313 125.865C397.454 126.126 396.422 125.527 395.623 123.732L393.117 118.103L391.608 118.315L391.037 117.031L392.545 116.819L391.542 114.566ZM402.259 125.374L398.102 116.038L399.795 115.8L403.952 125.137L402.259 125.374ZM398.249 114.348C397.675 114.429 397.002 114.056 396.766 113.526C396.526 112.987 396.811 112.489 397.386 112.409C397.969 112.327 398.638 112.691 398.878 113.229C399.114 113.759 398.833 114.266 398.249 114.348ZM406.239 124.815L402.082 115.479L403.678 115.254L404.341 116.745L404.38 116.739C404.417 115.685 405.153 114.875 406.516 114.684C407.897 114.49 409.207 114.992 410.149 116.062L410.188 116.056C410.256 114.864 411.148 114.033 412.569 113.833C414.573 113.551 416.403 114.572 417.226 116.422L420.096 122.868L418.403 123.106L415.693 117.019C415.126 115.744 414.021 115.098 412.688 115.285C411.345 115.474 410.809 116.522 411.372 117.788L414.014 123.722L412.321 123.96L409.535 117.703C409.035 116.581 407.89 115.96 406.635 116.136C405.292 116.325 404.75 117.431 405.326 118.724L407.932 124.577L406.239 124.815ZM422.689 113.851C421.103 114.074 420.493 115.352 421.078 116.92L426.576 116.148C425.842 114.591 424.285 113.627 422.689 113.851ZM427.78 118.945L429.444 118.711C429.88 120.386 428.703 121.83 426.494 122.14C423.594 122.548 421.005 120.937 419.698 118.001C418.407 115.102 419.322 112.884 422.115 112.491C424.85 112.107 427.349 113.702 428.608 116.53L428.871 117.122L421.612 118.143L421.652 118.232C422.447 120.019 424.109 121.035 425.929 120.779C427.214 120.599 427.89 119.864 427.78 118.945Z" fill="white"/>
<path d="M305.306 191.003C300.518 191.676 295.657 189.536 292.994 185.598L296.555 185.098C298.342 187.346 301.307 188.57 304.09 188.179C308.761 187.522 309.704 183.231 306.74 176.34L306.72 176.343C306.701 176.346 306.701 176.346 306.681 176.349C306.637 179.083 304.306 181.185 300.724 181.688C295.372 182.441 289.779 179.354 287.589 174.434C285.31 169.317 287.832 164.994 293.593 164.185C297.816 163.591 302.099 165.221 305.467 168.697C307.288 170.559 308.775 172.83 310.03 175.649C313.915 184.375 312.176 190.038 305.306 191.003ZM300.065 178.767C303.782 178.244 305.459 175.414 303.988 172.11C302.509 168.789 298.547 166.579 294.927 167.088C291.326 167.594 289.636 170.579 291.083 173.829C292.586 177.204 296.386 179.284 300.065 178.767ZM311.268 170.114C309.253 165.589 311.721 161.656 317.015 160.912C322.036 160.206 327.386 162.793 329.153 166.761C330.44 169.652 329.978 172.006 327.278 177.136L323.188 184.903L323.22 184.975L336.902 183.052L338.181 185.925L319.653 188.529L318.662 186.303L324.272 175.307C326.417 171.114 326.697 169.606 325.737 167.451C324.626 164.955 321.267 163.31 318.173 163.745C314.883 164.207 313.367 166.747 314.654 169.638L314.662 169.656L311.276 170.132L311.268 170.114ZM345.093 185.145C343.847 185.32 342.474 184.559 341.963 183.41C341.451 182.26 342.025 181.226 343.27 181.051C344.516 180.876 345.889 181.637 346.4 182.786C346.912 183.935 346.338 184.969 345.093 185.145ZM362.196 183.008C356.26 183.842 350.634 181.332 348.707 177.005C347.268 173.773 348.499 170.777 351.775 169.496L351.743 169.424C348.323 168.989 345.452 167.046 344.237 164.317C342.494 160.403 345.061 156.97 350.277 156.237C355.532 155.499 360.606 157.838 362.365 161.788C363.564 164.481 362.69 166.932 360.034 168.259L360.066 168.331C364.057 168.609 367.654 170.927 369.085 174.141C371.019 178.486 368.151 182.171 362.196 183.008ZM360.941 180.189C364.814 179.645 366.655 177.23 365.4 174.411C364.129 171.556 360.489 169.931 356.616 170.475C352.762 171.017 350.902 173.434 352.165 176.271C353.42 179.09 357.087 180.731 360.941 180.189ZM355.353 167.639C358.623 167.179 360.147 165.076 359.028 162.562C357.893 160.013 354.805 158.558 351.516 159.02C348.227 159.483 346.729 161.601 347.856 164.132C348.976 166.646 352.064 168.101 355.353 167.639ZM377.932 159.314C379.674 163.228 378.466 166.088 374.904 166.589C371.343 167.089 367.88 164.886 366.137 160.972C364.395 157.058 365.603 154.198 369.165 153.697C372.726 153.197 376.189 155.4 377.932 159.314ZM373.929 164.398C375.642 164.158 375.993 162.391 374.818 159.752C373.643 157.113 371.853 155.647 370.14 155.888C368.427 156.128 368.076 157.895 369.251 160.534C370.426 163.174 372.216 164.639 373.929 164.398ZM379.988 180.05L376.601 180.526L381.358 165.338L385.618 151.728L388.966 151.258L384.349 166.063L379.988 180.05ZM399.425 170.755C401.168 174.669 399.959 177.529 396.398 178.03C392.836 178.53 389.373 176.327 387.631 172.413C385.888 168.498 387.096 165.638 390.658 165.138C394.22 164.637 397.682 166.841 399.425 170.755ZM395.423 175.839C397.135 175.598 397.486 173.832 396.311 171.193C395.136 168.553 393.346 167.088 391.633 167.328C389.921 167.569 389.57 169.335 390.745 171.975C391.92 174.614 393.71 176.08 395.423 175.839Z" fill="white"/>
<rect width="24.1509" height="24.1509" rx="12.0755" transform="matrix(0.990268 -0.139173 0.406737 0.913545 306.167 219.692)" fill="#60EA66"/>
<path d="M324.994 225.512L320.688 233.281" stroke="#05060F" stroke-width="1.50943" stroke-linecap="round"/>
<path d="M320.735 225.459L324.389 224.946C324.858 224.88 325.093 224.847 325.299 224.961C325.505 225.075 325.601 225.292 325.794 225.725L327.295 229.096" stroke="#05060F" stroke-width="1.50943" stroke-linecap="round" stroke-linejoin="round"/>
<path d="M350.675 227.299L352.506 231.41L350.929 231.632L349.099 227.52L344.943 228.104L344.296 226.65L348.451 226.066L346.664 222.053L348.241 221.831L350.028 225.844L354.183 225.26L354.83 226.715L350.675 227.299ZM354.827 221.574C353.819 219.311 355.053 217.344 357.7 216.972C360.211 216.62 362.886 217.913 363.769 219.897C364.413 221.342 364.182 222.52 362.832 225.085L360.787 228.968L360.803 229.004L367.644 228.043L368.283 229.479L359.019 230.781L358.524 229.668L361.329 224.17C362.401 222.073 362.541 221.319 362.061 220.242C361.506 218.994 359.826 218.171 358.279 218.389C356.634 218.62 355.876 219.89 356.52 221.336L356.524 221.345L354.831 221.583L354.827 221.574ZM371.739 229.089C371.116 229.176 370.43 228.796 370.174 228.221C369.918 227.647 370.205 227.129 370.828 227.042C371.451 226.954 372.137 227.335 372.393 227.909C372.649 228.484 372.362 229.001 371.739 229.089ZM380.485 227.993C377.799 228.371 375.127 227.105 373.997 224.918L375.72 224.675C376.491 226.036 378.19 226.809 379.873 226.572C381.78 226.304 382.56 224.897 381.785 223.155C381.01 221.414 379.121 220.353 377.252 220.616C375.939 220.8 375.063 221.505 374.893 222.493L373.248 222.724L370.787 215.362L378.826 214.232L379.465 215.669L372.867 216.596L374.318 220.876L374.357 220.87C374.641 220 375.601 219.369 376.944 219.181C379.64 218.802 382.397 220.351 383.517 222.864C384.676 225.468 383.414 227.581 380.485 227.993ZM388.061 216.187C388.933 218.144 388.328 219.574 386.548 219.825C384.767 220.075 383.035 218.973 382.164 217.016C381.293 215.059 381.897 213.629 383.678 213.379C385.459 213.128 387.19 214.23 388.061 216.187ZM386.06 218.729C386.916 218.609 387.092 217.726 386.504 216.406C385.917 215.086 385.022 214.354 384.165 214.474C383.309 214.594 383.133 215.478 383.721 216.797C384.309 218.117 385.204 218.85 386.06 218.729ZM389.089 226.555L387.396 226.793L389.775 219.199L391.905 212.394L393.578 212.159L391.27 219.562L389.089 226.555ZM398.808 221.908C399.679 223.865 399.075 225.295 397.294 225.545C395.513 225.795 393.782 224.694 392.911 222.736C392.039 220.779 392.644 219.349 394.424 219.099C396.205 218.849 397.937 219.951 398.808 221.908ZM396.807 224.45C397.663 224.329 397.838 223.446 397.251 222.126C396.663 220.807 395.768 220.074 394.912 220.194C394.056 220.315 393.88 221.198 394.468 222.518C395.055 223.837 395.95 224.57 396.807 224.45Z" fill="#60EA66"/>
<path opacity="0.5" d="M327.912 265.391L325.043 258.949L323.915 259.108L323.457 258.081L324.586 257.922L324.215 257.089C323.576 255.653 323.996 254.869 325.491 254.659C325.794 254.616 326.134 254.599 326.342 254.6L326.792 255.613C326.619 255.614 326.384 255.624 326.158 255.656C325.426 255.759 325.236 256.167 325.565 256.907L325.933 257.733L327.591 257.5L328.049 258.527L326.398 258.759L329.266 265.201L327.912 265.391ZM332.637 264.727L329.311 257.258L330.588 257.079L331.132 258.3L331.163 258.295C331.06 257.432 331.574 256.803 332.524 256.669C332.757 256.636 332.976 256.644 333.091 256.643L333.631 257.857C333.506 257.836 333.202 257.841 332.875 257.887C331.824 258.034 331.449 258.827 331.92 259.883L333.992 264.537L332.637 264.727ZM340.9 263.703C338.658 264.018 336.485 262.744 335.427 260.367C334.365 257.982 335.217 256.291 337.459 255.976C339.693 255.662 341.862 256.929 342.924 259.313C343.982 261.69 343.134 263.389 340.9 263.703ZM340.411 262.605C341.843 262.403 342.33 261.266 341.546 259.507C340.763 257.747 339.381 256.873 337.948 257.074C336.516 257.276 336.022 258.414 336.805 260.173C337.588 261.933 338.978 262.806 340.411 262.605ZM346.276 262.81L342.95 255.341L344.227 255.162L344.758 256.354L344.789 256.35C344.819 255.506 345.407 254.859 346.497 254.705C347.603 254.55 348.65 254.952 349.404 255.808L349.435 255.804C349.49 254.849 350.203 254.185 351.34 254.025C352.943 253.799 354.407 254.616 355.066 256.096L357.362 261.252L356.007 261.443L353.839 256.573C353.385 255.554 352.502 255.037 351.435 255.187C350.361 255.338 349.932 256.176 350.383 257.189L352.496 261.936L351.142 262.127L348.913 257.121C348.513 256.223 347.597 255.726 346.593 255.867C345.518 256.018 345.085 256.903 345.546 257.937L347.63 262.62L346.276 262.81ZM363.068 260.45L358.454 250.087L359.808 249.897L364.422 260.26L363.068 260.45ZM368.825 258.649C370.102 258.47 370.715 257.506 370.236 256.429L369.964 255.818L367.854 256.245C366.793 256.462 366.368 256.995 366.682 257.699C366.998 258.41 367.852 258.786 368.825 258.649ZM368.995 259.755C367.383 259.981 365.902 259.236 365.304 257.893C364.734 256.614 365.443 255.66 367.267 255.297L369.532 254.849L369.254 254.224C368.848 253.312 367.951 252.858 366.83 253.015C365.787 253.162 365.334 253.706 365.489 254.463L364.181 254.647C363.699 253.341 364.457 252.181 366.372 251.912C368.271 251.645 369.892 252.425 370.554 253.911L372.853 259.075L371.569 259.256L370.996 257.97L370.965 257.975C370.863 258.897 370.085 259.602 368.995 259.755ZM372.345 253.4C371.776 252.122 372.607 251.036 374.39 250.785C376.064 250.55 377.703 251.296 378.328 252.552L377.036 252.733C376.623 252.028 375.794 251.672 374.797 251.812C373.809 251.951 373.356 252.495 373.647 253.149C373.877 253.666 374.459 253.95 375.474 254.037L376.852 254.141C378.656 254.291 379.491 254.754 379.98 255.853C380.559 257.153 379.637 258.259 377.745 258.525C375.97 258.775 374.336 258.058 373.607 256.756L374.962 256.566C375.455 257.321 376.279 257.647 377.377 257.493C378.474 257.339 378.96 256.813 378.659 256.138C378.423 255.606 377.96 255.366 376.95 255.271L375.375 255.134C373.8 254.997 372.799 254.42 372.345 253.4ZM378.946 248.367L380.301 248.176L381.104 249.979L382.676 249.758L383.134 250.785L381.561 251.006L383.537 255.445C383.841 256.127 384.29 256.392 384.983 256.295C385.138 256.273 385.44 256.207 385.527 256.18L385.994 257.228C385.846 257.287 385.482 257.361 385.163 257.406C383.676 257.615 382.851 257.136 382.211 255.7L380.206 251.197L379 251.366L378.542 250.339L379.749 250.169L378.946 248.367ZM398.331 247.558L399.399 255.344L398.021 255.538L393.618 250.014L393.587 250.018L394.339 256.056L392.961 256.249L387.37 249.098L388.717 248.909L393.041 254.757L393.072 254.753L392.197 248.42L393.505 248.236L398.047 254.054L398.078 254.05L396.992 247.746L398.331 247.558ZM403.435 247.856C402.166 248.034 401.679 249.056 402.146 250.311L406.545 249.693C405.957 248.447 404.712 247.676 403.435 247.856ZM407.508 251.931L408.839 251.744C409.188 253.084 408.246 254.238 406.479 254.487C404.159 254.813 402.088 253.524 401.042 251.176C400.009 248.856 400.741 247.082 402.976 246.768C405.163 246.46 407.163 247.736 408.17 249.999L408.381 250.473L402.573 251.289L402.605 251.361C403.241 252.79 404.571 253.603 406.027 253.398C407.055 253.254 407.596 252.666 407.508 251.931ZM411.929 246.662C410.66 246.84 410.172 247.863 410.639 249.117L415.038 248.499C414.45 247.254 413.205 246.482 411.929 246.662ZM416.001 250.737L417.332 250.55C417.681 251.89 416.739 253.045 414.972 253.293C412.652 253.619 410.581 252.331 409.535 249.982C408.503 247.662 409.235 245.888 411.469 245.574C413.657 245.267 415.656 246.543 416.663 248.805L416.874 249.279L411.066 250.095L411.098 250.167C411.735 251.596 413.064 252.409 414.52 252.204C415.548 252.06 416.089 251.473 416.001 250.737ZM419.652 248.087L421.756 244.266L423.399 244.035L421.323 247.753L426.833 251.489L425.261 251.71L420.708 248.656L420.247 249.423L421.5 252.238L420.146 252.429L415.532 242.065L416.886 241.875L419.652 248.087Z" fill="white"/>
<path opacity="0.1" d="M310.658 286.857C327.206 283.328 369.4 278.601 405.788 287.919C451.272 299.565 566.56 312.225 595.016 251.944C623.471 191.663 603.436 165.581 685.895 140.317" stroke="white" stroke-width="1.50943" stroke-miterlimit="10" stroke-linecap="round"/>
<path d="M319.782 305.259C330.484 311.211 358.93 321.403 387.099 314.558C422.311 306.002 417.285 340.62 444.259 328.171C471.234 315.721 445.216 294.846 482.511 288.882C519.807 282.919 484.129 279.997 526.777 261.015C569.425 242.033 583.145 241.548 619.59 256.629C656.035 271.711 639.228 183.88 703.424 179.909" stroke="#2156E9" stroke-width="1.50943" stroke-miterlimit="10" stroke-linecap="round"/>
<rect opacity="0.4" width="121.761" height="271.698" transform="matrix(0.990268 -0.139173 0.406737 0.913545 488.748 73.2734)" fill="url(#paint2_linear_130_1612)"/>
<path opacity="0.1" d="M325.31 309.328L729.265 252.555" stroke="white" stroke-width="1.50943" stroke-miterlimit="10" stroke-linecap="round" stroke-dasharray="5.03 5.03"/>
<g filter="url(#filter1_d_130_1612)">
<circle cx="10.0629" cy="10.0629" r="10.0629" transform="matrix(0.990268 -0.139173 0.406737 0.913545 551.05 239.367)" fill="#2156E9"/>
</g>
<circle cx="6.03773" cy="6.03773" r="6.03773" transform="matrix(0.990268 -0.139173 0.406737 0.913545 556.673 242.484)" fill="white"/>
<g filter="url(#filter2_d_130_1612)">
<circle cx="10.0629" cy="10.0629" r="10.0629" transform="matrix(0.990268 -0.139173 0.406737 0.913545 655.663 186.569)" fill="#2156E9"/>
</g>
<circle cx="6.03773" cy="6.03773" r="6.03773" transform="matrix(0.990268 -0.139173 0.406737 0.913545 661.287 189.686)" fill="white"/>
</g>
<defs>
<filter id="filter0_d_130_1612" x="172.371" y="-1.75097" width="616.253" height="397.67" filterUnits="userSpaceOnUse" color-interpolation-filters="sRGB">
<feFlood flood-opacity="0" result="BackgroundImageFix"/>
<feColorMatrix in="SourceAlpha" type="matrix" values="0 0 0 0 0 0 0 0 0 0 0 0 0 0 0 0 0 0 127 0" result="hardAlpha"/>
<feOffset dx="-13.6803" dy="-7.29613"/>
<feGaussianBlur stdDeviation="22.8004"/>
<feComposite in2="hardAlpha" operator="out"/>
<feColorMatrix type="matrix" values="0 0 0 0 0 0 0 0 0 0 0 0 0 0 0 0 0 0 0.28 0"/>
<feBlend mode="normal" in2="BackgroundImageFix" result="effect1_dropShadow_130_1612"/>
<feBlend mode="normal" in="SourceGraphic" in2="effect1_dropShadow_130_1612" result="shape"/>
</filter>
<filter id="filter1_d_130_1612" x="543.263" y="226.79" width="43.6895" height="40.7389" filterUnits="userSpaceOnUse" color-interpolation-filters="sRGB">
<feFlood flood-opacity="0" result="BackgroundImageFix"/>
<feColorMatrix in="SourceAlpha" type="matrix" values="0 0 0 0 0 0 0 0 0 0 0 0 0 0 0 0 0 0 127 0" result="hardAlpha"/>
<feOffset/>
<feGaussianBlur stdDeviation="5.53458"/>
<feComposite in2="hardAlpha" operator="out"/>
<feColorMatrix type="matrix" values="0 0 0 0 0.129412 0 0 0 0 0.337255 0 0 0 0 0.913725 0 0 0 1 0"/>
<feBlend mode="normal" in2="BackgroundImageFix" result="effect1_dropShadow_130_1612"/>
<feBlend mode="normal" in="SourceGraphic" in2="effect1_dropShadow_130_1612" result="shape"/>
</filter>
<filter id="filter2_d_130_1612" x="647.877" y="173.992" width="43.6895" height="40.7389" filterUnits="userSpaceOnUse" color-interpolation-filters="sRGB">
<feFlood flood-opacity="0" result="BackgroundImageFix"/>
<feColorMatrix in="SourceAlpha" type="matrix" values="0 0 0 0 0 0 0 0 0 0 0 0 0 0 0 0 0 0 127 0" result="hardAlpha"/>
<feOffset/>
<feGaussianBlur stdDeviation="5.53458"/>
<feComposite in2="hardAlpha" operator="out"/>
<feColorMatrix type="matrix" values="0 0 0 0 0.129412 0 0 0 0 0.337255 0 0 0 0 0.913725 0 0 0 1 0"/>
<feBlend mode="normal" in2="BackgroundImageFix" result="effect1_dropShadow_130_1612"/>
<feBlend mode="normal" in="SourceGraphic" in2="effect1_dropShadow_130_1612" result="shape"/>
</filter>
<linearGradient id="paint0_linear_130_1612" x1="0" y1="4.02515" x2="229.937" y2="4.02515" gradientUnits="userSpaceOnUse">
<stop stop-color="#2156E9"/>
<stop offset="0.5" stop-color="#93E7E9"/>
<stop offset="1" stop-color="#FFAF7F"/>
</linearGradient>
<linearGradient id="paint1_linear_130_1612" x1="0" y1="4.02515" x2="124.277" y2="4.02515" gradientUnits="userSpaceOnUse">
<stop offset="0.0001" stop-color="#FFAF7F"/>
<stop offset="1" stop-color="#F78A49"/>
</linearGradient>
<linearGradient id="paint2_linear_130_1612" x1="60.8804" y1="0" x2="60.8804" y2="271.698" gradientUnits="userSpaceOnUse">
<stop stop-color="#0A0B14" stop-opacity="0"/>
<stop offset="1" stop-color="#2156E9"/>
</linearGradient>
<clipPath id="clip0_130_1612">
<rect width="418.616" height="271.698" rx="24.1509" transform="matrix(0.990268 -0.139173 0.406737 0.913545 0 85.2114)" fill="white"/>
</clipPath>
</defs>
</svg>
