<svg width="461" height="300" viewBox="0 0 461 300" fill="none" xmlns="http://www.w3.org/2000/svg">
<rect x="1" y="1" width="459" height="297.909" rx="26.4808" fill="url(#paint0_linear_130_1642)"/>
<rect x="1" y="1" width="459" height="297.909" rx="26.4808" stroke="url(#paint1_linear_130_1642)" stroke-width="1.10337"/>
<path d="M35.3897 46.7393C31.1012 46.7393 28.3859 43.6253 28.3859 38.7011C28.3859 33.82 31.1335 30.6737 35.3897 30.6737C38.773 30.6737 41.3483 32.7317 41.8439 35.835H39.8829C39.3872 33.7985 37.6093 32.4624 35.3897 32.4624C32.3511 32.4624 30.3793 34.9191 30.3793 38.7011C30.3793 42.5155 32.3295 44.9507 35.4004 44.9507C37.6847 44.9507 39.3226 43.8516 39.8829 41.9552H41.8439C41.1328 45.0261 38.8269 46.7393 35.3897 46.7393ZM48.4921 46.6747C45.3889 46.6747 43.2986 44.4442 43.2986 40.8777C43.2986 37.3004 45.3889 35.0807 48.4921 35.0807C51.5846 35.0807 53.6749 37.3004 53.6749 40.8777C53.6749 44.4442 51.5846 46.6747 48.4921 46.6747ZM48.4921 45.0261C50.4747 45.0261 51.7677 43.5176 51.7677 40.8777C51.7677 38.2378 50.4747 36.7293 48.4921 36.7293C46.5095 36.7293 45.2057 38.2378 45.2057 40.8777C45.2057 43.5176 46.5095 45.0261 48.4921 45.0261ZM55.5713 46.4807V35.2747H57.3384V37.0633H57.3815C57.9095 35.8781 59.0517 35.0807 60.5602 35.0807C62.0902 35.0807 63.2216 35.8565 63.7065 37.2142H63.7496C64.3746 35.8781 65.6891 35.0807 67.2623 35.0807C69.4819 35.0807 70.915 36.5246 70.915 38.7442V46.4807H69.0402V39.1752C69.0402 37.6452 68.1889 36.7401 66.7127 36.7401C65.2258 36.7401 64.1806 37.8391 64.1806 39.3584V46.4807H62.3057V38.9705C62.3057 37.6236 61.4006 36.7401 60.0107 36.7401C58.5237 36.7401 57.4462 37.9038 57.4462 39.4554V46.4807H55.5713ZM78.7485 35.0807C81.6039 35.0807 83.5434 37.365 83.5434 40.8777C83.5434 44.3904 81.6146 46.6747 78.7916 46.6747C77.1861 46.6747 75.8931 45.8881 75.225 44.6597H75.1819V50.2197H73.3071V35.2747H75.085V37.1711H75.1281C75.8177 35.9104 77.1214 35.0807 78.7485 35.0807ZM78.3821 45.0261C80.3755 45.0261 81.6254 43.4206 81.6254 40.8777C81.6254 38.3455 80.3755 36.7293 78.3821 36.7293C76.4642 36.7293 75.1712 38.3886 75.1712 40.8777C75.1712 43.3775 76.4642 45.0261 78.3821 45.0261ZM85.5368 46.4807V30.9323H87.4116V46.4807H85.5368ZM90.0407 46.4807V35.2747H91.9156V46.4807H90.0407ZM90.9782 33.389C90.3424 33.389 89.8145 32.861 89.8145 32.2253C89.8145 31.5788 90.3424 31.0616 90.9782 31.0616C91.6247 31.0616 92.1526 31.5788 92.1526 32.2253C92.1526 32.861 91.6247 33.389 90.9782 33.389ZM98.1436 45.08C99.9107 45.08 101.268 43.8408 101.268 42.2246V41.3087L98.2729 41.4919C96.7644 41.5888 95.9024 42.2569 95.9024 43.3128C95.9024 44.3796 96.7967 45.08 98.1436 45.08ZM97.7233 46.6747C95.4929 46.6747 93.9952 45.3278 93.9952 43.3128C93.9952 41.3949 95.4714 40.1881 98.0574 40.0372L101.268 39.8541V38.9166C101.268 37.5482 100.363 36.7293 98.8116 36.7293C97.3678 36.7293 96.4627 37.4081 96.2256 38.5072H94.4154C94.5447 36.5677 96.2041 35.0807 98.8547 35.0807C101.484 35.0807 103.143 36.503 103.143 38.7334V46.4807H101.365V44.552H101.322C100.654 45.8342 99.2319 46.6747 97.7233 46.6747ZM105.524 46.4807V35.2747H107.292V37.0633H107.335C107.96 35.8565 109.156 35.0807 110.89 35.0807C113.347 35.0807 114.769 36.6646 114.769 39.2076V46.4807H112.895V39.5416C112.895 37.7314 112.043 36.7401 110.319 36.7401C108.552 36.7401 107.399 37.99 107.399 39.8864V46.4807H105.524ZM126.471 38.949H124.639C124.37 37.7314 123.422 36.7293 121.773 36.7293C119.834 36.7293 118.519 38.3348 118.519 40.8777C118.519 43.4852 119.855 45.0261 121.795 45.0261C123.325 45.0261 124.327 44.218 124.65 42.8711H126.493C126.202 45.1015 124.327 46.6747 121.784 46.6747C118.681 46.6747 116.612 44.4873 116.612 40.8777C116.612 37.3435 118.67 35.0807 121.762 35.0807C124.564 35.0807 126.234 36.934 126.471 38.949ZM132.71 36.7077C130.954 36.7077 129.725 38.0546 129.607 39.9187H135.695C135.652 38.0438 134.477 36.7077 132.71 36.7077ZM135.652 43.2697H137.494C137.171 45.2308 135.274 46.6747 132.828 46.6747C129.617 46.6747 127.667 44.4442 127.667 40.9208C127.667 37.4404 129.65 35.0807 132.742 35.0807C135.77 35.0807 137.634 37.2788 137.634 40.673V41.3841H129.596V41.4919C129.596 43.6361 130.857 45.0476 132.872 45.0476C134.294 45.0476 135.339 44.3257 135.652 43.2697ZM150.909 30.6737C155.316 30.6737 158.074 33.7769 158.074 38.7119C158.074 43.6469 155.316 46.7393 150.909 46.7393C146.502 46.7393 143.744 43.6469 143.744 38.7119C143.744 33.7769 146.502 30.6737 150.909 30.6737ZM150.909 32.4624C147.73 32.4624 145.737 34.876 145.737 38.7119C145.737 42.537 147.73 44.9507 150.909 44.9507C154.088 44.9507 156.081 42.537 156.081 38.7119C156.081 34.876 154.088 32.4624 150.909 32.4624ZM169.388 35.2747L165.272 46.4807H163.354L159.227 35.2747H161.199L164.292 44.4873H164.335L167.438 35.2747H169.388ZM175.034 36.7077C173.278 36.7077 172.05 38.0546 171.931 39.9187H178.019C177.976 38.0438 176.801 36.7077 175.034 36.7077ZM177.976 43.2697H179.818C179.495 45.2308 177.599 46.6747 175.153 46.6747C171.942 46.6747 169.992 44.4442 169.992 40.9208C169.992 37.4404 171.974 35.0807 175.067 35.0807C178.094 35.0807 179.959 37.2788 179.959 40.673V41.3841H171.92V41.4919C171.92 43.6361 173.181 45.0476 175.196 45.0476C176.618 45.0476 177.663 44.3257 177.976 43.2697ZM181.855 46.4807V35.2747H183.622V37.1064H183.665C184.032 35.8673 185.066 35.0807 186.38 35.0807C186.704 35.0807 186.984 35.1346 187.135 35.1561V36.9771C186.984 36.9232 186.585 36.8694 186.133 36.8694C184.678 36.8694 183.73 37.9145 183.73 39.4985V46.4807H181.855ZM197.856 35.2747L193.74 46.4807H191.822L187.695 35.2747H189.667L192.759 44.4873H192.802L195.906 35.2747H197.856ZM199.429 46.4807V35.2747H201.304V46.4807H199.429ZM200.367 33.389C199.731 33.389 199.203 32.861 199.203 32.2253C199.203 31.5788 199.731 31.0616 200.367 31.0616C201.013 31.0616 201.541 31.5788 201.541 32.2253C201.541 32.861 201.013 33.389 200.367 33.389ZM208.329 36.7077C206.573 36.7077 205.345 38.0546 205.226 39.9187H211.314C211.271 38.0438 210.096 36.7077 208.329 36.7077ZM211.271 43.2697H213.113C212.79 45.2308 210.894 46.6747 208.448 46.6747C205.237 46.6747 203.287 44.4442 203.287 40.9208C203.287 37.4404 205.269 35.0807 208.362 35.0807C211.389 35.0807 213.253 37.2788 213.253 40.673V41.3841H205.215V41.4919C205.215 43.6361 206.476 45.0476 208.491 45.0476C209.913 45.0476 210.958 44.3257 211.271 43.2697ZM229.405 35.2747L226.28 46.4807H224.373L221.841 37.8068H221.798L219.277 46.4807H217.37L214.234 35.2747H216.098L218.339 44.3904H218.382L220.915 35.2747H222.725L225.268 44.3904H225.311L227.552 35.2747H229.405Z" fill="white"/>
<path d="M40.691 105.652C34.1182 105.652 29.4203 101.924 29.4203 96.73C29.4203 92.851 32.0925 89.6615 36.1008 88.7349V88.6487C32.739 87.6143 30.6486 84.9636 30.6486 81.688C30.6486 76.9901 34.9156 73.5205 40.691 73.5205C46.5095 73.5205 50.7118 76.9685 50.7118 81.7096C50.7118 84.9421 48.6645 87.5712 45.2812 88.6487V88.7349C49.311 89.6831 51.9832 92.8725 51.9832 96.73C51.9832 101.945 47.2853 105.652 40.691 105.652ZM40.691 102.268C44.9795 102.268 48.018 99.8332 48.018 96.4498C48.018 93.0234 44.9795 90.6098 40.691 90.6098C36.4241 90.6098 33.364 93.0449 33.364 96.4498C33.364 99.8332 36.4241 102.268 40.691 102.268ZM40.691 87.2048C44.3114 87.2048 46.8759 85.0714 46.8759 82.0544C46.8759 78.9942 44.333 76.8608 40.691 76.8608C37.049 76.8608 34.5061 79.0158 34.5061 82.0544C34.5061 85.0714 37.049 87.2048 40.691 87.2048ZM62.8014 90.7822V87.5065H66.5296C70.1069 87.5065 72.6067 85.2007 72.6067 82.0544C72.6067 78.9727 70.5163 76.8823 66.5727 76.8823C62.9953 76.8823 60.6248 78.9296 60.28 82.1837H56.5519C56.9829 76.9039 60.905 73.5205 66.7451 73.5205C72.305 73.5205 76.5073 76.8608 76.5073 81.5372C76.5073 85.4377 74.0075 88.2392 70.1284 88.9288V89.015C74.8264 89.2952 77.8434 92.2045 77.8434 96.5791C77.8434 101.924 72.973 105.652 66.8744 105.652C60.3662 105.652 56.2071 102.053 55.9269 96.9024H59.6551C59.9999 100.092 62.6505 102.29 66.8313 102.29C70.9473 102.29 73.8997 99.9625 73.8997 96.7084C73.8997 93.0449 71.1413 90.7822 66.702 90.7822H62.8014ZM94.1999 81.3863C94.1999 86.0842 91.6139 89.1228 87.6702 89.1228C83.7266 89.1228 81.1405 86.0842 81.1405 81.3863C81.1405 76.6884 83.7266 73.6498 87.6702 73.6498C91.6139 73.6498 94.1999 76.6884 94.1999 81.3863ZM87.6702 86.4937C89.5666 86.4937 90.7519 84.5542 90.7519 81.3863C90.7519 78.2184 89.5666 76.2789 87.6702 76.2789C85.7738 76.2789 84.5886 78.2184 84.5886 81.3863C84.5886 84.5542 85.7738 86.4937 87.6702 86.4937ZM86.722 105.135H82.9723L94.9757 88.7349L105.729 74.0377H109.436L97.7557 90.0279L86.722 105.135ZM111.289 97.7213C111.289 102.419 108.703 105.458 104.759 105.458C100.816 105.458 98.2298 102.419 98.2298 97.7213C98.2298 93.0234 100.816 89.9848 104.759 89.9848C108.703 89.9848 111.289 93.0234 111.289 97.7213ZM104.759 102.829C106.656 102.829 107.841 100.889 107.841 97.7213C107.841 94.5534 106.656 92.6139 104.759 92.6139C102.863 92.6139 101.678 94.5534 101.678 97.7213C101.678 100.889 102.863 102.829 104.759 102.829Z" fill="white"/>
<path d="M32.297 262.752C29.6371 262.752 27.4695 260.594 27.5891 257.937C28.148 245.526 30.8641 233.295 35.6277 221.795C41.0063 208.809 48.8898 197.011 58.8281 187.073C68.7664 177.134 80.565 169.251 93.55 163.872C106.535 158.494 120.452 155.725 134.507 155.725C148.562 155.725 162.479 158.494 175.465 163.872C188.45 169.251 200.248 177.134 210.186 187.073C220.125 197.011 228.008 208.81 233.387 221.795C238.15 233.295 240.866 245.526 241.425 257.937C241.545 260.594 239.377 262.752 236.717 262.752C234.058 262.752 231.914 260.594 231.782 257.938C231.231 246.792 228.767 235.812 224.488 225.481C219.593 213.664 212.419 202.928 203.375 193.884C194.331 184.84 183.595 177.666 171.778 172.771C159.962 167.877 147.297 165.358 134.507 165.358C121.717 165.358 109.053 167.877 97.2362 172.771C85.4198 177.666 74.6831 184.84 65.6392 193.884C56.5954 202.928 49.4214 213.664 44.5268 225.481C40.2474 235.812 37.7838 246.792 37.2322 257.938C37.1007 260.594 34.9569 262.752 32.297 262.752Z" fill="white" fill-opacity="0.1"/>
<path d="M45.4104 262.497C42.8206 262.497 40.7089 260.397 40.8383 257.81C41.3745 247.095 43.7458 236.54 47.8602 226.607C52.5734 215.228 59.4816 204.89 68.1905 196.181C76.8993 187.472 87.2382 180.564 98.6169 175.85C109.996 171.137 122.191 168.711 134.507 168.711C146.823 168.711 159.019 171.137 170.398 175.85C181.776 180.564 192.115 187.472 200.824 196.181C209.533 204.89 216.441 215.229 221.154 226.607C225.269 236.54 227.64 247.095 228.176 257.81C228.305 260.397 226.194 262.498 223.604 262.498C221.014 262.498 218.928 260.396 218.784 257.811C218.257 248.328 216.132 238.991 212.49 230.196C208.248 219.955 202.03 210.65 194.192 202.812C186.354 194.974 177.049 188.757 166.809 184.515C156.568 180.273 145.592 178.09 134.507 178.09C123.423 178.09 112.447 180.273 102.206 184.515C91.9651 188.757 82.6601 194.974 74.8221 202.812C66.9842 210.65 60.7668 219.955 56.5249 230.196C52.8819 238.991 50.7573 248.328 50.23 257.811C50.0862 260.396 48.0003 262.497 45.4104 262.497Z" fill="white" fill-opacity="0.1"/>
<path d="M58.3916 262.498C55.9449 262.498 53.9488 260.513 54.0833 258.07C54.5824 249.006 56.6107 240.08 60.0927 231.674C64.1405 221.902 70.0735 213.023 77.5529 205.543C85.0322 198.064 93.9115 192.131 103.684 188.083C113.456 184.035 123.93 181.952 134.507 181.952C145.085 181.952 155.559 184.035 165.331 188.083C175.103 192.131 183.982 198.064 191.462 205.543C198.941 213.023 204.874 221.902 208.922 231.674C212.404 240.08 214.432 249.006 214.931 258.07C215.066 260.513 213.07 262.498 210.623 262.498C208.176 262.498 206.207 260.512 206.056 258.07C205.567 250.171 203.773 242.396 200.736 235.065C197.134 226.367 191.853 218.465 185.197 211.808C178.54 205.152 170.637 199.871 161.94 196.269C153.243 192.666 143.921 190.812 134.507 190.812C125.093 190.812 115.772 192.666 107.074 196.269C98.377 199.871 90.4745 205.152 83.8178 211.808C77.1612 218.465 71.8809 226.367 68.2783 235.065C65.2417 242.396 63.4472 250.171 62.9584 258.07C62.8073 260.512 60.8382 262.498 58.3916 262.498Z" fill="white" fill-opacity="0.1"/>
<path d="M32.297 262.752C29.6371 262.752 27.4695 260.594 27.5891 257.937C28.5554 236.472 35.9646 215.753 48.9063 198.509C62.8135 179.978 82.3584 166.461 104.605 159.988C126.851 153.514 150.597 154.435 172.275 162.611C192.449 170.219 209.818 183.728 222.15 201.323C223.676 203.501 223.005 206.485 220.76 207.912C218.515 209.339 215.548 208.668 214.012 206.497C202.806 190.659 187.098 178.496 168.876 171.623C149.149 164.183 127.54 163.346 107.296 169.236C87.0518 175.127 69.2659 187.428 56.6104 204.291C44.9205 219.867 38.191 238.559 37.2322 257.937C37.1007 260.594 34.9569 262.752 32.297 262.752Z" fill="url(#paint2_linear_130_1642)"/>
<path d="M45.4104 262.497C42.8206 262.497 40.7089 260.396 40.8383 257.81C41.9045 236.493 50.2178 216.122 64.4769 200.115C79.7781 182.938 100.859 171.983 123.71 169.335C146.561 166.687 169.588 172.529 188.412 185.751C205.955 198.072 218.707 216.001 224.621 236.509C225.338 238.998 223.763 241.526 221.242 242.119C218.721 242.711 216.21 241.142 215.478 238.658C210.1 220.389 198.681 204.424 183.022 193.425C166.08 181.526 145.355 176.268 124.789 178.651C104.224 181.035 85.2511 190.894 71.4799 206.353C58.7512 220.642 51.287 238.795 50.2299 257.81C50.0862 260.396 48.0003 262.497 45.4104 262.497Z" fill="url(#paint3_linear_130_1642)"/>
<path d="M58.3916 262.498C55.9449 262.498 53.9488 260.512 54.0833 258.07C54.9254 242.772 60.1168 227.997 69.0913 215.504C78.9291 201.81 92.8167 191.548 108.797 186.166C124.776 180.783 142.042 180.552 158.161 185.503C172.865 190.021 185.937 198.643 195.863 210.314C197.448 212.178 197.06 214.966 195.112 216.446C193.164 217.927 190.395 217.537 188.797 215.684C180.002 205.485 168.489 197.945 155.559 193.973C141.213 189.566 125.847 189.772 111.625 194.562C97.4027 199.353 85.0427 208.485 76.287 220.674C68.3949 231.66 63.79 244.629 62.9584 258.07C62.8073 260.512 60.8382 262.498 58.3916 262.498Z" fill="url(#paint4_linear_130_1642)"/>
<circle cx="263.601" cy="168.365" r="4.41346" fill="#0F96F0"/>
<path d="M281.807 161.927V169.9C281.807 171.779 283.039 173.141 285.194 173.141C287.349 173.141 288.582 171.779 288.582 169.9V161.927H290.133V170.004C290.133 172.659 288.28 174.572 285.194 174.572C282.108 174.572 280.255 172.659 280.255 170.004V161.927H281.807ZM297.021 165.245C299.305 165.245 300.856 167.073 300.856 169.883C300.856 172.693 299.313 174.521 297.055 174.521C295.771 174.521 294.736 173.891 294.202 172.909H294.167V177.357H292.667V165.401H294.09V166.918H294.124C294.676 165.909 295.719 165.245 297.021 165.245ZM296.727 173.202C298.322 173.202 299.322 171.917 299.322 169.883C299.322 167.857 298.322 166.564 296.727 166.564C295.193 166.564 294.159 167.892 294.159 169.883C294.159 171.883 295.193 173.202 296.727 173.202ZM308.364 170.021H302.709V168.625H308.364V170.021ZM311.131 163.237H312.631V165.401H314.372V166.633H312.631V171.96C312.631 172.779 312.976 173.15 313.743 173.15C313.915 173.15 314.26 173.124 314.363 173.107V174.365C314.182 174.409 313.769 174.434 313.415 174.434C311.769 174.434 311.131 173.762 311.131 172.038V166.633H309.795V165.401H311.131V163.237ZM319.785 174.521C317.302 174.521 315.63 172.736 315.63 169.883C315.63 167.021 317.302 165.245 319.785 165.245C322.259 165.245 323.931 167.021 323.931 169.883C323.931 172.736 322.259 174.521 319.785 174.521ZM319.785 173.202C321.371 173.202 322.406 171.995 322.406 169.883C322.406 167.771 321.371 166.564 319.785 166.564C318.199 166.564 317.156 167.771 317.156 169.883C317.156 171.995 318.199 173.202 319.785 173.202ZM331.439 170.021H325.784V168.625H331.439V170.021ZM333.956 161.927H338.136C341.826 161.927 344.007 164.228 344.007 168.142C344.007 172.064 341.834 174.365 338.136 174.365H333.956V161.927ZM335.507 163.323V172.969H338.033C340.852 172.969 342.421 171.245 342.421 168.159C342.421 165.047 340.86 163.323 338.033 163.323H335.507ZM349.015 173.245C350.428 173.245 351.514 172.254 351.514 170.961V170.228L349.118 170.374C347.911 170.452 347.222 170.986 347.222 171.831C347.222 172.685 347.937 173.245 349.015 173.245ZM348.678 174.521C346.894 174.521 345.696 173.443 345.696 171.831C345.696 170.297 346.877 169.331 348.946 169.211L351.514 169.064V168.314C351.514 167.219 350.79 166.564 349.549 166.564C348.394 166.564 347.67 167.107 347.48 167.987H346.032C346.135 166.435 347.463 165.245 349.583 165.245C351.687 165.245 353.014 166.383 353.014 168.168V174.365H351.592V172.822H351.557C351.023 173.848 349.885 174.521 348.678 174.521ZM355.755 163.237H357.255V165.401H358.996V166.633H357.255V171.96C357.255 172.779 357.6 173.15 358.367 173.15C358.539 173.15 358.884 173.124 358.988 173.107V174.365C358.807 174.409 358.393 174.434 358.039 174.434C356.393 174.434 355.755 173.762 355.755 172.038V166.633H354.419V165.401H355.755V163.237ZM364.289 166.547C362.884 166.547 361.901 167.625 361.806 169.116H366.676C366.642 167.616 365.702 166.547 364.289 166.547ZM366.642 171.797H368.116C367.857 173.366 366.34 174.521 364.383 174.521C361.815 174.521 360.254 172.736 360.254 169.918C360.254 167.133 361.841 165.245 364.314 165.245C366.737 165.245 368.228 167.004 368.228 169.719V170.288H361.797V170.374C361.797 172.09 362.806 173.219 364.418 173.219C365.556 173.219 366.392 172.641 366.642 171.797Z" fill="white"/>
<path d="M401.574 174.365L407.203 163.34V163.306H400.505V161.927H408.737V163.366L403.203 174.365H401.574ZM415.193 174.581C413.331 174.581 411.849 173.572 411.082 171.779C410.668 170.823 410.47 169.702 410.47 168.357C410.47 164.168 412.254 161.711 415.297 161.711C417.409 161.711 419.029 162.978 419.426 164.935H417.848C417.512 163.806 416.512 163.082 415.28 163.082C413.202 163.082 412.021 164.927 411.97 168.237H411.995C412.556 167.021 413.926 166.22 415.469 166.22C417.84 166.22 419.598 167.969 419.598 170.331C419.598 172.788 417.745 174.581 415.193 174.581ZM415.176 173.202C416.762 173.202 418.021 171.952 418.021 170.383C418.021 168.754 416.848 167.582 415.202 167.582C413.556 167.582 412.34 168.754 412.34 170.34C412.34 171.935 413.581 173.202 415.176 173.202ZM426.261 164.866C426.261 166.745 425.227 167.961 423.649 167.961C422.072 167.961 421.037 166.745 421.037 164.866C421.037 162.987 422.072 161.772 423.649 161.772C425.227 161.772 426.261 162.987 426.261 164.866ZM423.649 166.909C424.408 166.909 424.882 166.133 424.882 164.866C424.882 163.599 424.408 162.823 423.649 162.823C422.891 162.823 422.417 163.599 422.417 164.866C422.417 166.133 422.891 166.909 423.649 166.909ZM423.27 174.365H421.77L426.572 167.806L430.873 161.927H432.356L427.684 168.323L423.27 174.365ZM433.097 171.4C433.097 173.279 432.062 174.495 430.485 174.495C428.908 174.495 427.873 173.279 427.873 171.4C427.873 169.521 428.908 168.306 430.485 168.306C432.062 168.306 433.097 169.521 433.097 171.4ZM430.485 173.443C431.244 173.443 431.718 172.667 431.718 171.4C431.718 170.133 431.244 169.357 430.485 169.357C429.726 169.357 429.252 170.133 429.252 171.4C429.252 172.667 429.726 173.443 430.485 173.443Z" fill="white"/>
<circle cx="263.601" cy="212.846" r="4.41346" fill="#4BCFF7"/>
<path d="M285.505 206.201C289.03 206.201 291.237 208.683 291.237 212.631C291.237 216.579 289.03 219.053 285.505 219.053C281.979 219.053 279.772 216.579 279.772 212.631C279.772 208.683 281.979 206.201 285.505 206.201ZM285.505 207.632C282.962 207.632 281.367 209.562 281.367 212.631C281.367 215.691 282.962 217.622 285.505 217.622C288.047 217.622 289.642 215.691 289.642 212.631C289.642 209.562 288.047 207.632 285.505 207.632ZM293.288 218.846V209.881H294.702V211.312H294.736C295.236 210.347 296.193 209.726 297.581 209.726C299.546 209.726 300.684 210.993 300.684 213.028V218.846H299.184V213.295C299.184 211.847 298.503 211.054 297.124 211.054C295.71 211.054 294.788 212.054 294.788 213.571V218.846H293.288ZM303.028 218.846V206.407H304.528V218.846H303.028ZM306.985 218.846V209.881H308.485V218.846H306.985ZM307.735 208.373C307.226 208.373 306.804 207.95 306.804 207.442C306.804 206.925 307.226 206.511 307.735 206.511C308.252 206.511 308.674 206.925 308.674 207.442C308.674 207.95 308.252 208.373 307.735 208.373ZM310.863 218.846V209.881H312.277V211.312H312.311C312.811 210.347 313.768 209.726 315.156 209.726C317.121 209.726 318.259 210.993 318.259 213.028V218.846H316.759V213.295C316.759 211.847 316.078 211.054 314.699 211.054C313.286 211.054 312.363 212.054 312.363 213.571V218.846H310.863ZM324.121 211.028C322.716 211.028 321.733 212.105 321.638 213.597H326.508C326.474 212.097 325.534 211.028 324.121 211.028ZM326.474 216.277H327.948C327.689 217.846 326.172 219.001 324.215 219.001C321.647 219.001 320.086 217.217 320.086 214.398C320.086 211.614 321.672 209.726 324.146 209.726C326.569 209.726 328.06 211.485 328.06 214.2V214.769H321.629V214.855C321.629 216.571 322.638 217.7 324.25 217.7C325.388 217.7 326.224 217.122 326.474 216.277Z" fill="white"/>
<path d="M403.591 219.053C401.471 219.053 399.841 217.777 399.462 215.829H401.04C401.367 216.958 402.376 217.7 403.608 217.7C405.677 217.7 406.867 215.821 406.91 212.519H406.901C406.893 212.519 406.893 212.519 406.884 212.519C406.358 213.752 404.996 214.553 403.41 214.553C401.04 214.553 399.281 212.804 399.281 210.442C399.281 207.985 401.134 206.192 403.686 206.192C405.557 206.192 407.039 207.201 407.798 208.985C408.212 209.942 408.41 211.062 408.41 212.416C408.41 216.605 406.634 219.053 403.591 219.053ZM403.677 213.191C405.324 213.191 406.548 212.019 406.548 210.433C406.548 208.838 405.307 207.588 403.703 207.588C402.109 207.588 400.85 208.83 400.85 210.39C400.85 212.01 402.048 213.191 403.677 213.191ZM414.909 219.053C412.004 219.053 410.323 216.553 410.323 212.623C410.323 208.726 412.021 206.201 414.909 206.201C417.797 206.201 419.478 208.709 419.478 212.614C419.478 216.545 417.805 219.053 414.909 219.053ZM414.909 217.7C416.848 217.7 417.917 215.726 417.917 212.623C417.917 209.562 416.831 207.563 414.909 207.563C412.987 207.563 411.883 209.58 411.883 212.614C411.883 215.717 412.961 217.7 414.909 217.7ZM426.261 209.347C426.261 211.226 425.227 212.441 423.649 212.441C422.072 212.441 421.037 211.226 421.037 209.347C421.037 207.468 422.072 206.252 423.649 206.252C425.227 206.252 426.261 207.468 426.261 209.347ZM423.649 211.39C424.408 211.39 424.882 210.614 424.882 209.347C424.882 208.08 424.408 207.304 423.649 207.304C422.891 207.304 422.417 208.08 422.417 209.347C422.417 210.614 422.891 211.39 423.649 211.39ZM423.27 218.846H421.77L426.572 212.286L430.873 206.407H432.356L427.684 212.804L423.27 218.846ZM433.097 215.881C433.097 217.76 432.063 218.975 430.485 218.975C428.908 218.975 427.873 217.76 427.873 215.881C427.873 214.002 428.908 212.786 430.485 212.786C432.063 212.786 433.097 214.002 433.097 215.881ZM430.485 217.924C431.244 217.924 431.718 217.148 431.718 215.881C431.718 214.614 431.244 213.838 430.485 213.838C429.726 213.838 429.252 214.614 429.252 215.881C429.252 217.148 429.726 217.924 430.485 217.924Z" fill="white"/>
<circle cx="263.601" cy="257.327" r="4.41346" fill="#F88C4B"/>
<path d="M279.66 259.905H281.22C281.367 261.249 282.643 262.137 284.418 262.137C286.099 262.137 287.323 261.249 287.323 260.025C287.323 258.974 286.591 258.327 284.918 257.896L283.324 257.483C281.031 256.896 280.014 255.888 280.014 254.198C280.014 252.129 281.824 250.681 284.41 250.681C286.884 250.681 288.677 252.147 288.746 254.233H287.194C287.056 252.897 285.979 252.078 284.358 252.078C282.746 252.078 281.625 252.914 281.625 254.129C281.625 255.069 282.315 255.629 284.005 256.069L285.306 256.414C287.884 257.06 288.927 258.051 288.927 259.836C288.927 262.111 287.134 263.534 284.272 263.534C281.634 263.534 279.807 262.103 279.66 259.905ZM294.452 255.509C293.047 255.509 292.064 256.586 291.969 258.077H296.84C296.805 256.577 295.865 255.509 294.452 255.509ZM296.805 260.758H298.279C298.02 262.327 296.503 263.482 294.547 263.482C291.978 263.482 290.418 261.698 290.418 258.879C290.418 256.095 292.004 254.207 294.478 254.207C296.9 254.207 298.391 255.965 298.391 258.681V259.25H291.961V259.336C291.961 261.051 292.969 262.18 294.581 262.18C295.719 262.18 296.555 261.603 296.805 260.758ZM307.709 257.301H306.244C306.028 256.327 305.27 255.526 303.951 255.526C302.399 255.526 301.347 256.81 301.347 258.844C301.347 260.931 302.416 262.163 303.968 262.163C305.192 262.163 305.994 261.517 306.252 260.439H307.726C307.494 262.224 305.994 263.482 303.959 263.482C301.477 263.482 299.822 261.732 299.822 258.844C299.822 256.017 301.468 254.207 303.942 254.207C306.183 254.207 307.519 255.69 307.709 257.301ZM316.82 254.362V263.327H315.398V261.87H315.363C314.829 262.905 313.898 263.482 312.519 263.482C310.562 263.482 309.415 262.215 309.415 260.181V254.362H310.915V259.913C310.915 261.37 311.596 262.155 312.984 262.155C314.441 262.155 315.32 261.155 315.32 259.629V254.362H316.82ZM319.121 263.327V254.362H320.535V255.827H320.569C320.863 254.836 321.69 254.207 322.742 254.207C323 254.207 323.224 254.25 323.345 254.267V255.724C323.224 255.681 322.905 255.638 322.543 255.638C321.38 255.638 320.621 256.474 320.621 257.741V263.327H319.121ZM325 263.327V254.362H326.5V263.327H325ZM325.75 252.854C325.241 252.854 324.819 252.431 324.819 251.923C324.819 251.405 325.241 250.992 325.75 250.992C326.267 250.992 326.689 251.405 326.689 251.923C326.689 252.431 326.267 252.854 325.75 252.854ZM329.361 252.198H330.861V254.362H332.602V255.595H330.861V260.922C330.861 261.741 331.206 262.111 331.973 262.111C332.145 262.111 332.49 262.086 332.594 262.068V263.327C332.413 263.37 331.999 263.396 331.646 263.396C329.999 263.396 329.361 262.724 329.361 260.999V255.595H328.025V254.362H329.361V252.198ZM335.3 266.68C335.119 266.68 334.817 266.663 334.654 266.628V265.37C334.817 265.404 335.05 265.413 335.24 265.413C336.076 265.413 336.541 265.008 336.886 263.965L337.093 263.336L333.783 254.362H335.386L337.869 261.827H337.895L340.377 254.362H341.955L338.429 263.956C337.662 266.051 336.921 266.68 335.3 266.68Z" fill="white"/>
<path d="M404.6 263.534C401.971 263.534 400.091 262.043 400.091 259.965C400.091 258.413 401.16 257.138 402.764 256.767V256.733C401.419 256.319 400.583 255.259 400.583 253.948C400.583 252.069 402.29 250.681 404.6 250.681C406.927 250.681 408.608 252.061 408.608 253.957C408.608 255.25 407.789 256.302 406.436 256.733V256.767C408.048 257.146 409.117 258.422 409.117 259.965C409.117 262.051 407.237 263.534 404.6 263.534ZM404.6 262.18C406.315 262.18 407.531 261.206 407.531 259.853C407.531 258.482 406.315 257.517 404.6 257.517C402.893 257.517 401.669 258.491 401.669 259.853C401.669 261.206 402.893 262.18 404.6 262.18ZM404.6 256.155C406.048 256.155 407.074 255.302 407.074 254.095C407.074 252.871 406.057 252.017 404.6 252.017C403.143 252.017 402.126 252.879 402.126 254.095C402.126 255.302 403.143 256.155 404.6 256.155ZM411.185 254.474C411.185 252.302 412.944 250.681 415.288 250.681C417.512 250.681 419.262 252.19 419.262 254.095C419.262 255.483 418.633 256.517 416.555 258.663L413.409 261.913V261.948H419.469V263.327H411.263V262.258L415.642 257.646C417.314 255.888 417.71 255.224 417.71 254.19C417.71 252.991 416.616 252.035 415.245 252.035C413.788 252.035 412.685 253.086 412.685 254.474V254.483H411.185V254.474ZM426.261 253.828C426.261 255.707 425.227 256.922 423.649 256.922C422.072 256.922 421.037 255.707 421.037 253.828C421.037 251.948 422.072 250.733 423.649 250.733C425.227 250.733 426.261 251.948 426.261 253.828ZM423.649 255.871C424.408 255.871 424.882 255.095 424.882 253.828C424.882 252.56 424.408 251.785 423.649 251.785C422.891 251.785 422.417 252.56 422.417 253.828C422.417 255.095 422.891 255.871 423.649 255.871ZM423.27 263.327H421.77L426.572 256.767L430.873 250.888H432.356L427.684 257.284L423.27 263.327ZM433.097 260.362C433.097 262.241 432.062 263.456 430.485 263.456C428.908 263.456 427.873 262.241 427.873 260.362C427.873 258.482 428.908 257.267 430.485 257.267C432.062 257.267 433.097 258.482 433.097 260.362ZM430.485 262.405C431.244 262.405 431.718 261.629 431.718 260.362C431.718 259.094 431.244 258.319 430.485 258.319C429.726 258.319 429.252 259.094 429.252 260.362C429.252 261.629 429.726 262.405 430.485 262.405Z" fill="white"/>
<defs>
<linearGradient id="paint0_linear_130_1642" x1="230.5" y1="1" x2="230.5" y2="298.909" gradientUnits="userSpaceOnUse">
<stop stop-color="#0A0B14"/>
<stop offset="1" stop-color="#07080E"/>
</linearGradient>
<linearGradient id="paint1_linear_130_1642" x1="230.5" y1="1" x2="230.5" y2="298.909" gradientUnits="userSpaceOnUse">
<stop stop-color="#242424"/>
<stop offset="1" stop-color="#07080E"/>
</linearGradient>
<linearGradient id="paint2_linear_130_1642" x1="27.4808" y1="262.752" x2="241.534" y2="262.752" gradientUnits="userSpaceOnUse">
<stop stop-color="#0C94EF"/>
<stop offset="1" stop-color="#65C1FF"/>
</linearGradient>
<linearGradient id="paint3_linear_130_1642" x1="40.7211" y1="262.497" x2="228.293" y2="262.497" gradientUnits="userSpaceOnUse">
<stop stop-color="#49CEF7"/>
<stop offset="1" stop-color="#81DBFF"/>
</linearGradient>
<linearGradient id="paint4_linear_130_1642" x1="53.9615" y1="262.498" x2="215.053" y2="262.498" gradientUnits="userSpaceOnUse">
<stop stop-color="#F78A49"/>
<stop offset="1" stop-color="#FFAF7F"/>
</linearGradient>
</defs>
</svg>
