<svg width="19" height="13" viewBox="0 0 19 13" fill="none" xmlns="http://www.w3.org/2000/svg">
<g clip-path="url(#clip0_429_316)">
<path d="M17.4477 0.543945H1.02031C0.46203 0.543945 0.00738525 0.979647 0.00738525 1.51466V11.8722C0.00738525 12.4072 0.46203 12.8429 1.02031 12.8429H17.4444C18.0026 12.8429 18.4573 12.404 18.4573 11.8722V1.51466C18.4606 0.979647 18.0026 0.543945 17.4477 0.543945Z" fill="#00008B"/>
<path fill-rule="evenodd" clip-rule="evenodd" d="M5.37971 7.89331L5.71736 8.90568L6.75702 8.52764L6.14191 9.41827L7.098 9.95969L5.99148 10.0526L6.14526 11.1098L5.37971 10.3345L4.61083 11.1098L4.76461 10.0526L3.65808 9.95969L4.61417 9.41827L3.99906 8.52764L5.03873 8.90568L5.37971 7.89331Z" fill="white"/>
<path fill-rule="evenodd" clip-rule="evenodd" d="M14.4359 9.71948L14.5963 10.2L15.0911 10.0206L14.8002 10.4435L15.2549 10.703L14.7267 10.7479L14.8002 11.2508L14.4359 10.8824L14.0715 11.2508L14.1417 10.7479L13.6168 10.703L14.0715 10.4435L13.7773 10.0206L14.272 10.2L14.4359 9.71948Z" fill="white"/>
<path fill-rule="evenodd" clip-rule="evenodd" d="M14.4357 2.2002L14.5961 2.68075L15.0909 2.50134L14.8001 2.92423L15.2547 3.18373L14.7265 3.22858L14.8001 3.73156L14.4357 3.36313L14.0713 3.73156L14.1415 3.22858L13.6166 3.18373L14.0713 2.92423L13.7771 2.50134L14.2719 2.68075L14.4357 2.2002Z" fill="white"/>
<path fill-rule="evenodd" clip-rule="evenodd" d="M12.1254 5.2533L12.2892 5.73705L12.784 5.55765L12.4898 5.98053L12.9445 6.24003L12.4196 6.28168L12.4898 6.78466L12.1254 6.41623L11.761 6.78466L11.8346 6.28168L11.3064 6.24003L11.761 5.98053L11.4702 5.55765L11.965 5.73705L12.1254 5.2533Z" fill="white"/>
<path fill-rule="evenodd" clip-rule="evenodd" d="M17.0496 4.50098L17.2134 4.98473L17.7081 4.80533L17.4139 5.22821L17.8686 5.48771L17.3437 5.53256L17.4139 6.03234L17.0496 5.66712L16.6852 6.03234L16.7587 5.53256L16.2305 5.48771L16.6852 5.22821L16.3943 4.80533L16.8891 4.98473L17.0496 4.50098Z" fill="white"/>
<path fill-rule="evenodd" clip-rule="evenodd" d="M15.6121 6.7655L15.7391 7.06665L16.0767 7.08908L15.8193 7.29731L15.8996 7.61448L15.6121 7.44468L15.3246 7.61448L15.4048 7.29731L15.144 7.08908L15.485 7.06665L15.6121 6.7655Z" fill="white"/>
<path d="M0.0842737 1.14303L9.31758 5.56733H10.491V5.00668L1.18077 0.543945H1.02031C0.602435 0.543945 0.238051 0.790629 0.0842737 1.14303ZM10.491 0.543945V1.10459L1.18077 5.56733H0.00738525V5.00668L9.31758 0.543945H10.491Z" fill="white"/>
<path d="M4.37666 0.543945V5.56733H6.12503V0.543945H4.37666ZM0.00738525 2.21947V3.895H10.491V2.21947H0.00738525Z" fill="white"/>
<path d="M0.00738525 2.55266V3.55861H10.491V2.55266H0.00738525ZM4.72433 0.543945V5.56733H5.77402V0.543945H4.72433Z" fill="#FF0000"/>
<path d="M0.00738525 5.56733L3.5008 3.8918H4.28305L0.789642 5.56733H0.00738525ZM0.167848 0.995665C0.234708 0.896351 0.318282 0.809851 0.415229 0.73937L3.50414 2.21947H2.72188L0.167848 0.995665ZM6.21529 2.21947L9.70871 0.543945H10.491L6.99421 2.21947H6.21529ZM10.491 5.56733L6.99421 3.8918H7.77647L10.4876 5.1925V5.56733H10.491Z" fill="#FF0000"/>
</g>
<defs>
<clipPath id="clip0_429_316">
<rect x="0.00738525" y="0.543945" width="18.4532" height="12.3022" rx="3.07554" fill="white"/>
</clipPath>
</defs>
</svg>
