<svg width="14" height="13" viewBox="0 0 14 13" fill="none" xmlns="http://www.w3.org/2000/svg">
<path d="M12.6088 4.40297C13.1047 5.23407 13.3527 5.64963 13.3527 6.10613C13.3527 6.56264 13.1047 6.97819 12.6088 7.8093L11.4255 9.79221C10.9315 10.62 10.6845 11.0339 10.2783 11.2611C9.87217 11.4883 9.37921 11.4883 8.39328 11.4883L6.00995 11.4883C5.02402 11.4883 4.53106 11.4883 4.12489 11.2611C3.71871 11.0339 3.47172 10.62 2.97774 9.79221L1.79446 7.80929C1.29851 6.97819 1.05054 6.56264 1.05054 6.10613C1.05054 5.64963 1.29851 5.23407 1.79446 4.40297L2.97774 2.42005C3.47172 1.59224 3.71871 1.17834 4.12489 0.951138C4.53106 0.723938 5.02402 0.723938 6.00995 0.723938L8.39328 0.723938C9.37921 0.723938 9.87217 0.723938 10.2783 0.951138C10.6845 1.17834 10.9315 1.59224 11.4255 2.42006L12.6088 4.40297Z" stroke="white" stroke-width="1.15333"/>
<path d="M5.66382 3.03058L8.73936 8.41277" stroke="white" stroke-width="1.15333" stroke-linecap="round"/>
</svg>
