<svg width="16" height="16" viewBox="0 0 16 16" fill="none" xmlns="http://www.w3.org/2000/svg">
<g clip-path="url(#clip0_130_1506)">
<path d="M13.8293 6.82782C13.8045 5.11197 13.6771 4.13918 13.0242 3.48657C12.213 2.67584 10.9075 2.67584 8.29636 2.67584C5.68526 2.67584 4.37971 2.67584 3.56855 3.48657C2.75739 4.29729 2.75739 5.60213 2.75739 8.21181C2.75739 10.8215 2.75739 12.1263 3.56855 12.9371C4.30431 13.6724 5.4468 13.7408 7.60136 13.7471" stroke="#74757C" stroke-width="1.15333" stroke-linecap="round" stroke-linejoin="round"/>
<path d="M12.4443 13.5503V14.44M12.4443 13.5503C11.6439 13.5503 10.9386 13.1571 10.525 12.5601M12.4443 13.5503C13.2448 13.5503 13.9501 13.1571 14.3637 12.5601M12.4443 9.10175C13.2449 9.10175 13.9502 9.495 14.3638 10.0921M12.4443 9.10175C11.6438 9.10175 10.9385 9.495 10.5249 10.0921M12.4443 9.10175V8.21204M15.2123 9.5466L14.3638 10.0921M9.67665 13.1054L10.525 12.5601M9.67636 9.5466L10.5249 10.0921M15.212 13.1054L14.3637 12.5601M14.3638 10.0921C14.6084 10.4452 14.751 10.8695 14.751 11.326C14.751 11.7825 14.6084 12.207 14.3637 12.5601M10.5249 10.0921C10.2803 10.4452 10.1377 10.8695 10.1377 11.326C10.1377 11.7825 10.2803 12.207 10.525 12.5601" stroke="#74757C" stroke-width="1.15333" stroke-linecap="round"/>
<path d="M6.56395 1.2923V2.67629" stroke="#74757C" stroke-width="1.15333" stroke-linecap="round" stroke-linejoin="round"/>
<path d="M10.024 1.29211V2.67611" stroke="#74757C" stroke-width="1.15333" stroke-linecap="round" stroke-linejoin="round"/>
<path d="M6.56395 13.7482V15.1322" stroke="#74757C" stroke-width="1.15333" stroke-linecap="round" stroke-linejoin="round"/>
<path d="M2.75739 6.48242L1.37339 6.48242" stroke="#74757C" stroke-width="1.15333" stroke-linecap="round" stroke-linejoin="round"/>
<path d="M2.75739 9.94214L1.37339 9.94214" stroke="#74757C" stroke-width="1.15333" stroke-linecap="round" stroke-linejoin="round"/>
<path d="M15.2132 6.48242L13.8292 6.48242" stroke="#74757C" stroke-width="1.15333" stroke-linecap="round" stroke-linejoin="round"/>
<path d="M8.292 5.44446H5.52402" stroke="#74757C" stroke-width="1.15333" stroke-linecap="round" stroke-linejoin="round"/>
</g>
<defs>
<clipPath id="clip0_130_1506">
<rect width="15.3777" height="15.3777" fill="white" transform="translate(0.604858 0.523376)"/>
</clipPath>
</defs>
</svg>
