<svg width="16" height="16" viewBox="0 0 16 16" fill="none" xmlns="http://www.w3.org/2000/svg">
<g clip-path="url(#clip0_130_1490)">
<path d="M9.38572 8.82481L11.9351 5.91119M9.74992 10.2816C9.74992 11.0862 9.09768 11.7384 8.29311 11.7384C7.48854 11.7384 6.8363 11.0862 6.8363 10.2816C6.8363 9.47704 7.48854 8.82481 8.29311 8.82481C9.09768 8.82481 9.74992 9.47704 9.74992 10.2816Z" stroke="white" stroke-width="1.15333" stroke-linecap="round"/>
<path d="M3.92332 8.09656C3.92332 5.68284 5.88003 3.72614 8.29375 3.72614C9.08979 3.72614 9.83613 3.93896 10.479 4.31082" stroke="white" stroke-width="1.15333" stroke-linecap="round"/>
<path d="M1.37439 8.09666C1.37439 4.83461 1.37439 3.20359 2.38778 2.19021C3.40116 1.17682 5.03218 1.17682 8.29423 1.17682C11.5563 1.17682 13.1873 1.17682 14.2007 2.19021C15.2141 3.20359 15.2141 4.83461 15.2141 8.09666C15.2141 11.3587 15.2141 12.9897 14.2007 14.0031C13.1873 15.0165 11.5563 15.0165 8.29423 15.0165C5.03218 15.0165 3.40116 15.0165 2.38778 14.0031C1.37439 12.9897 1.37439 11.3587 1.37439 8.09666Z" stroke="white" stroke-width="1.15333"/>
</g>
<defs>
<clipPath id="clip0_130_1490">
<rect width="15.3777" height="15.3777" fill="white" transform="translate(0.604858 0.408264)"/>
</clipPath>
</defs>
</svg>
