<svg width="32" height="31" viewBox="0 0 32 31" fill="none" xmlns="http://www.w3.org/2000/svg">
<path d="M0.938965 15.544C0.938965 7.05109 7.8238 0.16626 16.3167 0.16626V0.16626C24.8095 0.16626 31.6944 7.05109 31.6944 15.544V15.544C31.6944 24.0368 24.8095 30.9217 16.3167 30.9217V30.9217C7.8238 30.9217 0.938965 24.0368 0.938965 15.544V15.544Z" fill="white" fill-opacity="0.04"/>
<path d="M21.2099 16.0877C21.2099 16.0877 21.9262 11.3672 21.2098 10.6508C20.4935 9.93446 15.773 10.6508 15.773 10.6508" stroke="white" stroke-width="1.15333" stroke-linecap="round" stroke-linejoin="round"/>
<path d="M16.8604 20.4371C16.8604 20.4371 12.1399 21.1534 11.4235 20.4371C10.7072 19.7207 11.4235 15.0003 11.4235 15.0003" stroke="white" stroke-width="1.15333" stroke-linecap="round" stroke-linejoin="round"/>
</svg>
