<svg width="77" height="76" viewBox="0 0 77 76" fill="none" xmlns="http://www.w3.org/2000/svg">
<path d="M65.9403 16.9463C67.0664 16.0806 67.2839 14.4592 66.3428 13.3954C61.7517 8.20636 55.7924 4.38534 49.1233 2.38593C41.6308 0.139684 33.6217 0.306288 26.2292 2.86217C18.8366 5.41805 12.4349 10.2338 7.92983 16.628C3.91976 22.3196 1.59311 29.0054 1.1874 35.9221C1.10423 37.34 2.27678 38.4808 3.69707 38.4661L6.01155 38.4421C7.43184 38.4273 8.55972 37.262 8.66733 35.8457C9.07385 30.4952 10.918 25.336 14.0267 20.9236C17.6308 15.8082 22.7522 11.9557 28.6662 9.91095C34.5803 7.86625 40.9875 7.73297 46.9815 9.52996C52.1517 11.08 56.7886 13.9985 60.4129 17.9553C61.3723 19.0027 62.9792 19.2226 64.1052 18.3569L65.9403 16.9463Z" fill="#2156E9" stroke="#161A36" stroke-width="0.857262"/>
<path opacity="0.5" d="M72.2354 30.2607C73.6191 29.9398 74.4892 28.5545 74.0737 27.1963C73.0408 23.8202 71.5336 20.6078 69.5975 17.6556C68.8185 16.4678 67.197 16.2516 66.0658 17.1105L64.2224 18.5102C63.0911 19.3692 62.8809 20.9772 63.6392 22.1782C64.9633 24.2751 66.0208 26.5291 66.7871 28.8877C67.226 30.2386 68.5971 31.1047 69.9807 30.7837L72.2354 30.2607Z" fill="#2156E9" stroke="#161A36" stroke-width="0.857262"/>
<path opacity="0.2" d="M73.1335 38.1061C74.5538 38.1061 75.7145 36.9533 75.6166 35.5363C75.5493 34.5614 75.4436 33.5895 75.2999 32.6229C75.0911 31.2179 73.7098 30.3415 72.3226 30.6466L70.0621 31.1439C68.6749 31.4491 67.8094 32.8206 67.994 34.2289C68.0511 34.664 68.0985 35.1003 68.1363 35.5375C68.2586 36.9526 69.3985 38.1061 70.8189 38.1061H73.1335Z" fill="#2156E9" stroke="#161A36" stroke-width="0.857262"/>
</svg>
