<svg width="13" height="14" viewBox="0 0 13 14" fill="none" xmlns="http://www.w3.org/2000/svg">
<path fill-rule="evenodd" clip-rule="evenodd" d="M6.54383 10.0936C8.24241 10.0936 9.61937 8.71662 9.61937 7.01804C9.61937 5.31947 8.24241 3.9425 6.54383 3.9425C4.84526 3.9425 3.46829 5.31947 3.46829 7.01804C3.46829 8.71662 4.84526 10.0936 6.54383 10.0936Z" fill="white"/>
<path fill-rule="evenodd" clip-rule="evenodd" d="M6.54101 1.6355C6.8241 1.6355 7.0536 1.86499 7.0536 2.14809V2.66068C7.0536 2.94377 6.8241 3.17327 6.54101 3.17327C6.25791 3.17327 6.02842 2.94377 6.02842 2.66068V2.14809C6.02842 1.86499 6.25791 1.6355 6.54101 1.6355Z" fill="white"/>
<path fill-rule="evenodd" clip-rule="evenodd" d="M6.54101 10.8621C6.8241 10.8621 7.0536 11.0916 7.0536 11.3747V11.8856C7.0536 12.1687 6.8241 12.3982 6.54101 12.3982C6.25791 12.3982 6.02842 12.1687 6.02842 11.8856V11.3747C6.02842 11.0916 6.25791 10.8621 6.54101 10.8621Z" fill="white"/>
<path fill-rule="evenodd" clip-rule="evenodd" d="M1.15964 7.01687C1.15964 6.73377 1.38913 6.50428 1.67223 6.50428H2.18482C2.46791 6.50428 2.69741 6.73377 2.69741 7.01687C2.69741 7.29996 2.46791 7.52946 2.18482 7.52946H1.67223C1.38913 7.52946 1.15964 7.29996 1.15964 7.01687Z" fill="white"/>
<path fill-rule="evenodd" clip-rule="evenodd" d="M10.3863 7.01687C10.3863 6.73377 10.6158 6.50428 10.8988 6.50428H11.4098C11.6929 6.50428 11.9224 6.73377 11.9224 7.01687C11.9224 7.29996 11.6929 7.52946 11.4098 7.52946H10.8988C10.6158 7.52946 10.3863 7.29996 10.3863 7.01687Z" fill="white"/>
<path fill-rule="evenodd" clip-rule="evenodd" d="M2.73585 10.8221C2.53567 10.6219 2.53567 10.2973 2.73585 10.0972L3.09831 9.7347C3.29849 9.53452 3.62304 9.53452 3.82322 9.7347C4.0234 9.93488 4.0234 10.2594 3.82322 10.4596L3.46077 10.8221C3.26059 11.0222 2.93603 11.0222 2.73585 10.8221Z" fill="white"/>
<path fill-rule="evenodd" clip-rule="evenodd" d="M9.26006 4.29786C9.05988 4.09768 9.05988 3.77313 9.26006 3.57295L9.62135 3.21166C9.82153 3.01148 10.1461 3.01148 10.3463 3.21166C10.5464 3.41184 10.5464 3.73639 10.3463 3.93657L9.98497 4.29786C9.78479 4.49804 9.46024 4.49804 9.26006 4.29786Z" fill="white"/>
<path fill-rule="evenodd" clip-rule="evenodd" d="M2.73585 3.21166C2.93603 3.01148 3.26059 3.01148 3.46077 3.21166L3.82322 3.57412C4.0234 3.7743 4.0234 4.09885 3.82322 4.29903C3.62304 4.49921 3.29849 4.49921 3.09831 4.29903L2.73585 3.93657C2.53567 3.73639 2.53567 3.41184 2.73585 3.21166Z" fill="white"/>
<path fill-rule="evenodd" clip-rule="evenodd" d="M9.26006 9.73587C9.46024 9.53569 9.78479 9.53569 9.98497 9.73587L10.3463 10.0972C10.5464 10.2973 10.5464 10.6219 10.3463 10.8221C10.1461 11.0222 9.82153 11.0222 9.62135 10.8221L9.26006 10.4608C9.05988 10.2606 9.05988 9.93605 9.26006 9.73587Z" fill="white"/>
</svg>
