<svg width="16" height="16" viewBox="0 0 16 16" fill="none" xmlns="http://www.w3.org/2000/svg">
<g clip-path="url(#clip0_130_1498)">
<path d="M6.1424 2.48158L5.05006 2.9865C3.36784 3.76408 2.52673 4.15287 2.52673 4.79106C2.52673 5.42926 3.36784 5.81804 5.05006 6.59562L6.1424 7.10054C7.20106 7.58989 7.7304 7.83456 8.29337 7.83456C8.85634 7.83456 9.38567 7.58989 10.4443 7.10054L11.5367 6.59562C13.2189 5.81804 14.06 5.42926 14.06 4.79106C14.06 4.15287 13.2189 3.76408 11.5367 2.9865L10.4443 2.48158C9.38567 1.99223 8.85634 1.74756 8.29337 1.74756C7.7304 1.74756 7.20107 1.99223 6.1424 2.48158Z" stroke="#74757C" stroke-width="1.15333" stroke-linecap="round" stroke-linejoin="round"/>
<path d="M13.9242 7.57617C14.0147 7.70352 14.06 7.83625 14.06 7.98222C14.06 8.61133 13.2189 8.99458 11.5367 9.76109L10.4443 10.2588C9.38567 10.7412 8.85634 10.9824 8.29337 10.9824C7.7304 10.9824 7.20106 10.7412 6.1424 10.2588L5.05006 9.76109C3.36784 8.99458 2.52673 8.61133 2.52673 7.98222C2.52673 7.83625 2.57201 7.70352 2.66257 7.57617" stroke="#74757C" stroke-width="1.15333" stroke-linecap="round" stroke-linejoin="round"/>
<path d="M13.6606 10.8887C13.9269 11.1007 14.06 11.3121 14.06 11.5624C14.06 12.1915 13.2189 12.5748 11.5367 13.3413L10.4443 13.839C9.38567 14.3214 8.85634 14.5626 8.29337 14.5626C7.7304 14.5626 7.20106 14.3214 6.1424 13.839L5.05006 13.3413C3.36784 12.5748 2.52673 12.1915 2.52673 11.5624C2.52673 11.3121 2.65987 11.1007 2.92613 10.8887" stroke="#74757C" stroke-width="1.15333" stroke-linecap="round" stroke-linejoin="round"/>
</g>
<defs>
<clipPath id="clip0_130_1498">
<rect width="15.3777" height="15.3777" fill="white" transform="translate(0.604858 0.46582)"/>
</clipPath>
</defs>
</svg>
