<svg width="16" height="16" viewBox="0 0 16 16" fill="none" xmlns="http://www.w3.org/2000/svg">
<path d="M8.2937 9.85388C9.35531 9.85388 10.2159 8.99328 10.2159 7.93167C10.2159 6.87006 9.35531 6.00946 8.2937 6.00946C7.23209 6.00946 6.37149 6.87006 6.37149 7.93167C6.37149 8.99328 7.23209 9.85388 8.2937 9.85388Z" stroke="#74757C" stroke-width="1.15333" stroke-miterlimit="10" stroke-linecap="round" stroke-linejoin="round"/>
<path d="M1.88634 8.4955V7.3678C1.88634 6.70143 2.43096 6.1504 3.10374 6.1504C4.26347 6.1504 4.73762 5.33025 4.15455 4.32429C3.82136 3.74763 4.01999 2.99797 4.60306 2.66478L5.71154 2.03045C6.21772 1.72931 6.87127 1.90871 7.17242 2.4149L7.2429 2.53664C7.81957 3.5426 8.76786 3.5426 9.35093 2.53664L9.42141 2.4149C9.72256 1.90871 10.3761 1.72931 10.8823 2.03045L11.9908 2.66478C12.5738 2.99797 12.7725 3.74763 12.4393 4.32429C11.8562 5.33025 12.3304 6.1504 13.4901 6.1504C14.1565 6.1504 14.7075 6.69502 14.7075 7.3678V8.4955C14.7075 9.16186 14.1629 9.7129 13.4901 9.7129C12.3304 9.7129 11.8562 10.533 12.4393 11.539C12.7725 12.1221 12.5738 12.8653 11.9908 13.1985L10.8823 13.8328C10.3761 14.134 9.72256 13.9546 9.42141 13.4484L9.35093 13.3267C8.77426 12.3207 7.82597 12.3207 7.2429 13.3267L7.17242 13.4484C6.87127 13.9546 6.21772 14.134 5.71154 13.8328L4.60306 13.1985C4.01999 12.8653 3.82136 12.1157 4.15455 11.539C4.73762 10.533 4.26347 9.7129 3.10374 9.7129C2.43096 9.7129 1.88634 9.16186 1.88634 8.4955Z" stroke="#74757C" stroke-width="1.15333" stroke-miterlimit="10" stroke-linecap="round" stroke-linejoin="round"/>
</svg>
