<svg width="14" height="14" viewBox="0 0 14 14" fill="none" xmlns="http://www.w3.org/2000/svg">
<path fill-rule="evenodd" clip-rule="evenodd" d="M4.8483 3.95547C3.83938 4.6019 3.17865 5.6911 3.17865 6.92391C3.17865 8.90558 4.88552 10.512 6.99104 10.512C8.30091 10.512 9.45817 9.89018 10.145 8.94061C7.36233 8.65431 5.1525 6.57446 4.8483 3.95547ZM10.8034 7.9491C11.2751 7.9491 11.6813 8.34033 11.4946 8.74802C10.7434 10.3887 9.00974 11.5372 6.99104 11.5372C4.28394 11.5372 2.0894 9.47177 2.0894 6.92391C2.0894 5.02396 3.30973 3.39226 5.05293 2.68526C5.4861 2.50958 5.90179 2.89186 5.90179 3.33579C5.90179 5.88365 8.09633 7.9491 10.8034 7.9491Z" fill="white"/>
</svg>
