<svg width="453" height="278" viewBox="0 0 453 278" fill="none" xmlns="http://www.w3.org/2000/svg">
<path d="M282.367 161.568C278.85 163.948 274.252 164.659 270.18 163.452C269.723 163.318 269.226 163.122 269.019 162.691C268.705 162.047 269.205 161.319 269.296 160.608C269.555 158.566 266.648 157.685 265.722 155.849C265.356 155.123 265.327 154.281 265.265 153.471C264.7 146.287 260.958 139.814 257.805 133.334C257.578 132.862 257.346 132.35 257.441 131.832C257.537 131.318 258.128 130.872 258.588 131.127C258.245 132.347 258.995 133.772 260.194 134.181C260.742 132.091 261.039 129.346 259.167 128.271C258.53 127.905 257.767 127.84 257.031 127.804C254.14 127.66 251.233 127.823 248.377 128.288C247.899 128.365 247.377 128.443 246.963 128.197C246.594 127.979 246.405 127.56 246.146 127.218C245.445 126.28 243.575 125.769 242.582 126.588C241.481 127.497 242.321 129.475 240.212 129.75C239.015 129.906 237.868 129.291 236.82 128.695C235.697 128.058 234.55 127.4 233.732 126.404C233.442 126.047 233.186 125.647 232.798 125.403C232.051 124.934 231.091 125.188 230.21 125.179C229.329 125.171 228.254 124.53 228.491 123.682C228.565 123.419 228.757 123.208 228.908 122.978C230.017 121.279 228.549 118.857 226.617 118.243C224.683 117.628 222.595 118.24 220.659 118.85C217.757 119.767 214.853 120.684 211.949 121.598C210.852 121.945 209.704 122.295 208.571 122.089C207.602 121.911 206.585 121.338 205.699 121.769C204.497 122.352 204.691 124.143 203.966 125.266C203.271 126.339 201.792 126.683 201.076 127.743C200.248 128.971 200.74 130.612 200.655 132.09C200.485 134.942 198.141 137.106 196.08 139.085C194.019 141.063 191.927 143.641 192.456 146.449C192.618 147.311 193.025 148.125 193.086 148.998C193.134 149.724 192.942 150.44 192.75 151.138C192.147 153.348 191.544 155.558 190.938 157.767C192.965 161.351 195.208 164.815 197.651 168.13C198.855 169.765 200.133 171.391 201.801 172.547C203.468 173.705 205.596 174.352 207.559 173.83C208.437 173.596 209.258 173.139 210.163 173.045C211.425 172.914 212.664 173.507 213.928 173.452C215.405 173.389 216.688 172.468 217.875 171.587C219.062 170.706 220.352 169.794 221.829 169.75C223.309 169.707 224.901 170.991 224.587 172.434C224.517 172.75 224.365 173.063 224.41 173.384C224.506 174.071 225.396 174.308 226.081 174.215C226.768 174.121 227.501 173.868 228.123 174.172C228.971 174.589 229.066 175.783 228.786 176.685C228.406 177.909 227.586 178.94 227.043 180.099C226.499 181.26 226.275 182.73 227.047 183.75C227.447 184.279 228.055 184.605 228.551 185.045C229.377 185.775 229.87 186.806 230.27 187.833C231.989 192.229 232.369 197.129 231.414 201.747C230.99 203.786 229.693 205.45 229.284 207.334C228.824 209.46 230.519 211.835 231.512 213.565C233.028 216.2 233.925 219.191 234.116 222.223C234.19 223.433 234.169 224.699 234.722 225.776C235.139 226.583 235.838 227.2 236.415 227.902C238.622 230.595 238.9 234.332 239.082 237.811C239.546 238.431 240.506 238.424 241.208 238.095C241.909 237.765 242.474 237.198 243.157 236.832C244.868 235.912 246.96 236.391 248.89 236.173C252.212 235.797 255.128 233.054 255.703 229.76C255.863 228.845 255.865 227.886 256.26 227.048C256.852 225.784 258.274 224.927 258.465 223.543C258.539 222.995 258.402 222.425 258.522 221.884C258.9 220.177 261.511 219.641 261.737 217.906C261.847 217.073 261.337 216.304 261.014 215.528C260.054 213.226 260.863 210.317 262.871 208.84C263.623 208.286 264.502 207.928 265.268 207.397C268.959 204.835 268.878 199.279 267.321 195.063C266.713 193.418 265.933 191.758 266.045 190.007C266.119 188.854 266.581 187.759 267.119 186.738C268.472 184.166 270.346 181.871 272.594 180.033C274.06 178.836 275.743 177.759 276.578 176.061C277.091 175.025 277.234 173.845 277.634 172.76C278.361 170.783 279.884 169.227 281.072 167.489C282.261 165.753 283.142 163.526 282.367 161.568ZM260.84 204.376C260.739 205.098 259.926 205.776 259.301 205.4C259.277 203.468 258.863 201.565 258.449 199.676C258.25 198.771 258.051 197.866 257.852 196.964C257.761 196.543 257.632 196.073 257.256 195.87C256.986 195.723 256.641 195.748 256.394 195.568C256.023 195.298 256.05 194.716 255.741 194.373C255.338 193.928 254.584 194.086 254.075 193.767C253.57 193.451 253.45 192.781 253.38 192.188L252.612 185.645C252.584 185.394 252.557 185.119 252.691 184.901C252.84 184.659 253.137 184.565 253.403 184.465C254.545 184.032 255.512 183.149 256.041 182.048C256.266 181.578 256.419 181.072 256.725 180.652C257.838 179.144 259.329 179.594 259.457 181.073C259.634 183.129 258.818 182.869 257.667 183.592C256.783 184.145 255.263 185.076 254.655 185.998C253.738 187.389 254.552 187.779 255.184 189.131C255.769 190.385 255.211 192.073 256.13 193.11C256.723 193.782 257.722 193.902 258.481 194.383C259.666 195.134 260.104 196.655 260.183 198.053C260.262 199.453 260.08 200.883 260.432 202.24C260.614 202.949 260.941 203.653 260.84 204.376Z" fill="white" fill-opacity="0.2"/>
<path d="M272.331 207.358C271.579 208.735 273.116 210.332 272.992 211.896C272.864 213.499 271.069 214.506 270.703 216.071C270.552 216.715 270.662 217.391 270.811 218.036C271.097 219.272 271.528 220.474 272.092 221.61C272.273 221.976 272.474 222.342 272.772 222.621C273.692 223.482 275.28 223.192 276.174 222.305C277.067 221.418 277.411 220.123 277.599 218.878C277.786 217.633 277.86 216.347 278.357 215.188C279.078 213.504 280.679 212.083 280.588 210.253C280.542 209.339 280.064 208.508 279.853 207.617C279.642 206.726 279.821 205.595 280.655 205.22C280.746 205.804 280.837 206.388 280.927 206.973C283.297 206.232 280.39 198.397 277.815 202.361C276.766 203.976 277.804 205.063 275.722 205.897C274.6 206.347 273.008 206.119 272.331 207.358Z" fill="white" fill-opacity="0.2"/>
<path d="M452.672 67.6919C452.61 67.4269 452.399 67.2162 452.188 67.0288C450.76 65.7179 449.168 64.5854 447.459 63.6804C448.536 63.5867 449.652 63.485 450.612 62.9701C451.573 62.4631 452.346 61.4324 452.205 60.3552C451.963 58.5133 449.355 57.4441 449.621 55.6093C449.746 54.782 450.464 53.9467 450.073 53.2051C449.8 52.6982 449.144 52.5652 448.567 52.4867C445.554 52.0806 442.541 51.6745 439.52 51.2765C439.653 52.4242 439.333 53.7039 438.404 54.3991C437.467 55.0863 435.891 54.8596 435.445 53.7905C435.297 53.4157 435.281 52.9784 435.024 52.6589C434.485 51.9717 433.401 52.3697 432.574 52.6901C430.802 53.3773 428.772 53.3773 427 52.6821C426.657 52.542 426.282 52.3546 426.142 52.011C425.931 51.5041 426.282 50.9499 426.313 50.4028C426.36 49.4667 425.392 48.7402 424.455 48.6545C423.526 48.5769 422.62 48.9508 421.723 49.24C419.124 50.0833 416.041 50.1922 413.902 48.4903C413.27 47.9906 412.747 47.3507 412.068 46.9214C411.108 46.3128 409.93 46.1879 408.797 46.071C405.885 45.7747 402.982 45.4775 400.07 45.1812C399.789 45.15 399.47 45.1348 399.235 45.2981C398.86 45.5712 398.923 46.1415 398.798 46.5859C398.564 47.4524 397.58 47.9049 396.69 47.9674C395.792 48.0299 394.887 47.8192 393.997 47.921C393.333 47.9915 392.686 48.2414 392.022 48.2021C391.35 48.1628 390.624 47.6943 390.64 47.0312C389.805 47.5542 389.251 48.5064 389.219 49.4979C387.525 49.6853 385.394 48.4752 385.761 46.8045C385.863 46.3753 386.112 45.9924 386.151 45.556C386.378 42.8395 379.665 42.2389 378.15 43.4097C377.736 43.7301 377.417 44.1594 377.027 44.5021C375.379 45.938 372.429 45.3686 371.43 43.4169C369.057 43.1206 366.645 43.1357 364.265 43.4481C363.297 41.8087 360.784 42.5815 359.176 43.6043C357.567 44.627 355.226 45.6337 354 44.1745C358.059 43.2536 361.907 41.4116 365.178 38.8351C365.506 38.5772 365.865 38.2265 365.787 37.8044C365.74 37.5152 365.49 37.3126 365.248 37.1413C363.741 36.0954 361.891 35.5411 360.057 35.5876C358.715 35.6188 357.122 35.8606 356.272 34.8308C355.741 34.198 355.686 33.2226 355.038 32.6996C354.422 32.1999 353.54 32.3168 352.759 32.4498C351.034 32.7621 349.301 33.0745 347.576 33.3859C347.311 33.4323 347.014 33.4948 346.826 33.6902C346.584 33.9553 346.599 34.3614 346.576 34.7281C346.428 37.0074 343.563 38.6156 341.534 37.5536C340.902 37.218 340.363 36.687 339.676 36.4764C338.809 36.2185 337.88 36.5157 337.03 36.812C333.447 38.0533 329.872 39.2938 326.297 40.5352C327.258 41.1911 328.514 41.4018 329.638 41.1046C329.973 41.7061 329.099 42.2362 328.428 42.3772C325.696 42.9474 322.971 43.5168 320.24 44.079C321.801 45.2651 323.315 46.5225 324.767 47.8415C325.469 47.3498 326.133 48.6296 325.867 49.4497C325.609 50.269 325.118 51.2837 325.742 51.8691C324.907 51.588 324.189 50.9713 323.784 50.1753C324.221 49.8549 324.642 49.5274 325.079 49.1998C324.127 49.3953 323.081 48.7706 322.792 47.8415C321.051 47.506 319.388 46.7563 317.992 45.664C317.711 46.3199 318.093 47.1785 318.773 47.4203C318.133 47.506 317.485 47.5845 316.845 47.6622C317.055 48.6617 317.953 49.4729 318.968 49.5898C317.688 49.9173 316.259 49.613 315.213 48.8018C316.166 47.3659 314.768 45.0866 313.051 45.2892C314.035 45.4222 314.199 46.8349 313.77 47.7246C313.332 48.6224 312.567 49.4265 312.584 50.418C312.599 51.6362 313.731 53.0953 312.786 53.8681C313.934 54.8284 316.072 53.0801 317.032 54.2198C317.329 54.5785 317.36 55.0702 317.485 55.5156C317.86 56.8506 319.327 57.7788 320.693 57.545C319.905 58.7935 318.031 57.561 317.172 56.3589C316.322 55.1568 314.401 53.9627 313.66 55.2344C313.418 55.6557 313.464 56.1635 313.464 56.6391C313.417 60.1125 309.343 62.8683 306.104 61.6118C307.337 60.0893 310.233 60.6908 311.177 58.9809C311.559 58.2785 311.458 57.42 311.341 56.6311C310.958 54.0555 310.584 51.4791 310.202 48.9035C310.428 47.7175 310.514 46.4993 310.46 45.2972C309.101 45.7738 306.916 45.7113 306.963 44.2745C305.808 46.187 304.652 48.0914 303.498 50.0039C302.795 51.1516 302.264 52.9623 303.466 53.5629C304.27 53.2354 305.208 53.9136 305.433 54.757C305.667 55.5923 305.371 56.4821 304.988 57.263C303.255 52.4706 294.489 54.6794 292.21 50.1208C291.164 50.5269 292.116 52.135 293.17 52.517C294.232 52.8998 295.683 53.5781 295.294 54.6321C294.997 55.4593 293.858 55.4593 292.983 55.3969C290.454 55.2175 287.87 55.8029 285.653 57.0515C285.458 56.1617 285.255 55.28 285.06 54.3973C283.218 55.7012 281.368 57.0041 279.526 58.316C278.628 58.9479 277.676 59.6038 276.583 59.7207C275.49 59.8296 274.233 59.1745 274.093 58.0893C273.953 56.9961 275.537 56.0439 276.239 56.8872C276.544 54.8891 273.812 53.2184 272.172 54.4054C273.258 56.2474 273.289 58.6667 272.235 60.5328C271.845 61.2271 271.243 61.8831 270.462 62.008C269.674 62.1249 268.769 61.4458 268.933 60.6658C267.933 61.5475 267.372 62.8978 267.442 64.2248C265.818 64.7558 263.883 64.1231 262.875 62.7336C263 63.5064 263.125 64.2712 263.25 65.0441C262.079 66.3006 259.519 65.3957 259.402 63.6777C259.37 63.1708 259.503 62.6711 259.503 62.1633C259.503 60.4302 257.974 59.1424 256.584 58.1045C258.661 58.8925 260.753 59.6814 262.829 60.4695C263.999 60.9139 265.248 61.3673 266.474 61.1325C268.27 60.789 269.425 58.3776 267.832 57.1282C264.968 54.8882 261.666 53.2015 258.169 52.1948C257.163 51.9057 256.085 51.6719 255.094 51.9922C254.282 52.2502 253.197 52.7651 252.76 52.0387C253.572 52.1556 254.446 51.8432 255 51.2265C253.306 50.8517 251.589 50.6099 249.856 50.5242C247.858 52.2966 246.5 54.8097 247.077 57.3388C247.967 61.2343 253.025 64.4961 251.175 68.0328C252.916 67.6428 254.734 67.26 256.459 67.6973C257.388 67.9239 258.286 68.4701 258.895 69.2037C258.887 69.1644 258.895 69.1261 258.903 69.0868C259.418 68.9154 259.972 68.7361 260.503 68.8842C261.026 69.0243 261.455 69.641 261.19 70.1256C261.011 70.4611 260.542 70.7422 260.706 71.0858C260.815 71.3045 261.104 71.3357 261.331 71.4062C261.971 71.6017 262.33 72.4289 262.033 73.0295C261.112 72.9751 260.191 72.9278 259.27 72.8894C258.958 73.5605 258.537 74.2004 258.24 74.8724C256.998 77.6747 257.904 80.8901 258.006 83.9502C258.052 85.5191 257.694 87.2674 256.914 88.6257C257.101 88.5864 257.288 88.5481 257.476 88.5168C260.949 87.9234 264.914 88.806 267.045 91.6153C269.168 94.4256 268.458 99.2572 265.195 100.576C263.954 101.076 262.51 101.06 261.378 101.77C260.918 102.051 260.574 102.551 260.418 103.074C262.526 101.88 264.696 100.732 267.077 100.288C266.554 101.412 265.516 102.27 264.321 102.567C264.719 102.825 264.586 103.496 264.188 103.753C263.79 104.011 263.267 103.964 262.806 103.87C262.338 103.777 261.854 103.652 261.394 103.768C260.988 103.87 260.668 104.182 260.512 104.565C260.434 104.737 260.395 104.923 260.395 105.111C260.395 105.244 260.418 105.361 260.457 105.486C261.668 104.471 263.603 104.44 264.837 105.431C265.313 105.813 265.687 106.313 266.195 106.656C266.757 107.031 267.491 107.203 267.92 107.734C268.341 108.273 268.045 109.35 267.382 109.209C267.359 109.544 267.709 109.786 268.038 109.849C268.365 109.911 268.725 109.888 269.021 110.036C269.708 110.395 269.583 111.503 268.982 111.988C268.381 112.471 267.546 112.511 266.773 112.519C264.744 112.55 262.644 112.565 260.787 111.738C259.912 111.355 259.124 110.786 258.218 110.465C257.321 110.145 256.228 110.114 255.494 110.73C255.15 111.019 254.924 111.425 254.596 111.737C253.808 112.494 252.473 112.596 251.583 111.964C250.849 111.433 250.49 110.449 250.662 109.559C249.82 110.41 249.101 111.393 248.585 112.463C249.031 113.728 249.475 115.008 249.92 116.272C250.069 116.686 250.21 117.092 250.358 117.498C250.787 118.739 251.489 120.191 252.793 120.277C254.448 120.386 256.102 118.138 257.414 120.168C257.664 120.558 257.742 121.026 257.742 121.495C257.734 122.416 258.998 123.572 259.677 122.853C259.6 122.19 259.529 121.48 259.834 120.878C260.138 120.285 260.973 119.918 261.504 120.332C261.863 120.613 261.934 121.12 261.957 121.565C261.988 122.228 261.957 122.9 261.871 123.555C261.668 125.124 261.044 126.756 259.717 127.599C258.679 128.255 257.196 128.724 258.038 130.112C258.233 130.416 259.022 130.066 259.24 130.362C259.732 131.049 259.388 131.775 259.459 132.587C259.592 134.312 261.551 135.179 262.62 136.537C264.103 138.41 263.791 141.095 264.524 143.375C266.015 148.035 271.885 151.025 271.557 155.903C271.424 157.799 270.495 160.18 272.056 161.273C273.102 161.999 274.531 161.484 275.686 160.946C277.848 159.946 280.018 158.94 282.188 157.933C283.07 157.527 284.007 157.066 284.459 156.2C284.693 155.747 284.772 155.216 285.099 154.826C285.583 154.256 286.418 154.178 287.129 153.945C288.729 153.406 289.798 151.899 290.602 150.409C291.469 148.793 292.148 147.076 292.631 145.304C292.756 144.836 292.873 144.344 292.756 143.868C292.335 142.143 289.314 141.979 289.158 140.207C289.096 139.466 289.611 138.81 289.852 138.107C290.094 137.405 289.829 136.367 289.088 136.374C288.642 137.685 288.159 139.052 287.167 140.012C286.168 140.98 284.482 141.385 283.389 140.535C282.577 139.91 282.312 138.826 281.758 137.966C280.915 136.639 279.385 135.835 278.651 134.446C277.918 133.056 278.995 130.715 280.447 131.316C281.157 133.947 282.96 136.257 285.349 137.584C286.824 137.084 288.245 136.413 289.572 135.585C290.235 135.054 291.11 136.046 291.18 136.889C291.251 137.74 291.118 138.771 291.805 139.262C292.157 139.52 292.624 139.535 293.062 139.535C296.637 139.535 300.204 139.121 303.677 138.302C302.967 140.379 304.879 142.876 307.073 142.72C306.808 143.571 305.956 144.204 305.067 144.212C305.496 145.047 305.948 145.921 306.713 146.483C307.478 147.037 308.642 147.162 309.313 146.499C309.945 145.882 310.031 144.735 310.85 144.391C311.803 143.993 312.747 145.187 312.669 146.218C312.592 147.249 311.944 148.13 311.6 149.106C310.906 151.096 311.554 153.282 312.194 155.288C313.435 159.159 314.723 163.132 317.259 166.317C318.172 165.459 319.086 164.608 319.999 163.749C321.232 163.959 321.271 165.732 320.88 166.91C320.482 168.104 320.116 169.704 321.185 170.352C322.145 170.929 323.433 170.001 323.643 168.908C323.854 167.808 323.354 166.722 322.871 165.716C322.239 164.428 321.614 163.132 320.989 161.836C320.771 161.391 320.544 160.915 320.583 160.416C320.614 159.986 320.825 159.603 321.004 159.213C321.567 157.957 321.746 156.52 321.496 155.163C324.845 153.461 327.647 150.698 329.372 147.357C329.637 146.857 329.887 146.327 330.347 145.99C331.721 144.991 334.031 146.396 335.249 145.202C336.943 145.834 338.372 147.13 339.176 148.754C339.762 149.94 340.308 151.517 341.627 151.619C339.605 152.446 338.231 154.648 338.387 156.825C340.425 157.34 342.673 155.413 342.469 153.328C343.265 152.875 344.319 153.43 344.741 154.241C345.162 155.053 345.115 156.02 345.061 156.926C344.905 159.681 344.741 162.429 344.584 165.177C344.538 165.996 344.507 166.879 344.959 167.558C345.388 168.198 346.201 168.557 346.497 169.275C346.942 170.329 346.051 171.656 346.63 172.646C346.942 173.169 347.559 173.403 348.034 173.77C349.049 174.551 349.393 175.916 350.126 176.97C350.86 178.024 352.554 178.71 353.35 177.704C351.656 176.377 350.571 174.3 350.462 172.147C350.439 171.655 350.454 171.14 350.251 170.695C350.001 170.132 349.463 169.766 349.01 169.352C346.356 166.925 346.684 162.733 347.222 159.174C348.456 160.977 350.431 162.25 352.585 162.624C351.891 164.053 352.491 165.965 353.873 166.746C353.966 165.348 355.012 164.068 356.363 163.702C356.948 163.537 357.573 163.529 358.127 163.287C359.79 162.569 359.969 160.321 359.883 158.518C359.852 157.808 359.813 157.066 359.431 156.474C358.791 155.498 357.495 155.272 356.48 154.694C354.662 153.664 353.772 151.236 354.505 149.269C355.231 147.31 357.487 146.046 359.54 146.459C360.219 146.755 359.915 147.832 359.321 148.278C358.728 148.722 357.916 148.988 357.643 149.682C357.253 150.635 358.408 151.697 359.416 151.478C360.422 151.267 361.07 150.198 361.141 149.167C361.203 148.137 360.828 147.138 360.454 146.17C362.623 146.645 365.012 145.881 366.503 144.242C366.925 143.782 367.299 143.243 367.838 142.931C368.892 142.314 370.399 142.65 371.265 141.783C371.928 141.12 371.882 140.058 372.085 139.145C372.467 137.444 373.778 136.141 374.559 134.587C375.324 133.033 376.089 130.645 375.676 128.928C375.379 127.679 374.732 126.547 374.286 125.345C373.966 124.494 373.747 123.612 373.63 122.707C373.584 122.34 373.553 121.934 373.724 121.606C374.028 121.021 374.778 120.881 375.339 120.537C376.175 120.022 376.612 118.937 376.362 117.993C374.044 118.766 371.328 118.18 369.54 116.51C370.055 115.51 371.203 115.043 372.194 114.512C373.194 113.989 374.232 113.13 374.185 111.998C374.816 111.998 375.441 111.998 376.066 111.99C376.112 113.02 375.628 114.059 374.817 114.691C375.676 115.433 376.964 114.73 377.978 114.199C378.985 113.668 380.672 113.668 380.797 114.8C380.913 115.885 379.267 116.619 379.493 117.688C380.648 117.298 381.881 118.835 381.257 119.881C381.086 120.162 380.812 120.436 380.859 120.763C380.913 121.161 381.382 121.317 381.733 121.513C382.708 122.028 383.13 123.371 382.63 124.354C383.31 123.823 383.989 123.3 384.668 122.77C384.824 123.395 385.526 123.816 386.159 123.675C386.784 123.527 387.221 122.825 387.08 122.2C386.947 121.583 386.378 121.154 386.19 120.56C385.909 119.663 386.549 118.664 386.238 117.773C385.996 117.079 385.254 116.712 384.653 116.275C384.052 115.838 383.513 115.05 383.872 114.402C384.09 114.004 384.559 113.84 384.941 113.606C386.853 112.42 387.26 109.039 389.508 108.962C389.96 108.945 390.405 109.086 390.85 109.024C392.13 108.845 392.575 107.291 393.176 106.143C394.503 103.591 397.595 102.35 398.991 99.8284C400.061 97.8927 399.936 95.5278 400.568 93.3966C401.029 91.8509 401.903 90.2428 401.364 88.7212C400.693 86.8248 397.625 86.4499 396.517 88.1357C396.696 87.1835 396.875 86.2313 397.063 85.271C396.392 87.4334 391.935 85.4817 395.814 83.3666C398.406 81.9619 400.725 80.0334 402.59 77.7541C403.222 76.9812 403.823 76.1459 404.65 75.5837C407.702 73.5231 411.901 76.0754 415.476 75.1776C415.601 75.5292 415.718 75.88 415.843 76.2316C414.883 76.6296 413.931 77.0357 412.979 77.4337C414.993 78.3779 417.162 76.1379 419.387 76.2316C420.035 76.2548 420.972 76.2628 421.01 75.623C420.409 75.5293 419.637 75.2017 419.746 74.6083C419.785 74.3896 419.941 74.2183 420.097 74.0621C420.675 73.4454 421.26 72.8368 421.846 72.2201C422.821 71.1894 424.398 70.097 425.515 70.9868C426.358 71.6659 425.967 73.2973 424.906 73.524C425.601 74.2192 426.779 73.5864 427.474 72.8841C428.169 72.1889 429.066 71.3464 429.987 71.7052C430.245 71.1903 430.245 70.5575 430.003 70.0426C430.745 69.6285 431.658 69.5357 432.462 69.7847C431.97 70.1988 431.635 70.7994 431.533 71.4392C431.463 71.8533 431.494 72.2746 431.369 72.6726C430.924 74.1558 428.941 74.3271 427.544 75.0063C425.077 76.2004 424.219 79.3623 422.002 80.9624C421.456 81.3604 420.839 81.6576 420.386 82.1565C419.41 83.2336 419.535 84.9114 419.988 86.2938C420.456 87.6753 421.198 89.0023 421.284 90.4543C421.3 90.7274 421.292 91.0004 421.268 91.2664C421.167 92.2347 422.354 92.7728 423.033 92.0856C423.197 91.9143 423.36 91.7501 423.524 91.5859C424.312 90.7738 425.133 89.9393 425.531 88.8774C425.804 88.1277 425.929 87.2148 426.623 86.8248C427.131 86.5356 427.763 86.6606 428.34 86.5597C428.917 86.466 429.534 85.8806 429.246 85.3656C428.302 84.6945 428.465 83.0007 429.511 82.509C429.948 82.7115 430.385 82.9231 430.822 83.1337C431.86 82.6571 430.291 80.9561 430.861 79.9646C431.08 79.5818 431.603 79.348 431.587 78.9107C431.571 78.3645 430.799 78.2708 430.26 78.3565C429.901 76.585 431.126 74.6413 432.874 74.204C432.843 74.5708 432.812 74.9456 432.781 75.3124C433.647 74.7662 434.514 74.2192 435.38 73.665C435.537 74.0862 435.685 74.5083 435.833 74.9376C436.871 75.4757 437.683 73.1108 438.76 73.5481C438.994 73.6498 439.15 73.8604 439.345 74.0166C440.118 74.6484 441.508 74.1647 441.718 73.1893C442.523 69.4893 447.019 69.3179 450.788 69.0056C451.665 68.9333 452.875 68.5504 452.672 67.6919ZM286.225 112.863C285.593 113.434 284.679 113.589 283.836 113.457C283.634 113.628 283.782 113.98 284.008 114.12C284.234 114.26 284.516 114.299 284.71 114.487C285.062 114.822 284.921 115.4 284.975 115.876C285.077 116.657 285.74 117.25 285.919 118.007C286.24 119.374 284.764 120.63 283.359 120.637C280.424 120.66 278.363 118.28 277.606 115.72C277.169 114.26 276.334 110.288 278.582 110.061C277.903 109.171 278.613 108.188 278.192 107.236C277.958 106.721 277.38 106.471 276.99 106.057C276.209 105.229 276.327 103.832 276.99 102.903C277.653 101.974 278.715 101.428 279.776 101.014C280.814 100.607 281.985 100.295 283.007 100.717C284.038 101.138 284.654 102.598 283.889 103.403C283.062 104.269 281.368 103.769 280.611 104.706C280.135 105.284 280.299 106.198 280.775 106.775C281.259 107.352 281.978 107.673 282.672 107.946C283.062 108.102 283.484 108.282 283.64 108.664C283.882 109.235 283.39 109.812 283.078 110.342C282.774 110.881 282.836 111.817 283.453 111.817C284.053 111.809 284.148 110.959 284.483 110.459C284.952 109.757 286.161 109.866 286.63 110.576C287.091 111.279 286.849 112.301 286.225 112.863ZM359.496 85.5673C359.363 85.8252 359.2 86.0823 359.113 86.3634C359.019 86.6757 359.019 87.0113 358.942 87.3236C358.708 88.2598 357.841 88.8693 357.061 89.4387C356.514 89.8287 355.975 90.266 355.648 90.8514C355.515 91.0933 355.421 91.3583 355.273 91.6011C354.5 92.9049 352.182 93.17 353.642 91.3512C354.539 90.2196 355.882 88.557 356.998 87.5735C357.38 87.238 357.849 86.9568 358.106 86.5195C358.528 85.8011 358.294 84.9034 358.325 84.0761C358.348 83.2488 358.981 82.2573 359.777 82.492C360.074 83.4987 359.973 84.6222 359.496 85.5673ZM259.685 71.1581C259.693 71.2438 259.693 71.3295 259.685 71.4232C259.662 71.7436 259.592 72.0479 259.49 72.3442C259.615 72.3522 259.732 72.3522 259.826 72.3442C260.014 71.9461 259.897 71.5561 259.685 71.1581ZM253.589 90.9612C255.072 90.8523 256.181 89.9153 256.914 88.6275C255.51 88.9621 254.128 89.6493 253.589 90.9612Z" fill="white" fill-opacity="0.2"/>
<path d="M265.196 100.578C263.955 101.078 262.511 101.062 261.379 101.772C260.919 102.053 260.575 102.553 260.419 103.076C260.232 103.178 260.044 103.287 259.857 103.388C256.563 105.262 257.796 101.14 254.713 101.164C251.708 101.187 252.575 106.222 251.232 105.777C250.888 106.541 251.45 107.455 251.208 108.258C251.123 108.54 250.95 108.781 250.825 109.046C250.748 109.211 250.692 109.382 250.661 109.561C249.819 110.412 249.1 111.395 248.585 112.465C248.545 112.348 248.507 112.239 248.468 112.122C247.734 111.396 246.391 112.168 246.157 113.168C245.922 114.166 246.36 115.189 246.657 116.172C246.953 117.156 247.055 118.358 246.321 119.084C245.938 119.466 245.315 119.731 245.869 120.606C246.064 120.926 246.454 121.051 246.829 120.996C247.625 120.879 248.304 122.354 247.524 122.401C246.088 122.572 245.034 121.066 244.582 119.684C244.137 118.311 243.824 116.711 242.615 115.914C242.022 115.524 241.218 115.336 240.929 114.688C240.446 113.603 241.85 112.331 241.335 111.261C240.828 110.215 239.127 110.598 238.244 109.825C237.502 109.162 237.604 107.89 236.886 107.211C236.519 106.859 236.011 106.727 235.543 106.548C234.06 105.977 232.835 104.791 232.218 103.331C231.368 103.487 231.493 104.752 231.899 105.517C233.46 108.436 235.942 110.856 238.9 112.347C237.94 112.83 237.464 113.924 237.073 114.93C236.472 116.429 235.879 117.935 235.286 119.441C234.38 119.333 233.436 119.2 232.71 118.653C231.984 118.107 231.594 116.991 232.133 116.265C233.124 117.226 235.045 116.882 235.637 115.641C236.231 114.384 235.294 112.682 233.92 112.526C234.498 110.887 232.656 109.451 231.032 108.834C229.409 108.217 227.418 107.436 227.223 105.711C226.482 105.048 225.288 105.384 224.484 105.961C223.679 106.547 223.008 107.351 222.064 107.671C221.128 107.992 219.793 107.453 219.847 106.461C219.364 106.882 218.879 107.296 218.395 107.718C219.496 108.03 218.872 109.794 217.857 110.317C216.843 110.832 215.461 111.161 215.211 112.276C215.109 112.721 215.242 113.189 215.234 113.658C215.226 114.36 214.899 115.024 214.578 115.656C213.782 117.209 212.76 118.942 211.043 119.262C210.036 119.449 208.498 119.558 208.638 120.566C207.186 119.301 205.157 118.716 203.253 119.02C203.369 118.13 203.486 117.241 203.596 116.358C202.94 116.256 202.277 116.163 201.621 116.069C202.636 114.664 203.003 112.798 202.597 111.112C202.37 110.168 202.097 108.841 203.011 108.506C202.519 108.068 202.16 107.483 201.98 106.843C203.346 106.242 204.938 106.18 206.359 106.656C206.976 106.858 207.561 107.162 208.186 107.35C209.95 107.881 212.073 107.287 213.088 105.758C214.103 104.22 213.682 101.832 212.065 100.949C211.215 100.489 210.184 100.45 209.349 99.9498C208.53 99.4501 208.1 98.0766 208.928 97.5849C209.607 98.6228 211.168 98.9432 212.198 98.264C211.715 97.4368 211.504 96.4613 211.598 95.5091C212.355 95.1968 213.331 95.9152 213.237 96.7344C214.579 96.7657 215.891 95.8447 216.32 94.5721C216.477 94.1348 216.539 93.6511 216.843 93.2923C217.249 92.8166 217.952 92.7461 218.537 92.5275C219.989 91.9813 220.848 90.2089 220.371 88.7418C222.244 87.8752 224.336 87.4853 226.39 87.6022C225.664 86.2599 224.915 84.8312 224.985 83.3015C225.056 81.779 226.296 80.203 227.811 80.3431C228.044 81.2329 228.029 82.1851 227.779 83.0749C228.225 83.1766 228.661 83.2703 229.106 83.3711C228.146 84.1672 227.171 85.7049 228.169 86.4545C228.965 87.048 230.105 86.2831 231.081 86.4857C231.527 86.5794 231.909 86.8757 232.346 86.9775C234.321 87.4692 236.233 84.2216 237.903 85.3854C238.465 85.7753 238.691 86.5714 239.651 86.4545C240.182 86.384 240.643 86.0484 240.9 85.5799C241.454 84.6196 241.275 83.5113 241.384 82.4502C241.477 81.5292 241.923 80.5064 242.819 80.2646C243.803 79.9995 244.747 80.8108 245.762 80.9205C247.471 81.116 248.814 78.7662 247.776 77.3927C246.48 78.3842 244.818 78.876 243.186 78.743C242.703 77.8996 243.709 76.9867 244.591 76.5887C247.627 75.2384 251.07 74.8243 254.34 75.4178C254.925 74.8716 254.082 74.0131 253.364 73.6695C252.646 73.334 251.85 72.413 252.467 71.9132C250.312 71.0467 248.423 74.0675 246.097 74.1764C243.716 74.2933 242.335 71.1091 243.217 68.8923C244.107 66.6836 246.316 65.3333 248.385 64.1464C247.018 62.0001 243.444 61.8278 241.882 63.834C242.078 65.4734 241.414 67.1904 240.165 68.2676C238.878 69.376 236.778 70.3907 237.215 72.0373C237.598 73.4812 239.9 74.1764 239.588 75.6436C239.307 76.9938 237.098 77.0099 236.575 78.2816C236.2 79.2106 236.927 80.3503 236.481 81.248C236.029 82.1539 234.741 82.1851 233.929 82.7937C233.375 83.2078 233.062 83.8629 232.556 84.3314C232.041 84.7919 231.112 84.9713 230.737 84.3858C230.37 83.8084 230.854 83.0981 231.119 82.4653C231.931 80.6001 230.76 78.5235 229.628 76.8296C227.333 76.6422 226.146 80.9821 224.015 80.1004C223.414 79.8505 223.063 79.2419 222.758 78.6645C221.915 77.1036 221.065 75.5106 220.744 73.7623C220.432 72.0141 220.736 70.0623 221.962 68.7826C223.593 67.0807 226.333 66.9798 228.143 65.4806C230.173 63.8028 230.665 60.6882 232.842 59.213C234.146 58.3313 236.144 57.8547 236.3 56.2858C234.864 56.4027 233.428 56.5196 231.992 56.6374C232.648 55.4353 234.2 54.8106 235.496 55.2247C234.957 54.0699 236.292 52.8285 237.565 52.6492C238.837 52.4778 240.172 52.8446 241.398 52.4778C242.397 52.1735 243.193 51.4319 244.153 51.0178C244.98 50.659 245.901 50.5734 246.807 50.5261C247.822 50.4788 248.844 50.4788 249.859 50.5261C247.861 52.2984 246.503 54.8115 247.08 57.3407C247.97 61.2362 253.028 64.498 251.178 68.0347C252.919 67.6447 254.737 67.2618 256.462 67.6991C257.391 67.9258 258.289 68.472 258.898 69.2056C258.812 69.8847 259.366 70.5246 259.686 71.1573C259.694 71.243 259.694 71.3287 259.686 71.4224C259.662 71.7427 259.592 72.0471 259.49 72.3434C257.992 72.2889 254.471 71.5625 256.157 74.0211C256.906 73.1314 257.257 73.7007 258.124 73.607C258.483 73.5678 258.819 73.193 258.686 72.8574C258.881 72.8654 259.076 72.8735 259.271 72.8886C258.959 73.5597 258.538 74.1996 258.241 74.8716C256.999 77.6739 257.905 80.8893 258.007 83.9494C258.053 85.5183 257.694 87.2666 256.915 88.6249C257.102 88.5856 257.289 88.5472 257.477 88.516C260.95 87.9225 264.915 88.8052 267.046 91.6145C269.169 94.4275 268.459 99.2591 265.196 100.578Z" fill="white" fill-opacity="0.2"/>
<path d="M200.322 87.1679C200.317 88.0326 201.15 88.8144 200.92 89.6479C200.692 90.4716 199.526 90.8456 199.476 91.6987C199.42 92.6518 200.747 92.9963 201.683 92.8054C203.413 92.4537 204.988 91.4007 205.976 89.938C206.459 89.2222 206.648 87.9942 205.833 87.7096C206.949 87.3178 208.065 86.9251 209.181 86.5333C210.058 87.2803 211 88.5395 210.277 89.4364C209.81 90.0147 208.713 90.4145 209.044 91.0803C209.179 91.3516 209.537 91.4872 209.601 91.7844C209.668 92.0977 209.37 92.3538 209.124 92.5599C208.068 93.447 207.446 94.8294 207.484 96.2091C209.071 94.7437 211.253 93.9441 213.411 94.0369C213.916 94.0583 214.48 94.1092 214.866 93.7835C215.253 93.4577 215.081 92.6179 214.583 92.6991C215.187 92.2654 215.792 91.8317 216.396 91.3971C216.532 91.2989 216.674 91.1936 216.741 91.0401C216.897 90.6787 216.546 90.2851 216.174 90.1584C215.801 90.0317 215.385 90.0504 215.029 89.8835C214.24 89.5141 214.108 88.4833 213.836 87.6569C213.565 86.8305 212.596 85.9925 211.927 86.5503C212.095 85.756 212.258 84.9038 211.945 84.155C211.632 83.4062 210.632 82.8967 209.979 83.3795C209.602 82.8199 210.476 82.3023 210.935 81.807C211.435 81.268 211.425 80.3309 210.905 79.8115C210.383 79.293 209.433 79.2939 208.924 79.824C208.994 78.2944 209.318 76.4114 210.776 75.9455C211.177 75.817 211.613 75.825 212.011 75.6894C212.409 75.5529 212.789 75.1887 212.724 74.7729C212.794 75.2601 213.58 75.2851 213.872 74.8898C214.164 74.4944 214.102 73.9492 214.028 73.4637C212.892 73.1379 212.402 75.0513 211.277 75.4127C210.759 75.5787 210.167 75.3815 209.666 75.5912C208.478 76.0883 208.798 78.2989 207.556 78.6433C207.263 78.7246 206.939 78.6692 206.658 78.7897C206.093 79.0324 206.031 79.8133 206.168 80.413C206.306 81.0128 206.549 81.658 206.289 82.2158C206.146 82.5219 205.853 82.8262 205.972 83.1421C206.128 83.5598 206.742 83.4473 207.164 83.5954C208.222 83.9712 207.645 85.2161 207.096 85.707C206.409 86.3209 205.25 86.1603 204.441 86.0479C203.224 85.8756 200.337 84.8136 200.322 87.1679Z" fill="white" fill-opacity="0.2"/>
<path d="M226.864 111.998C226.72 111.878 226.575 111.759 226.432 111.639C226.88 111.532 227.179 111.067 227.205 110.607C227.231 110.147 227.034 109.7 226.776 109.319C226.467 108.86 225.93 108.43 225.407 108.61C224.742 108.84 224.732 109.783 224.955 110.45C225.178 111.116 225.493 111.895 225.088 112.47C225.336 112.411 225.613 112.491 225.792 112.673C224.825 113.294 224.597 115.268 226.027 115.383C227.453 115.498 227.733 113.666 226.291 113.333C226.318 113.244 226.879 112.011 226.864 111.998Z" fill="white" fill-opacity="0.2"/>
<path d="M388.675 127.454C388.755 126.684 388.835 125.787 389.485 125.367C389.694 125.901 390.085 126.361 390.578 126.653C391.022 126.397 391.264 125.906 391.523 125.463C391.782 125.021 392.135 124.566 392.641 124.483C393.147 124.4 393.717 124.964 393.451 125.403C394.772 125.925 395.65 123.999 396.877 123.28C397.524 122.902 398.309 122.874 399.035 122.688C399.762 122.502 400.528 122.039 400.631 121.297C400.691 120.863 400.507 120.433 400.493 119.995C400.462 119.059 401.178 118.296 401.639 117.482C402.443 116.062 402.479 114.237 401.734 112.785C401.33 111.997 400.71 111.304 400.51 110.442C400.31 109.58 400.81 108.455 401.694 108.468C401.938 109.22 402.267 110.064 403.006 110.345C403.745 110.626 404.735 109.686 404.2 109.103C405.031 108.875 405.904 108.799 406.761 108.88C407.123 108.346 407.037 107.556 406.568 107.113C409.28 106.167 411.614 104.301 413.404 102.054C410.931 103.59 408.46 105.126 405.988 106.661C405.696 106.843 405.347 107.031 405.025 106.908C404.733 106.796 404.591 106.474 404.443 106.198C403.777 104.948 402.378 104.127 400.963 104.156C401.077 105.337 401.192 106.519 401.308 107.7C400.466 107.547 399.703 108.338 399.507 109.172C399.313 110.006 399.507 110.873 399.578 111.725C399.826 114.723 398.407 117.805 395.969 119.566C395.959 119.082 395.949 118.598 395.94 118.113C394.651 118.302 395.241 120.706 394.081 121.297C393.755 121.463 393.368 121.432 393.004 121.471C391.187 121.662 391.217 123.529 389.253 122.785C389.058 125.17 386.027 124.749 386.246 127.15C386.428 129.179 388.34 130.726 388.675 127.454Z" fill="white" fill-opacity="0.2"/>
<path d="M404.605 89.7231C404.637 89.8954 404.668 90.0721 404.641 90.2461C404.59 90.579 404.334 90.8449 404.24 91.1679C404.077 91.7311 404.44 92.3121 404.863 92.7172C405.286 93.1233 405.797 93.4633 406.067 93.9836C406.518 94.8528 406.197 96.0433 406.845 96.7787C406.642 97.2784 405.885 97.1267 405.446 96.8135C405.007 96.5002 404.467 96.0897 403.994 96.3467C403.436 97.1508 403.745 98.2583 404.186 99.1329C404.627 100.007 405.199 100.9 405.111 101.874C405.07 102.333 404.722 102.863 404.273 102.756C404.101 102.715 403.964 102.588 403.837 102.464C403.234 101.882 402.597 101.235 402.483 100.406C402.401 99.8004 402.613 99.2007 402.765 98.6099C403.077 97.3918 403.138 96.1102 402.941 94.868C402.857 94.3352 402.725 93.8033 402.746 93.2643C402.782 92.2647 403.309 91.1537 402.727 90.3398C402.545 90.0854 402.252 89.8025 402.389 89.5223C402.638 89.0118 403.745 88.0525 404.136 87.6509C404.389 88.2997 404.476 89.0226 404.605 89.7231Z" fill="white" fill-opacity="0.2"/>
<path d="M341.545 174.231C342.362 174.832 343.379 175.263 343.857 176.159C344.225 176.849 344.225 177.749 344.793 178.288C345.097 178.576 345.52 178.712 345.829 178.996C346.551 179.661 346.391 180.828 346.738 181.745C347.231 183.045 348.746 183.817 349.034 185.178C349.133 185.643 349.076 186.146 349.278 186.576C349.664 187.397 350.77 187.571 351.389 188.234C351.693 188.561 351.862 188.99 352.123 189.352C352.861 190.376 354.394 190.722 355.502 190.117C355.108 189.514 354.886 188.8 354.87 188.08C354.86 187.655 354.92 187.225 354.839 186.808C354.643 185.8 353.68 185.091 353.415 184.099C353.866 183.767 354.457 184.254 354.794 184.701C355.131 185.148 355.696 185.651 356.166 185.349C355.308 184.228 354.329 183.2 353.251 182.29C353.336 182.697 352.788 182.998 352.397 182.856C352.006 182.714 351.771 182.324 351.566 181.961C351.413 181.688 351.254 181.394 351.282 181.082C351.307 180.822 351.459 180.589 351.506 180.332C351.603 179.792 351.215 179.279 350.772 178.955C350.329 178.631 349.806 178.411 349.42 178.02C348.651 177.243 348.52 175.892 347.557 175.371C347.098 175.122 346.536 175.124 346.07 174.887C344.62 174.147 344.342 172.002 342.686 171.34C340.334 170.4 339.838 172.973 341.545 174.231Z" fill="white" fill-opacity="0.2"/>
<path d="M356.041 190.463C355.697 190.944 355.352 191.425 355.007 191.907C354.932 192.012 354.854 192.125 354.855 192.253C354.858 192.61 355.369 192.663 355.725 192.614C356.845 192.46 357.995 192.517 359.094 192.781C360.951 193.226 362.718 194.259 364.623 194.139C364.912 194.121 365.203 194.076 365.489 194.12C365.797 194.166 366.082 194.311 366.381 194.401C367.074 194.606 367.854 194.491 368.457 194.094C367.944 193.598 367.142 193.635 366.431 193.582C365.721 193.53 364.876 193.205 364.79 192.497C364.767 192.305 364.806 192.107 364.758 191.92C364.655 191.522 364.198 191.324 363.788 191.299C363.377 191.275 362.961 191.367 362.558 191.29C361.877 191.159 361.356 190.528 360.679 190.435C359.996 190.34 359.694 190.86 359.143 190.886C358.004 190.94 357.105 188.978 356.041 190.463Z" fill="white" fill-opacity="0.2"/>
<path d="M372.163 194.501C372.761 194.514 373.347 194.985 373.908 194.778C374.05 194.725 374.179 194.632 374.33 194.618C374.517 194.602 374.687 194.713 374.857 194.791C376.499 195.549 378.384 193.386 380.068 194.044C379.676 195.641 377.563 196.145 376.733 197.565C378.165 197.355 379.514 196.625 380.475 195.542C380.735 195.247 380.975 194.922 381.307 194.711C381.498 194.59 381.713 194.511 381.902 194.388C382.346 194.099 382.614 193.561 382.576 193.032C382.087 193.021 381.596 193.141 381.168 193.378C380.851 193.553 380.559 193.794 380.206 193.875C379.618 194.01 379.033 193.67 378.435 193.585C377.173 193.406 375.958 194.721 374.808 194.503C374.357 194.417 374.121 193.907 373.545 193.762C373.079 193.645 372.337 193.845 371.81 193.77C371.221 193.686 370.007 193.089 369.563 193.716C368.254 195.565 371.839 194.495 372.163 194.501Z" fill="white" fill-opacity="0.2"/>
<path d="M371.843 196.253C372.096 195.97 372.582 196.148 372.832 196.434C373.082 196.719 373.239 197.099 373.562 197.298C373.886 197.498 374.341 197.455 374.621 197.198C374.786 197.046 374.892 196.8 374.807 196.592C374.721 196.382 374.482 196.285 374.268 196.209C374.059 196.136 373.849 196.061 373.64 195.988C373.274 195.859 372.891 195.729 372.505 195.781C372.121 195.834 371.739 196.132 371.733 196.521" fill="white" fill-opacity="0.2"/>
<path d="M361.593 185.172C360.904 185.246 360 185.306 359.733 184.665C359.576 184.288 359.753 183.862 359.763 183.454C359.78 182.784 359.348 182.2 359.039 181.604C358.499 180.563 358.303 179.346 358.492 178.188C358.54 177.895 358.62 177.591 358.824 177.376C358.955 177.239 359.125 177.149 359.292 177.061C359.934 176.724 360.577 176.386 361.219 176.049C362.06 175.607 362.903 175.165 363.692 174.636C365.663 173.318 367.276 171.471 368.314 169.339C368.674 168.957 369.34 169.317 369.58 169.782C369.82 170.248 369.881 170.821 370.25 171.194C370.818 171.765 372.058 171.892 371.963 172.691C371.925 173.007 371.657 173.235 371.438 173.466C370.669 174.276 370.351 175.488 370.624 176.57C370.897 177.653 371.752 178.569 372.812 178.917C371.84 179.011 370.589 179.39 370.586 180.367C370.584 180.981 371.129 181.629 370.793 182.143C370.442 182.679 369.503 182.428 369.088 182.915C368.754 183.306 368.962 183.894 369.033 184.402C369.209 185.675 368.222 186.995 366.953 187.187C366.417 187.268 365.791 187.122 365.521 186.653C365.379 186.407 365.357 186.109 365.241 185.85C364.774 184.806 364.076 185.434 363.389 185.424C362.911 185.417 362.236 185.105 361.593 185.172Z" fill="white" fill-opacity="0.2"/>
<path d="M380.529 177.695C380.644 177.657 380.757 177.62 380.87 177.581C380.628 177.421 380.299 177.471 380.063 177.639C379.826 177.808 379.658 178.053 379.464 178.27C378.793 179.02 377.758 179.428 376.756 179.338C376.126 179.282 375.498 179.043 374.877 179.163C374.115 179.31 373.539 179.99 373.313 180.732C373.199 181.106 373.308 181.676 373.697 181.644C373.914 180.977 374.521 180.486 375.19 180.274C375.859 180.061 376.583 180.096 377.274 180.221C377.816 180.318 378.363 180.471 378.908 180.4C379.454 180.328 380.011 179.954 380.077 179.407C380.124 179.011 379.913 178.585 380.082 178.224C380.23 177.91 380.647 177.63 380.483 177.325C380.306 177.359 380.708 177.662 380.529 177.695Z" fill="white" fill-opacity="0.2"/>
<path d="M372.14 186.516C372.391 187.645 372.919 188.824 372.51 189.906C372.964 190.111 373.508 189.728 373.662 189.254C373.815 188.78 373.695 188.265 373.577 187.781C373.46 187.297 373.348 186.779 373.515 186.31C373.555 186.202 373.622 186.086 373.734 186.062C373.789 186.05 373.847 186.062 373.902 186.078C374.517 186.253 374.938 186.839 375.132 187.449C375.325 188.059 375.339 188.708 375.426 189.342C375.48 189.737 375.59 190.168 375.921 190.391C376.468 190.757 377.245 190.268 377.45 189.643C377.655 189.019 377.489 188.343 377.402 187.692C377.28 186.788 377.213 185.697 376.412 185.259C376.083 185.079 375.623 184.998 375.517 184.638C375.389 184.206 375.902 183.873 376.334 183.746C376.726 183.63 377.129 183.547 377.535 183.497C378.019 183.437 378.648 183.299 378.697 182.814C378.748 182.309 378.11 182.057 377.61 181.972C377.007 181.87 376.395 181.768 375.789 181.846C375.183 181.924 374.575 182.212 374.255 182.732C374.187 182.842 374.124 182.969 374.004 183.017C373.837 183.086 373.648 182.961 373.549 182.809C373.45 182.658 373.4 182.476 373.286 182.335C371.979 180.718 372.043 186.077 372.14 186.516Z" fill="white" fill-opacity="0.2"/>
<path d="M383.029 185.385C382.363 185.228 381.658 185.244 381 185.432C380.882 185.466 380.742 185.532 380.737 185.655C380.731 185.787 380.88 185.865 381.007 185.899C381.639 186.072 382.335 185.999 382.918 185.7C382.83 185.44 382.486 185.305 382.244 185.436" fill="white" fill-opacity="0.2"/>
<path d="M385.885 185.036C385.552 184.865 385.117 184.914 384.83 185.156C384.543 185.398 384.421 185.819 384.533 186.176C385.198 186.345 385.872 185.559 386.507 185.819C386.924 185.989 387.136 186.562 387.585 186.586C387.968 186.607 388.24 186.068 387.995 185.773C387.789 185.523 387.396 185.526 387.147 185.32C386.694 184.944 386.975 184.216 387.285 183.716C386.779 183.606 386.4 184.2 386.334 184.713C386.305 184.939 386.301 185.176 386.196 185.379C386.092 185.581 385.841 185.733 385.634 185.637" fill="white" fill-opacity="0.2"/>
<path d="M383.054 181.907C383.047 182.092 383.042 182.285 383.127 182.451C383.211 182.616 383.415 182.734 383.585 182.659C383.713 182.603 383.777 182.462 383.83 182.334C384.003 181.919 384.174 181.442 383.981 181.037C383.895 180.855 383.74 180.707 383.673 180.516C383.475 179.948 384.163 179.638 384.605 179.683C384.501 178.965 383.889 179.473 383.888 178.692C383.888 178.574 385.236 178.058 384.114 177.87C382.65 177.623 383.09 180.955 383.054 181.907Z" fill="white" fill-opacity="0.2"/>
<path d="M389.124 181.014C388.448 181.066 387.706 181.047 387.175 180.624C386.674 181.041 387.003 181.909 387.554 182.256C388.107 182.603 388.796 182.663 389.369 182.975C389.942 183.286 390.372 184.078 389.956 184.58C390.415 184.698 390.872 184.818 391.331 184.937C391.437 185.368 390.949 185.678 390.578 185.923C390.208 186.167 389.907 186.77 390.292 186.991C390.471 187.374 391.042 187.311 391.412 187.11C391.784 186.907 392.181 186.616 392.584 186.739C392.847 186.82 393.024 187.056 393.217 187.252C394.028 188.078 395.264 188.276 396.304 188.786C397.344 189.294 398.282 190.528 397.72 191.539C397.507 191.922 397.123 192.173 396.834 192.503C396.545 192.831 396.354 193.338 396.603 193.698C397.517 193.761 398.45 193.469 399.166 192.897C399.901 193.685 400.77 194.42 401.824 194.65C402.878 194.878 404.138 194.445 404.55 193.449C404.631 193.252 404.686 193.028 404.852 192.892C405.083 192.702 405.424 192.765 405.714 192.846C406.6 193.096 407.465 193.417 408.3 193.806C408.459 193.88 408.629 193.969 408.704 194.128C408.813 194.358 408.68 194.622 408.644 194.874C408.512 195.808 409.666 196.347 410.596 196.511C411.855 196.734 413.134 196.85 414.413 196.856C414.456 196.214 413.763 195.776 413.136 195.635C412.509 195.494 411.804 195.474 411.328 195.043C410.766 194.536 410.713 193.617 410.123 193.142C409.681 192.786 408.9 192.551 409.02 191.996C409.149 191.4 410.194 191.479 410.394 190.904C410.519 190.549 410.209 190.172 409.857 190.039C409.506 189.906 409.116 189.931 408.746 189.86C407.822 189.685 407.061 188.856 406.967 187.92C406.931 187.566 406.978 187.192 406.835 186.866C406.617 186.373 406.047 186.158 405.534 185.993C402.805 185.113 400.076 184.233 397.347 183.353C396.955 183.227 396.529 183.101 396.14 183.236C395.093 183.603 395.165 185.486 394.074 185.685C393.507 185.789 393.006 185.335 392.608 184.919C392.218 184.511 391.658 183.924 391.608 183.327C391.573 182.916 391.992 182.558 391.952 182.196C391.799 180.805 390.2 180.932 389.124 181.014Z" fill="white" fill-opacity="0.2"/>
<path d="M410.349 189.621C410.426 189.741 410.573 189.793 410.71 189.831C411.847 190.145 413.101 190.016 414.149 189.477C414.488 189.304 414.818 189.085 415.195 189.045C415.443 189.019 415.693 189.072 415.941 189.046C416.188 189.02 416.455 188.878 416.501 188.634C416.547 188.394 416.371 188.117 416.513 187.918C416.661 187.71 417.025 187.791 417.189 187.595C417.372 187.377 417.153 187.059 416.946 186.863C416.104 186.068 415.286 185.209 414.385 184.488C414.305 185.624 415.135 186.934 414.245 187.908C413.729 188.475 410.079 189.201 410.349 189.621Z" fill="white" fill-opacity="0.2"/>
<path d="M421.53 193.169C421.944 193.307 422.382 193.368 422.786 193.531C423.191 193.693 423.577 193.986 423.698 194.405C423.696 194.386 423.694 194.367 423.692 194.348C423.549 193.231 422.413 192.533 421.406 192.006C421.273 191.938 421.133 191.861 421.063 191.729C421.019 191.646 419.672 192.554 421.53 193.169Z" fill="white" fill-opacity="0.2"/>
<path d="M433.376 214.788C433.274 214.325 433.111 213.862 432.804 213.5C432.498 213.139 432.023 212.893 431.552 212.958C431.15 213.843 431.85 214.853 432.653 215.402C433.219 215.788 433.86 216.036 434.497 216.254C433.694 216.39 433.51 215.401 433.376 214.788Z" fill="white" fill-opacity="0.2"/>
<path d="M436.019 206.708C436.392 207.615 436.662 208.564 436.82 209.532C437.269 209.276 437.395 208.592 437.066 208.193C437.387 208.479 437.391 208.966 437.465 209.39C437.658 210.5 438.539 211.459 439.628 211.747C439.796 211.421 439.658 211.011 439.423 210.729C439.188 210.447 438.871 210.248 438.605 209.996C438.104 209.519 437.798 208.844 437.771 208.154C437.747 207.532 437.86 206.743 437.315 206.442C437.221 206.711 437.127 206.98 437.032 207.249C436.876 207.233 436.774 207.078 436.713 206.934C436.335 206.032 436.717 204.739 435.865 204.084C435.734 204.483 435.479 204.899 435.039 204.953C435.031 205.599 435.765 206.091 436.019 206.708Z" fill="white" fill-opacity="0.2"/>
<path d="M425.096 193.458C425.72 193.724 426.522 193.624 426.994 194.111C427.459 194.591 427.36 195.405 427.755 195.943C427.941 196.198 428.222 196.367 428.424 196.607C428.627 196.848 428.737 197.228 428.532 197.467C428.277 197.767 427.748 197.582 427.551 197.241C427.356 196.9 427.373 196.483 427.326 196.092C427.278 195.701 427.111 195.269 426.738 195.142C426.379 195.02 425.903 195.21 425.652 194.926C425.568 194.831 425.535 194.703 425.49 194.585C425.128 193.625 423.9 193.15 423.686 192.177C424.175 192.554 424.473 193.192 425.096 193.458Z" fill="white" fill-opacity="0.2"/>
<path d="M388.568 191.851C387.942 192.384 387.374 192.986 386.88 193.644C387.255 193.828 387.749 193.731 388.026 193.417C388.304 193.104 388.341 192.603 388.112 192.251" fill="white" fill-opacity="0.2"/>
<path d="M392.719 189.237C393.087 189.515 393.42 189.907 393.433 190.37C393.445 190.831 392.99 191.303 392.552 191.158C392.637 190.496 392.723 189.835 392.808 189.174" fill="white" fill-opacity="0.2"/>
<path d="M388.743 199.273C388.418 198.593 387.462 198.31 386.82 198.704C387.38 199.172 387.434 200.126 386.928 200.653C386.671 200.923 386.314 201.073 386.018 201.3C385.044 202.054 385.001 203.727 385.937 204.528C385.485 204.763 385.031 204.998 384.579 205.233C384.261 204.043 383.351 203.026 382.203 202.578C380.639 203.558 379.476 205.156 379.021 206.943C378.84 206.975 378.658 207.007 378.477 207.038C378.393 207.566 378.31 208.095 378.227 208.624C377.825 208.086 377.662 207.377 377.791 206.718C376.848 206.906 376.316 207.91 376.056 208.836C375.796 209.762 375.642 210.787 374.959 211.466C374.459 211.963 373.757 212.186 373.083 212.393C372.049 212.71 371.015 213.028 369.981 213.345C369.128 213.606 368.2 213.925 367.739 214.69C367.366 215.309 367.127 216.299 366.41 216.212C366.107 216.175 365.871 215.926 365.575 215.852C364.966 215.698 364.42 216.37 364.395 216.998C364.368 217.627 364.665 218.216 364.828 218.824C364.992 219.432 364.977 220.181 364.483 220.57C365.057 220.605 365.648 220.829 365.988 221.294C366.327 221.759 366.325 222.485 365.888 222.86C365.451 223.234 364.624 223.02 364.524 222.454C365.782 225.882 366.671 229.446 367.171 233.064C367.375 234.543 367.494 236.136 366.777 237.445C368.023 238.384 369.842 238.482 371.182 237.683C371.934 237.235 372.527 236.544 373.313 236.161C374.682 235.492 376.343 235.879 377.802 235.438C379.138 235.033 380.224 233.957 381.599 233.715C382.636 233.532 383.791 233.833 384.699 233.3C385.128 233.049 385.443 232.638 385.856 232.362C386.317 232.052 386.881 231.926 387.436 231.894C389.641 231.768 391.9 233.286 392.397 235.438C392.521 235.976 392.545 236.542 392.756 237.052C392.968 237.562 393.449 238.022 393.999 237.973C394.138 236.287 395.739 234.857 397.43 234.91C397.511 235.453 397.122 235.951 396.709 236.311C396.295 236.673 395.814 237 395.599 237.505C395.384 238.011 395.625 238.751 396.172 238.791C396.45 238.267 396.832 237.798 397.29 237.422C398.151 238.188 397.746 239.875 396.631 240.166C397.7 239.849 399.215 239.743 399.572 240.799C399.674 241.098 399.641 241.422 399.671 241.737C399.829 243.368 401.535 244.322 403.029 244.994C403.332 245.13 403.658 245.271 403.986 245.215C404.551 245.121 404.853 244.522 405.182 244.052C405.511 243.583 406.184 243.172 406.615 243.551C406.989 243.877 406.834 244.523 407.13 244.921C407.529 245.46 408.423 245.171 408.86 244.663C409.298 244.154 409.558 243.472 410.125 243.114C411.182 242.447 413.098 242.967 413.41 241.758C413.58 241.1 413.027 240.494 412.846 239.84C412.564 238.816 413.226 237.771 413.985 237.03C414.745 236.287 415.659 235.647 416.11 234.686C416.862 233.08 416.073 231.168 416.376 229.42C416.679 227.666 418.07 225.921 417.342 224.295C417.056 223.657 416.476 223.177 416.236 222.522C416.005 221.888 416.1 221.119 415.669 220.6C415.396 220.272 414.969 220.121 414.621 219.871C413.47 219.041 413.439 217.383 412.999 216.034C412.198 213.575 409.892 211.977 408.297 209.942C408.002 209.566 407.726 209.162 407.599 208.701C407.452 208.166 407.519 207.598 407.475 207.045C407.369 205.697 406.557 204.426 405.38 203.762C405.123 203.616 404.841 203.491 404.661 203.258C404.405 202.926 404.419 202.469 404.406 202.05C404.356 200.473 403.729 198.92 402.673 197.749C401.973 201.21 401.273 204.671 400.574 208.133C400.168 208.442 399.674 208.634 399.165 208.679C398.964 207.795 398.761 206.91 398.56 206.027C397.562 206.078 396.514 206.12 395.618 205.679C394.722 205.238 394.065 204.137 394.467 203.223C394.685 202.723 395.181 202.167 394.855 201.73C395.748 202.065 396.528 200.615 395.874 199.921C394.844 198.827 393.718 200.412 392.657 200.355C391.338 200.283 390.159 198.439 388.743 199.273Z" fill="#2156E8"/>
<path d="M407.708 253.247C407.7 253.503 407.692 253.816 407.912 253.947C408 254 408.107 254.009 408.21 254.016C408.962 254.067 409.911 253.967 410.168 253.258C410.374 252.689 409.983 252.03 410.194 251.462C410.264 251.275 410.392 251.118 410.502 250.951C410.776 250.535 410.936 250.013 410.803 249.533C410.67 249.053 410.178 248.66 409.689 248.754C409.421 248.806 409.194 248.985 408.93 249.055C408.083 249.277 405.653 247.464 405.863 249.496C405.929 250.134 406.808 250.634 407.133 251.153C407.521 251.777 407.73 252.513 407.708 253.247Z" fill="white" fill-opacity="0.2"/>
<path d="M435.745 256.808C435.181 256.994 434.561 257.075 434.09 257.436C433.618 257.796 433.407 258.591 433.867 258.966C434.221 259.254 434.749 259.137 435.183 259.276C436.157 259.587 436.245 260.912 436.145 261.93C436.828 262.222 437.569 261.625 437.946 260.986C438.324 260.347 438.583 259.579 439.214 259.189C439.625 258.934 440.164 258.865 440.468 258.489C440.897 257.96 440.614 257.167 440.773 256.505C441.171 254.844 443.563 254.7 444.202 253.079C444.646 251.953 445.458 249.748 444.126 249.516C440.801 248.934 438.625 255.854 435.745 256.808Z" fill="white" fill-opacity="0.2"/>
<path d="M446.21 250.673C446.209 250.762 446.21 250.856 446.256 250.93C446.374 251.114 446.666 251.04 446.835 250.902C447.811 250.102 447.221 248.395 447.97 247.38C448.217 247.045 448.586 246.824 448.912 246.566C449.96 245.734 450.605 244.416 450.619 243.078C450.137 243.34 449.641 243.607 449.097 243.683C448.553 243.759 447.942 243.605 447.617 243.163C447.217 242.618 447.351 241.819 446.973 241.259C446.537 240.615 445.593 240.523 445.069 239.948C444.588 239.421 444.577 238.636 444.468 237.931C444.359 237.226 443.995 236.423 443.288 236.325C441.89 237.93 444.637 239.94 444.994 241.309C445.335 242.622 444.659 242.99 444.133 244.092C443.586 245.239 443.221 246.143 444.309 247.035C445.009 247.608 445.586 246.734 446.195 247.795C446.545 248.406 446.218 249.995 446.21 250.673Z" fill="white" fill-opacity="0.2"/>
<path d="M373.044 154.591C372.967 154.815 372.888 155.044 372.893 155.281C372.907 156.094 373.844 156.645 373.913 157.455C373.94 157.777 373.823 158.095 373.824 158.418C373.825 158.741 374.023 159.115 374.346 159.119C374.625 159.122 374.819 158.857 375.019 158.662C375.218 158.467 375.589 158.342 375.746 158.573C375.815 158.675 375.808 158.809 375.797 158.932C375.711 159.799 375.475 160.649 375.102 161.437C375.569 161.622 376.115 161.32 376.374 160.889C376.633 160.459 376.676 159.937 376.711 159.437C376.729 159.188 376.745 158.927 376.645 158.698C376.494 158.353 376.121 158.168 375.875 157.883C375.418 157.352 375.467 156.542 375.722 155.889C375.977 155.237 376.406 154.664 376.665 154.012C376.732 153.843 376.788 153.661 376.762 153.481C376.735 153.293 376.622 153.132 376.54 152.962C376.336 152.541 376.313 152.057 376.224 151.597C375.442 147.576 373.287 153.885 373.044 154.591Z" fill="white" fill-opacity="0.2"/>
<path d="M380.734 160.852C380.819 161.597 380.506 162.377 379.929 162.856C379.798 162.964 379.652 163.062 379.572 163.21C379.296 163.719 379.937 164.204 380.398 164.553C381.846 165.648 382.022 168.06 380.749 169.354C380.629 169.476 380.496 169.592 380.422 169.746C380.349 169.896 380.338 170.07 380.336 170.237C380.328 170.998 380.463 171.76 380.734 172.471C379.98 172.849 379.039 172.226 378.751 171.433C378.464 170.641 378.629 169.765 378.768 168.933C378.819 168.625 378.859 168.28 378.684 168.02C378.4 167.6 377.711 167.687 377.356 168.048C377.001 168.41 376.88 168.933 376.739 169.419C376.598 169.906 376.387 170.423 375.944 170.668C375.607 168.976 376.993 167.149 378.714 167.021C379.091 166.993 379.49 167.03 379.826 166.859C380.162 166.688 380.363 166.187 380.085 165.931C379.756 165.942 379.626 165.505 379.656 165.178C379.685 164.851 379.739 164.452 379.474 164.259C379.203 164.061 378.805 164.266 378.625 164.55C378.444 164.834 378.388 165.182 378.212 165.468C377.948 165.898 377.407 166.139 376.909 166.048C376.882 165.299 377.327 164.553 377.999 164.221C377.402 164.011 376.786 163.67 376.554 163.081C376.321 162.492 376.73 161.66 377.361 161.711C377.586 162.29 377.811 162.869 378.037 163.448C378.526 163.755 379.217 163.446 379.502 162.943C379.787 162.441 379.764 161.824 379.684 161.252C380.322 161.579 381.054 160.68 380.792 160.014C380.643 159.631 380.289 159.366 379.935 159.315C380.336 159.724 380.668 160.275 380.734 160.852Z" fill="white" fill-opacity="0.2"/>
<path d="M285.049 50.1226C285.484 49.8129 285.154 49.0614 284.648 48.8919C284.142 48.7223 283.592 48.8874 283.058 48.9044C282.525 48.9204 281.881 48.6679 281.824 48.1369C281.807 47.9798 281.847 47.8219 281.908 47.6764C282.28 46.792 283.331 46.4395 284.016 45.7684C285.083 44.7242 285.177 43.0063 286.113 41.8426C287.409 40.2335 289.857 40.1639 291.517 38.9323C292.038 38.5459 292.474 38.0488 293.015 37.6901C294.419 36.7611 296.24 36.9154 297.922 36.8708C300.126 36.8119 302.319 36.3452 304.356 35.5018C303.925 37.5446 301.479 38.3094 299.455 38.8199C298.093 39.1635 296.745 39.5615 295.414 40.0113C293.721 40.5833 292.027 41.258 290.641 42.3861C289.256 43.5141 288.205 45.1696 288.179 46.9562C288.166 47.8941 289.288 49.9209 288.666 50.6473C287.936 51.5023 285.849 50.4795 285.049 50.1226Z" fill="white" fill-opacity="0.2"/>
<path d="M336.595 26.2701C336.085 26.4334 335.575 26.5967 335.065 26.76C335.535 27.4847 336.509 27.839 337.335 27.5855C338.2 27.3205 339.042 26.4736 339.855 26.8725C340.064 27.2625 339.586 27.6498 339.197 27.8622C338.809 28.0746 338.395 28.5788 338.71 28.8894C338.787 28.9643 338.892 29.0027 338.993 29.0357C340.774 29.6069 342.805 29.1214 344.509 29.8934C345.045 30.1361 345.565 30.5065 346.153 30.4806C346.741 30.4547 347.292 29.7104 346.886 29.2847C346.621 29.0063 346.081 29.0018 345.975 28.6333C345.781 27.9559 347.378 27.6828 347.065 27.051C345.911 27.0867 344.757 27.1224 343.602 27.1581C343.209 27.1697 342.729 27.1322 342.559 26.7788C342.463 26.5789 342.501 26.3245 342.368 26.146C342.205 25.9283 341.883 25.9337 341.613 25.9613C341.002 26.0229 340.393 26.0845 339.782 26.146C341.118 26.0113 342.866 25.3009 344.206 24.9761C342.429 22.9636 337.291 23.2064 336.595 26.2701Z" fill="white" fill-opacity="0.2"/>
<path d="M352.727 29.2015C352.698 28.4509 351.661 28.1216 350.983 28.4438C350.304 28.7659 349.896 29.4549 349.435 30.0484C348.884 30.7596 348.214 31.3701 347.549 31.9769C349.298 31.7511 351.046 31.5253 352.795 31.3005C353.471 31.213 354.282 31.0193 354.484 30.3688C353.805 29.9065 353.012 29.6146 352.196 29.5245" fill="white" fill-opacity="0.2"/>
<path d="M398.59 39.8069C398.813 39.673 399.017 39.4972 399.266 39.4249C400.263 39.1358 401.116 40.6065 402.126 40.3673C402.553 40.2665 402.854 39.8791 403.264 39.723C404.223 39.358 405.292 40.3611 406.202 39.7435C407.388 38.9376 406.877 38.2469 405.944 37.8828C405.087 37.5481 403.76 37.9006 402.795 37.6231C402.081 37.4178 401.462 37.0225 400.785 36.7333C399.194 36.0533 396.673 34.9146 395.591 36.9671C394.617 38.8109 396.775 40.8956 398.59 39.8069Z" fill="white" fill-opacity="0.2"/>
<path d="M412.713 39.3069C412.006 38.7286 411.186 38.2886 410.313 38.0218C410.189 37.9834 410.061 37.9486 409.931 37.9548C409.466 37.9754 409.173 38.5545 409.323 38.9954C409.472 39.4363 409.927 39.7138 410.385 39.8013C410.842 39.8887 411.313 39.8254 411.778 39.7932C412.755 39.7263 413.742 39.8048 414.697 40.0253C414.876 39.414 414.274 38.7982 413.643 38.7134C413.012 38.6286 412.393 38.9071 411.817 39.1793" fill="white" fill-opacity="0.2"/>
<path d="M403.727 42.8602C403.185 42.6005 402.604 42.4211 402.011 42.3283C401.696 42.2792 401.232 42.4077 401.308 42.7174C401.342 42.8503 401.472 42.9316 401.592 42.9976C402.406 43.4394 403.272 43.7865 404.166 44.0292C404.579 44.1417 405.152 44.1524 405.291 43.7481C405.389 43.4643 405.183 43.1663 404.95 42.9762C404.386 42.513 403.589 42.3506 402.888 42.555" fill="white" fill-opacity="0.2"/>
<path d="M229.896 30.0568C230.655 30.5039 231.58 30.5878 232.364 30.9903C233.283 31.4606 233.961 32.378 234.14 33.3945C234.25 34.0174 234.195 34.7019 234.542 35.2311C235.044 35.9995 236.25 36.0539 236.982 35.4997C237.715 34.9455 238.019 33.971 238.015 33.0527C238.011 32.3307 237.886 31.4945 238.403 30.9911C238.625 30.7752 238.928 30.669 239.222 30.5708C239.795 30.3789 240.4 30.1915 240.998 30.2941C241.595 30.3959 242.171 30.884 242.159 31.49C242.144 32.22 241.326 32.8974 241.649 33.5524C242.804 33.5364 243.96 33.5203 245.114 33.5042C245.514 33.1 245.233 32.3726 244.761 32.0558C244.289 31.739 243.697 31.6676 243.177 31.4374C242.657 31.2071 242.168 30.6824 242.314 30.1326C242.533 29.3035 243.71 29.4089 244.565 29.4392C246.847 29.5213 248.954 27.3705 248.822 25.0913C246.796 24.7816 245.794 26.9984 244.112 27.5776C242.723 28.0559 241.961 27.2474 240.689 27.367C239.333 27.4946 239.011 28.3603 237.964 28.611C236.336 29.0001 235.165 28.1943 233.48 27.9703C232.165 27.7936 226.451 28.0309 229.896 30.0568Z" fill="white" fill-opacity="0.2"/>
<path d="M209.467 20.3787C208.178 22.6124 205.994 24.3125 203.513 25.014C202.343 25.3442 201.041 25.4986 200.159 26.3339C199.612 26.8515 199.304 27.5654 199.009 28.258C198.43 29.6216 197.841 31.0263 197.81 32.5077C197.779 33.9892 198.435 35.5831 199.768 36.2292C197.91 37.1493 197.728 40.221 199.465 41.3535C198.756 43.1223 195.788 42.1344 194.387 43.4258C193.298 44.4297 193.72 46.228 194.376 47.5559C195.032 48.883 195.864 50.368 195.335 51.7512C193.343 50.9748 191.351 50.1975 189.359 49.4211C188.606 51.0453 190.769 53.0587 192.336 52.193C190.828 54.9051 186.807 54.3705 183.983 55.6539C180.967 57.0237 179.345 60.5471 176.296 61.842C174.796 62.4792 173.09 62.5068 171.595 63.1574C170.1 63.808 168.809 65.5331 169.512 67.0038C169.651 67.2947 169.866 67.5812 169.828 67.9007C169.788 68.2372 169.487 68.4701 169.229 68.6896C166.78 70.777 166.752 74.4833 166.924 77.696C166.051 78.3493 164.819 77.4622 164.338 76.4832C163.857 75.5051 163.609 74.3039 162.688 73.7211C161.771 73.1402 160.54 73.4177 159.536 73.0045C158.621 72.627 158.034 71.7408 157.504 70.9037C156.511 69.3348 155.518 67.7651 154.525 66.1962C153.689 64.8745 152.833 63.5028 152.599 61.9571C152.366 60.4105 152.923 58.631 154.312 57.9108C155.293 57.4021 156.887 56.6329 156.176 55.7868C156.017 55.5976 155.774 55.5075 155.541 55.4245C153.741 54.7846 151.94 54.1447 150.14 53.5049C150.84 51.3354 153.355 49.9325 155.569 50.476C156.385 49.173 154.499 47.7442 152.963 47.7692C151.427 47.7951 149.714 48.3529 148.467 47.4542C149.628 45.8371 149.567 43.5471 148.632 41.7899C147.697 40.0327 146.014 38.7673 144.193 37.965C143.381 37.6071 142.518 37.3269 141.63 37.3144C140.228 37.2939 138.884 37.9373 137.483 37.9462C135.499 37.9587 133.687 36.6718 132.549 35.0458C131.411 33.4198 130.828 31.4797 130.264 29.577C131.862 30.4605 133.97 30.5105 135.457 29.4494C136.943 28.3883 137.555 26.1536 136.584 24.6061C138.604 24.1537 140.626 23.7012 142.646 23.2488C143.157 23.1345 143.679 23.0149 144.122 22.7356C144.687 22.3777 145.068 21.7932 145.58 21.3639C146.563 20.5411 147.918 20.3662 149.192 20.2243C152.603 19.845 156.013 19.4657 159.423 19.0865C160.078 19.0133 160.752 18.9419 161.389 19.1114C163.065 19.5577 164.585 21.5888 166.089 20.725C166.149 20.0646 165.952 19.3836 165.547 18.8589C167.465 17.9772 169.68 18.2476 171.791 18.2779C176.044 18.3404 180.253 17.356 184.506 17.2936C188.679 17.232 192.862 18.0727 196.687 19.7415C195.408 20.6259 193.947 21.2461 192.421 21.5522C193.417 21.4898 194.427 21.662 195.346 22.0493C194.614 21.7405 191.301 24.3554 190.773 24.8266C192.576 26.2277 196.537 23.3273 198.401 22.4393C201.928 20.758 205.529 19.7968 209.467 20.3787Z" fill="white" fill-opacity="0.2"/>
<path d="M203.071 65.84C202.116 66.2309 201.224 66.7726 200.436 67.4384C199.706 68.0559 198.89 68.835 197.952 68.6476C197.001 68.4566 196.552 67.3973 196.134 66.521C195.717 65.6446 194.87 64.7004 193.951 65.0163C194.45 64.4157 194.95 63.8142 195.449 63.2136C194.259 63.0405 193.071 62.8664 191.881 62.6933C191.59 62.6514 191.273 62.5942 191.082 62.3711C190.636 61.85 191.302 61.078 191.959 60.8835C193.44 60.4462 195.071 61.111 196.182 62.182C196.647 62.63 197.239 63.1966 197.834 62.945C198.228 62.7781 198.396 62.3238 198.659 61.9874C199.29 61.1806 200.469 61.0744 201.487 61.1931C203.206 61.3939 206.637 60.1338 207.308 62.1909C208.062 64.4969 204.454 65.2742 203.071 65.84Z" fill="white" fill-opacity="0.2"/>
<path d="M54.9749 50.0041C50.4779 51.8755 45.8132 53.7398 40.9432 53.68C38.8317 53.6541 36.7434 53.265 34.6685 52.8768C30.1555 52.0335 25.5951 51.1759 21.3962 49.3187C20.2745 48.8225 19.1473 48.2478 17.9229 48.1728C16.5548 48.0889 15.2331 48.6422 14.0051 49.2509C10.2837 51.0973 6.87459 53.5729 3.96705 56.5412C6.9915 57.0168 9.80266 58.7276 11.6152 61.1952C10.1864 61.8886 8.25964 61.2505 7.52696 59.8414C5.60823 59.2845 3.37268 60.8016 3.1826 62.7909C2.99251 64.7801 4.90053 66.6935 6.88976 66.5096C7.59567 65.5735 8.68712 64.9372 9.84996 64.7854C10.3979 65.7073 10.945 66.6301 11.4929 67.552C10.5371 68.7059 8.85668 68.8246 7.39577 69.1557C5.93486 69.4868 4.28921 70.5166 4.45788 72.0052C4.739 74.4853 9.50101 74.6941 9.29219 77.1813C9.36269 76.3371 19.2071 75.6794 14.446 81.3311C13.6999 82.2164 12.5781 82.8572 11.4251 82.7555C11.7455 83.6622 11.6732 84.7902 10.9593 85.4354C10.2453 86.0807 8.84597 85.8477 8.62197 84.9134C7.85894 86.5438 5.75637 86.9303 3.96526 87.107C3.75286 87.8271 3.54046 88.5482 3.32806 89.2684C3.18349 88.3697 1.99566 87.8379 1.22014 88.3144C0.444616 88.7919 0.371434 90.0707 1.07645 90.6463C1.73239 91.1818 2.68729 91.0524 3.51904 90.8944C3.82961 90.8355 4.18391 90.7436 4.31866 90.4571C4.40077 90.2813 4.37578 90.0779 4.38203 89.8842C4.41326 88.9382 5.24144 88.1886 6.12673 87.8521C7.01202 87.5166 7.97942 87.4782 8.9013 87.264C10.4256 86.9088 11.799 86.0735 13.0181 85.0927C14.3451 84.0245 15.5392 82.7599 17.0439 81.9612C17.6204 81.6551 18.2353 81.4213 18.7903 81.0777C22.8723 78.5467 20.2691 74.1649 26.3082 73.4117C26.3939 74.2497 25.8182 75.1073 25.0106 75.3465C26.9454 76.7762 29.0622 72.2747 31.329 73.0815C31.968 73.3091 32.3812 73.9168 32.93 74.3139C33.9483 75.0502 35.3093 74.9984 36.5604 75.1046C41.5456 75.5285 46.0925 79.225 47.5258 84.0182C49.706 83.3748 51.5212 85.7041 52.6064 87.7013C54.3984 90.9989 56.1895 94.2973 57.9815 97.5948C59.1194 99.6885 60.2679 101.81 60.8587 104.118C61.7038 107.42 61.3638 110.932 62.1536 114.248C62.9434 117.563 65.4967 120.936 68.904 120.846C69.4564 126.041 70.9771 131.132 73.3661 135.778C72.2015 136.959 74.0756 138.711 75.6686 139.174C77.2616 139.637 79.3597 140.818 78.6636 142.324C80.5431 140.233 78.1505 137.08 75.8623 135.446C73.5741 133.811 70.8879 131.106 72.3202 128.685C73.1011 127.898 74.4683 128.817 74.836 129.862C75.2037 130.908 75.1706 132.147 75.9087 132.973C76.5557 133.697 77.6025 133.88 78.4378 134.376C81.465 136.173 80.8295 141.279 83.7594 143.231C84.8294 143.943 86.2368 144.109 87.164 145C87.8298 145.64 88.1404 146.554 88.5759 147.368C90.1144 150.244 93.2094 151.873 96.1267 153.333C96.9772 153.759 97.8277 154.185 98.6791 154.611C103.551 157.05 108.423 159.489 113.294 161.928C113.763 162.163 114.304 162.402 114.791 162.21C116.794 161.417 112.704 157.855 114.404 156.535C112.011 155.382 109.619 154.229 107.226 153.075C108.719 151.741 108.917 149.201 107.648 147.653C108.531 147.445 109.262 146.697 109.451 145.811C108.397 144.715 106.468 145.622 105.65 146.903C104.832 148.184 104.502 149.795 103.399 150.841C100.902 153.209 96.4837 150.696 95.5181 147.393C94.5525 144.091 95.6573 140.59 96.0259 137.168C96.1749 135.786 96.2918 134.21 97.3859 133.353C99.8883 131.393 103.572 135.526 106.476 134.234C107.588 133.739 108.243 132.556 109.29 131.936C111.095 130.869 113.551 131.859 114.802 133.542C116.052 135.226 116.403 137.392 116.717 139.466C117.308 140.435 118.95 139.364 118.858 138.233C118.766 137.102 117.833 136.254 117.218 135.3C115.648 132.865 116.36 129.241 118.736 127.581C120.847 126.105 124.326 125.528 124.462 122.955C124.551 121.292 122.971 119.93 122.906 118.265C122.848 116.801 123.957 115.582 124.992 114.544C127.915 111.609 130.838 108.673 133.761 105.739C134.448 105.05 135.278 104.307 136.244 104.416C137.211 104.525 137.749 106.122 136.83 106.439C140.276 106.572 144.895 105.74 145.171 102.302C143.779 103.523 142.127 104.446 140.358 104.991C140.174 103.355 140.655 101.652 141.668 100.352C140.384 98.1401 137.312 97.5314 134.871 98.2927C132.429 99.0548 130.472 100.853 128.603 102.6C131.41 99.2886 135.166 96.5141 139.478 96.0099C141.103 95.8198 142.844 95.9331 144.256 95.1094C146.222 93.9635 147.962 91.0765 149.943 92.1956C148.496 94.7337 147.051 97.2718 145.604 99.8089C147.164 99.6929 148.723 99.5769 150.283 99.4609C150.917 100.543 151.225 101.811 151.16 103.062C153.068 102.929 155.694 101.671 154.842 99.9589C154.409 99.0887 153.278 98.8701 152.527 98.2543C150.462 96.5623 152.07 93.0854 151.035 90.624C150.518 89.3934 149.389 88.5509 148.355 87.7049C143.966 84.1075 140.526 79.3642 138.471 74.0748C137.969 75.3304 137.419 76.6512 136.333 77.4571C135.248 78.2638 133.456 78.2772 132.742 77.1287C132.351 76.4995 132.373 75.7052 132.169 74.9922C131.707 73.3769 130.164 72.3542 128.733 71.4742C126.996 70.406 124.95 69.2976 123.023 69.9633C121.096 70.6291 120.649 74.098 122.663 74.4175C120.787 74.4853 120.849 77.4 121.919 78.943C122.989 80.486 124.493 82.4074 123.467 83.9799C122.558 85.3739 120.254 85.2373 119.338 86.6268C118.455 87.9664 119.415 89.6923 120.086 91.1497C120.757 92.607 120.739 94.8988 119.166 95.2102C117.822 95.4762 116.847 93.9189 116.596 92.5722C116.2 90.4518 116.48 88.1529 115.489 86.2377C114.498 84.3217 111.317 83.4194 110.32 85.3319C109.773 83.3828 108.193 81.7568 106.261 81.1535C104.691 80.6627 102.942 80.8117 101.45 80.1156C99.219 79.0751 98.2177 76.5084 97.4208 74.1792C100.334 72.5139 103.438 70.6389 104.735 67.5457C105.084 66.7131 105.313 65.7805 105.972 65.1638C106.566 64.6087 107.41 64.4106 108.07 63.9367C108.731 63.4629 109.152 62.4205 108.558 61.8654C109.414 61.3424 110.46 61.1407 111.449 61.3067C113.14 63.6012 107.954 67.51 110.396 68.9799C111.712 69.7724 113.135 68.1446 113.815 66.7675C114.879 67.1968 115.942 67.6252 117.006 68.0544C118.378 66.9398 116.767 64.8086 115.195 63.9992C113.624 63.1898 111.634 61.7324 112.422 60.1502C113.828 60.1252 115.235 60.0993 116.641 60.0743C116.729 58.7312 115.838 57.3827 114.567 56.9374C115.292 55.821 116.015 54.7036 116.74 53.5872C116.082 52.8626 115.015 52.5377 114.065 52.7715C116.912 52.3521 119.693 51.482 122.271 50.2022C124.382 52.6109 126.368 55.1293 128.218 57.7424C128.515 58.1618 128.82 58.6223 128.809 59.1355C128.785 60.2572 127.43 60.7365 126.45 61.2844C125.47 61.8315 124.878 63.57 125.966 63.8466C125.817 64.6766 124.571 64.6685 123.871 64.2009C123.17 63.7324 122.526 62.9961 121.684 63.0452C120.093 63.1371 120.354 65.9429 121.877 66.4177C123.399 66.8916 124.955 65.909 126.247 64.9755C129.222 67.6591 132.767 69.7054 136.579 70.9379C135.041 70.6175 133.92 68.9495 134.204 67.4047C135.989 67.9188 137.689 68.7255 139.217 69.7831C140.514 68.2052 138.852 65.9135 137.153 64.7819C135.453 63.6503 133.324 62.2492 133.591 60.2242C135.821 60.1698 138.034 61.4415 139.109 63.3959C139.954 62.1947 140.8 60.9926 141.645 59.7914C140.689 56.6304 134.591 57.5987 133.956 54.3574C133.834 53.7318 133.957 53.0143 133.565 52.5109C132.956 51.7292 131.737 52.112 130.747 52.0817C127.281 51.9737 125.183 46.1684 121.983 47.508C123.32 45.0038 119.517 41.8339 117.294 43.5991C118.515 44.0534 119.844 44.6834 120.288 45.9078C120.734 47.1323 119.435 48.8064 118.299 48.1684C117.151 47.5231 117.699 45.7035 117.065 44.5487C116.293 43.1422 113.97 43.4224 113.036 44.7263C112.101 46.0301 112.218 47.8069 112.592 49.3678C111.82 49.3491 111.048 49.3294 110.277 49.3107C110.108 47.1278 110.532 44.9012 111.494 42.9343C110.589 41.5849 108.533 42.8807 107.538 44.1649C106.492 45.5143 105.414 46.9306 105.089 48.6057C104.762 50.2816 105.446 52.2869 107.043 52.8902C108.067 53.2775 109.251 53.0303 110.27 53.4319C112.601 54.3502 111.683 58.7008 109.179 58.5991C108.405 57.3274 107.952 55.8629 107.874 54.3761C106.667 54.7295 105.543 55.3578 104.609 56.1994C103.386 53.1785 101.683 50.3521 99.5849 47.8587C100.084 46.894 100.583 45.9292 101.082 44.9645C103.089 45.8427 105.663 43.6928 105.156 41.5599C103.488 41.0923 101.734 40.6211 100.043 41.003C98.3516 41.3841 96.788 42.9298 97.0236 44.6468C97.1655 45.6767 97.8964 46.5316 98.1659 47.5356C98.4363 48.5396 97.8331 49.9425 96.8077 49.7738C96.2722 52.2137 101.442 52.2718 101.673 54.7599C101.836 56.5046 99.468 57.1909 97.7162 57.1668C98.2284 58.8481 98.149 60.7035 97.4957 62.3348C96.1812 59.8673 96.9005 56.5019 99.1083 54.7866C97.7831 52.7492 94.7194 52.1075 92.6882 53.4417C93.4476 54.6028 94.6506 55.4658 95.9929 55.8129C95.2843 56.634 94.5757 57.4559 93.8671 58.2769C92.3321 57.173 90.2295 58.0396 88.342 58.1475C86.4545 58.2555 84.1601 56.1708 85.4934 54.8304C84.3582 54.1441 82.8188 53.9094 81.7398 54.6831C80.6618 55.456 80.5716 57.4193 81.7746 57.9789C79.2669 58.6232 75.1099 54.0111 73.2956 57.5451C72.1596 53.9495 70.3328 52.8777 66.7336 52.6939C64.3445 52.5716 57.2622 50.8028 56.0422 52.8108C55.928 52.5573 54.9276 50.0246 54.9749 50.0041Z" fill="white" fill-opacity="0.5"/>
<g filter="url(#filter0_i_429_230)">
<rect x="381.957" y="207.974" width="23.0665" height="23.0665" rx="11.5333" fill="white" fill-opacity="0.1"/>
<path d="M387.675 223.007V217.367H387.657L385.936 218.606V217.75L387.666 216.506H388.459V223.007H387.675ZM392.343 223.115C391.099 223.115 390.18 222.34 390.113 221.232H390.91C390.982 221.926 391.572 222.403 392.352 222.403C393.235 222.403 393.847 221.791 393.847 220.917C393.847 220.043 393.23 219.416 392.365 219.416C391.757 219.416 391.239 219.691 390.973 220.146H390.212L390.568 216.506H394.289V217.227H391.234L391.036 219.344H391.054C391.347 218.952 391.888 218.718 392.509 218.718C393.757 218.718 394.658 219.633 394.658 220.894C394.658 222.201 393.699 223.115 392.343 223.115ZM397.78 223.115C396.262 223.115 395.384 221.809 395.384 219.754C395.384 217.718 396.271 216.398 397.78 216.398C399.29 216.398 400.168 217.709 400.168 219.75C400.168 221.804 399.294 223.115 397.78 223.115ZM397.78 222.408C398.794 222.408 399.353 221.376 399.353 219.754C399.353 218.155 398.785 217.11 397.78 217.11C396.776 217.11 396.199 218.164 396.199 219.75C396.199 221.372 396.762 222.408 397.78 222.408Z" fill="white"/>
</g>
<path d="M61.6121 40.5745C60.2529 40.72 59.4953 42.2442 59.3212 43.5998C59.1472 44.9554 59.2793 46.4119 58.6118 47.6051C58.4467 47.8996 58.2325 48.1798 58.1798 48.5127C58.0281 49.4658 59.265 50.0753 60.2181 49.9236C62.9954 49.4801 64.7392 45.6846 67.512 46.1567C67.5397 46.901 67.5673 47.6452 67.5941 48.3895C69.42 48.4056 71.2486 48.1405 72.9951 47.6087C73.527 47.9531 73.2289 48.8572 72.6613 49.1374C72.0937 49.4185 71.4226 49.3239 70.7917 49.3819C70.1607 49.4399 69.4423 49.7817 69.3745 50.4118C70.5936 50.0584 71.8688 49.7014 73.1156 49.9397C74.3623 50.178 75.5555 51.215 75.5144 52.4831C73.7465 52.4037 71.9715 52.4679 70.2143 52.6759C71.1817 53.8253 72.9371 53.6888 74.431 53.8503C75.9241 54.0118 77.6973 55.2086 77.1699 56.6151C79.193 54.4831 82.5682 53.7682 85.2821 54.8963C85.9603 55.1783 86.6038 55.5647 87.324 55.7093C88.0442 55.8538 88.8955 55.6878 89.298 55.0738C89.7005 54.4598 89.2998 53.4166 88.5662 53.4407C89.5176 53.3095 90.352 52.5527 90.5742 51.6174C88.9375 52.1493 86.9679 51.2426 86.3075 49.6541C85.7087 48.2128 86.0639 46.3601 84.9903 45.2276C85.9264 45.5097 86.859 44.395 86.6323 43.4437C86.4066 42.4923 85.3812 41.8971 84.4031 41.873C83.7587 41.8569 83.0698 42.0711 82.6896 42.5914C82.3094 43.1117 82.3799 43.9648 82.9377 44.2861C82.1836 43.9193 81.4304 43.5516 80.6763 43.184C80.3764 45.0295 84.0032 46.1308 83.1528 47.7961C82.6102 48.8572 80.7646 48.1878 80.546 47.0161C80.4023 46.245 80.5799 45.2187 79.874 44.8778C78.5273 44.2272 77.5447 47.5301 76.2578 46.7689C76.339 46.0281 76.4202 45.2874 76.5006 44.5476C74.8415 44.4155 73.137 45.0143 71.926 46.1558C72.0768 45.4383 72.2267 44.7207 72.3775 44.0023C70.5775 43.0037 68.7935 46.5413 66.8498 45.8693C68.7195 46.5163 72.9059 42.8627 69.6137 41.3161C68.8248 40.9449 67.1773 41.524 66.301 41.4625C64.7606 41.3536 63.1587 40.4094 61.6121 40.5745Z" fill="white" fill-opacity="0.2"/>
<path d="M69.791 32.9155C68.5139 32.2774 66.9602 32.9699 65.8776 33.8989C64.7942 34.8288 63.8938 36.0211 62.5997 36.6244C61.9875 36.91 61.2629 37.0858 60.8845 37.6454C63.0335 37.6159 65.1807 37.4704 67.3145 37.2099C67.194 37.9354 66.8308 38.6172 66.2962 39.1214C67.2957 39.4865 68.1275 38.2281 68.2649 37.1733C68.3077 36.8448 68.347 36.4736 68.6085 36.271C68.8182 36.1077 69.1056 36.1068 69.3688 36.064C70.2738 35.9185 71.0698 35.06 70.9601 34.1497C70.8494 33.2394 69.6544 32.5996 68.9164 33.143" fill="white" fill-opacity="0.2"/>
<path d="M76.5019 38.8986C76.7652 38.7576 76.9098 38.4256 76.833 38.1365C75.4979 38.1802 74.2262 37.0718 74.0879 35.743C73.3275 35.2575 72.1656 35.635 71.8363 36.4747C71.507 37.3145 72.1022 38.3819 72.9893 38.5425C71.6953 39.0958 70.4012 39.6491 69.1072 40.2024C71.5792 41.5348 74.5118 38.6335 77.2587 39.2154C77.2578 39.5474 77.256 39.8794 77.2551 40.2114C76.07 40.2256 74.9018 40.7727 74.1307 41.6732C76.1762 41.8552 78.2761 41.3439 80.0083 40.2417C80.4982 39.9302 80.9846 39.5626 81.5593 39.4814C82.0644 39.41 82.5687 39.5697 83.0738 39.6411C84.2679 39.8098 85.7823 39.1333 85.7395 37.9276C84.9336 37.6581 84.0733 37.5528 83.2264 37.6206C82.9667 36.0535 81.0096 35.0379 79.5799 35.7278C79.6031 36.8067 80.1064 37.8669 80.9284 38.5666C80.1163 39.277 78.8472 39.4055 77.9093 38.8709C77.4639 38.6175 77.0543 38.2203 76.5421 38.2177C75.9923 38.215 75.2775 38.6121 74.9982 38.1382" fill="white" fill-opacity="0.2"/>
<path d="M78.0423 31.0792C76.0272 30.8392 73.946 31.1854 72.1174 32.0645C73.1054 32.5107 74.0942 32.956 75.0821 33.4022C75.307 33.504 75.5417 33.6075 75.788 33.603C76.0058 33.5995 76.2128 33.512 76.4136 33.4254C77.3658 33.0167 78.3189 32.6071 79.2712 32.1974C79.1061 31.9556 78.941 31.7146 78.7759 31.4728C79.2007 31.761 79.8423 31.3416 79.87 30.8293C79.8977 30.3162 79.4648 29.8655 78.9749 29.7138C78.484 29.5621 77.953 29.6451 77.4533 29.7638C76.8723 29.9021 76.302 30.0868 75.7505 30.3171C76.0406 30.9257 76.6135 31.3916 77.2677 31.5513C77.2784 31.7914 77.2891 32.0315 77.2998 32.2724" fill="white" fill-opacity="0.2"/>
<path d="M92.1277 31.3809C91.6895 31.4032 91.4289 30.8829 91.4093 30.4447C91.3897 30.0065 91.4851 29.5344 91.2683 29.1525C90.7364 28.2127 89.296 28.9088 88.2304 28.7375C87.5968 28.6357 87.0756 28.1931 86.4741 27.97C85.8726 27.7469 85.0195 27.8718 84.8463 28.4894C84.6527 29.1801 85.4987 29.7361 86.2162 29.7504C86.9338 29.7647 87.6736 29.5094 88.3554 29.737C88.483 29.7798 88.6097 29.8423 88.69 29.9494C89.1969 30.6259 87.3755 31.1203 87.5433 31.9485C87.6263 32.3554 88.1358 32.483 88.5482 32.5267C89.1613 32.5928 89.7744 32.6579 90.3875 32.724C91.0255 32.7927 91.7324 32.8436 92.2455 32.458C92.7587 32.0725 92.7711 31.0748 92.1482 30.9204" fill="white" fill-opacity="0.2"/>
<path d="M95.3721 37.851C95.73 37.4333 95.5113 36.7363 95.0633 36.4168C94.6153 36.0965 94.0308 36.0563 93.481 36.0527C91.8755 36.042 90.2683 36.2482 88.7181 36.6649C88.238 36.7943 87.7391 36.9443 87.2527 36.8408C86.7664 36.7372 86.3157 36.2741 86.4237 35.7886C85.7597 36.5355 86.5584 37.7769 87.524 38.0348C88.4897 38.2927 89.5124 37.9947 90.5101 38.0482C91.5079 38.1018 92.652 38.788 92.5467 39.7822C92.5217 40.0196 92.4271 40.2686 92.5244 40.4863C92.6413 40.746 92.9741 40.8246 93.2588 40.8112C94.5877 40.7487 95.6041 39.1825 95.1204 37.9438C94.8009 37.9938 94.46 37.8081 94.3271 37.5136C94.9098 37.2843 95.3658 36.756 95.5077 36.1455C94.4234 35.7359 93.1589 35.8341 92.1513 36.4061" fill="white" fill-opacity="0.2"/>
<path d="M94.8086 43.3488C95.361 42.9472 94.996 41.9602 94.341 41.7665C93.6859 41.5729 92.9943 41.92 92.4535 42.3368C92.4196 42.8981 92.3848 43.4595 92.3509 44.0217C91.703 43.8843 91.0015 44.0208 90.4518 44.3912C91.4094 44.6473 92.1956 45.463 92.4142 46.4304C91.5031 47.0551 90.0591 46.6169 89.6495 45.5897C89.4594 45.1122 89.3907 44.4706 88.9016 44.3126C88.2109 44.0886 87.8075 45.1827 88.1261 45.8351C88.9694 47.5602 91.537 47.4477 92.9702 48.7257C93.4851 49.1853 94.2669 49.8412 94.7033 49.3067C95.0505 48.8819 94.5989 48.2804 94.1786 47.927C94.6864 47.9912 95.2263 48.0376 95.6868 47.8154C96.1473 47.5932 96.4668 46.9997 96.2169 46.5535C96.0875 46.3215 95.843 46.1832 95.635 46.0163C94.8756 45.4041 94.5998 44.2618 94.9969 43.3702C94.7229 43.2551 94.4499 43.1391 94.1759 43.024" fill="white" fill-opacity="0.2"/>
<path d="M119.957 38.775C118.222 37.7326 116.07 37.4114 114.107 37.9013C112.688 38.2556 111.361 39.0124 109.902 39.115C107.769 39.264 105.729 37.9263 104.566 36.1325C106.183 35.025 108.547 37.1972 110.249 36.228C110.74 35.9487 111.081 35.4418 111.597 35.2133C112.124 34.9795 112.73 35.0767 113.298 35.1785C116.025 35.6666 118.753 36.1557 121.481 36.6439C121.802 35.4775 120.805 34.1442 119.595 34.1218C121.024 33.5462 122.453 32.9706 123.882 32.395C124.603 32.105 125.375 31.7712 125.769 31.101C126.161 30.4299 125.883 29.342 125.112 29.2447C128.402 28.0997 131.59 26.6611 134.625 24.9503C134.32 24.422 134.014 23.8937 133.709 23.3654C135.819 23.5831 138.007 22.937 139.661 21.6082C137.292 21.4127 134.889 21.6376 132.597 22.2686C136.539 22.7657 140.62 22.1026 144.201 20.3838C142.914 19.262 140.572 20.722 139.304 19.5788C138.924 19.2361 138.736 18.7185 138.349 18.3838C137.872 17.9724 137.195 17.9153 136.566 17.8814C130.134 17.5369 123.673 17.7189 117.27 18.4258C116.214 18.5427 114.881 18.9505 114.82 20.0116C113.287 19.9482 111.754 19.8849 110.221 19.8215C109.118 21.3074 106.946 21.8839 105.251 21.1414C104.867 21.7492 104.484 22.3569 104.101 22.9656C105.172 23.7036 106.511 24.0427 107.803 23.9044C108.594 25.5331 111.156 25.8901 112.362 24.5398C112.898 26.3854 115.658 26.0391 117.295 25.0324C118.932 24.0258 121.034 22.7407 122.568 23.899C120.531 25.4751 117.922 26.2917 115.35 26.1578C115.994 26.9324 116.637 27.7079 117.282 28.4835C115.702 28.5807 114.301 27.5768 112.919 26.8048C111.536 26.0328 109.726 25.4902 108.449 26.4255C109.603 27.367 110.757 28.3085 111.912 29.251C108.731 27.575 105.55 25.8999 102.368 24.2239C101.436 23.7331 100.358 23.2288 99.3698 23.5956C98.3819 23.9624 98.0847 25.6884 99.1012 25.9659C98.3132 26.1105 97.634 26.7388 97.4305 27.5143C99.3154 27.666 101.169 28.1899 102.854 29.0475C102.06 29.3018 101.268 29.5571 100.475 29.8114C102.286 30.4013 104.098 30.9912 105.91 31.582C106.28 31.7025 106.701 31.8185 107.041 31.6311C107.383 31.4419 107.506 31.0233 107.697 30.6815C108.266 29.6615 109.728 29.2688 110.731 29.8667C110.501 30.4138 110.271 30.96 110.041 31.507C110.897 31.5124 111.753 31.5168 112.61 31.5222C112.624 31.9916 112.638 32.4619 112.653 32.9313C113.894 33.1232 115.17 33.0875 116.399 32.8269C115.949 34.4913 113.534 34.6377 112.027 33.8006C110.521 32.9626 109.333 31.5267 107.674 31.0572C108.203 32.295 109.051 33.3954 110.114 34.2227C107.901 33.8666 105.597 34.0862 103.491 34.8554C103.285 34.4119 103.08 33.9675 102.873 33.5239C101.142 34.2423 101.403 36.7492 101.967 38.5367C102.133 39.0615 102.306 39.6005 102.654 40.0271C103.443 40.9936 104.852 41.1051 106.099 41.1417C107.976 41.1953 109.852 41.2497 111.729 41.3033C114.341 41.3746 120.057 42.6026 119.957 38.775Z" fill="white" fill-opacity="0.2"/>
<path d="M99.3708 36.7546C99.8848 36.3994 100.816 36.6992 101.053 36.1209C101.231 35.6854 100.767 35.2713 100.357 35.0411C99.9464 34.8108 99.4582 34.453 99.5707 33.9961C99.2048 34.0478 98.8219 33.9684 98.5069 33.7765C99.2913 33.5704 100.076 33.3633 100.86 33.1572C101.159 33.0786 101.538 32.8082 101.362 32.5548C101.301 32.4682 101.192 32.4307 101.09 32.4049C100.603 32.2799 100.074 32.2639 99.6474 31.9997C99.2208 31.7355 98.9817 31.0725 99.3538 30.7351C99.0852 30.711 98.8157 30.6869 98.5471 30.6619C98.5355 30.4486 98.5239 30.2345 98.5123 30.0212C97.1218 29.9837 95.7332 29.8703 94.3544 29.6812C94.1527 30.6111 95.0478 31.6026 95.9938 31.4973C96.1464 31.4803 96.316 31.4437 96.4427 31.5312C96.5551 31.6088 96.5891 31.7561 96.648 31.8801C96.8256 32.2487 97.3173 32.4263 97.6894 32.2558C97.5805 32.5236 97.3958 32.7609 97.1629 32.9323C97.6118 33.1715 98.1053 33.3258 98.6104 33.3865C98.2124 33.7025 97.7421 33.9256 97.245 34.0335C97.4494 34.1995 97.6546 34.3655 97.859 34.5315C97.3342 34.5422 96.8095 34.552 96.2847 34.5628C96.125 35.0563 96.606 35.5301 97.0879 35.722C97.6216 35.9344 100.218 37.5872 98.6604 38.3244C97.776 38.7429 97.4056 37.2838 97.718 36.726C98.2124 37.8692 98.0616 39.4631 98.9281 40.4635C99.56 41.1926 100.522 41.3283 101.136 40.3662C102.199 38.7027 99.6278 38.2039 99.3708 36.7546Z" fill="white" fill-opacity="0.2"/>
<path d="M114.916 165.501C114.299 167.154 116.287 169.084 117.921 168.418C118.393 168.226 118.803 167.876 119.305 167.788C120.708 167.542 121.515 169.308 121.812 170.702C122.152 172.297 122.484 174.001 121.89 175.519C121.178 177.339 119.229 178.608 119 180.55C118.814 182.135 119.86 183.772 119.322 185.276C119.079 185.958 118.536 186.499 118.281 187.178C117.823 188.392 118.37 189.733 118.907 190.914C120.696 194.842 122.484 198.769 124.273 202.696C124.675 203.58 125.106 204.5 125.877 205.089C126.491 205.557 127.263 205.769 127.914 206.184C128.978 206.861 129.627 208.013 130.235 209.118C131.359 211.162 132.497 213.243 132.977 215.525C133.632 218.638 133.015 221.861 132.398 224.982C131.497 229.545 130.595 234.108 129.693 238.672C128.701 243.692 127.71 248.713 126.717 253.733C127.778 253.089 128.566 252.01 128.855 250.804C129.361 254.068 128.718 257.499 127.063 260.357C126.919 259.125 126.775 257.892 126.631 256.66C125.418 259.279 124.791 262.169 124.811 265.056C124.814 265.575 124.859 266.144 125.22 266.518C125.562 266.874 126.093 266.952 126.531 267.181C127.48 267.678 127.887 268.998 127.382 269.944C127.884 270.06 128.387 270.176 128.888 270.292C129.667 270.908 127.83 271.771 127.838 272.764C127.841 273.167 128.168 273.484 128.471 273.751C129.892 275.003 131.312 276.254 132.733 277.506C133.723 277.799 134.752 278.094 135.772 277.935C136.791 277.776 137.797 277.024 137.891 275.997C138.021 274.586 136.554 273.644 135.605 272.591C134.132 270.958 133.774 268.556 134.145 266.388C134.516 264.221 135.525 262.223 136.522 260.263C135.878 260.021 135.234 259.778 134.589 259.536C134.637 258.088 136.114 257.191 137.047 256.083C138.744 254.071 138.557 250.739 136.646 248.928C137.353 248.43 138.06 247.932 138.767 247.434C139.347 248.361 139.927 249.287 140.507 250.214C141.957 249.05 142.5 246.886 141.772 245.176C145.058 246.018 148.77 243.326 148.99 239.942C148.177 239.914 147.535 238.98 147.8 238.21C148.065 237.441 149.147 237.101 149.804 237.58C149.442 238.52 150.515 239.545 151.514 239.422C152.514 239.299 153.262 238.401 153.598 237.452C153.935 236.502 153.963 235.476 154.15 234.486C154.449 232.899 155.168 231.392 156.213 230.16C157.082 229.135 158.194 228.263 158.701 227.018C159.072 226.107 159.075 225.096 159.232 224.125C159.746 220.957 162.082 218.15 165.103 217.07C165.228 218.486 167.465 218.193 168.513 217.234C170.08 215.8 171.138 213.819 171.458 211.719C171.739 209.877 171.49 207.888 172.362 206.242C172.732 205.545 173.291 204.938 173.502 204.178C173.683 203.526 173.588 202.834 173.623 202.16C173.814 198.536 177.697 195.674 177.245 192.074C176.951 189.736 174.917 188.061 173.038 186.64C170.167 184.47 167.115 182.224 163.544 181.778C161.277 181.495 158.836 181.943 156.797 180.91C157.704 180.855 158.348 179.908 158.393 179.001C158.439 178.094 158.047 177.229 157.662 176.405C157.403 175.849 157.144 175.292 156.884 174.736C155.831 172.477 154.104 169.826 151.637 170.18C150.903 170.286 150.099 170.654 149.473 170.255C148.9 169.889 148.837 169.093 148.526 168.489C147.31 166.122 142.7 167.088 142.001 164.52C141.819 163.85 141.971 163.039 141.49 162.54C141.1 162.135 140.465 162.128 139.903 162.149C137.353 162.243 134.803 162.338 132.253 162.431C132.167 163.432 131.514 164.364 130.602 164.786C130.735 165.373 130.868 165.959 131.001 166.546C130.792 167.589 129.039 167.461 128.581 166.502C128.123 165.542 128.565 164.404 129.104 163.486C129.643 162.57 130.304 161.635 130.29 160.572C129.132 160.019 127.961 161.222 127.126 162.195C126.291 163.168 124.654 164.012 123.888 162.983C123.986 164.041 124.085 165.101 124.184 166.159C122.54 167.594 119.578 166.967 118.657 164.988C118.021 165.774 117.323 166.602 116.35 166.876C115.377 167.15 114.104 166.539 114.108 165.529C114.605 167.714 116.766 169.396 119.006 169.342" fill="white" fill-opacity="0.2"/>
<path d="M112.597 144.568C113.376 145.352 114.58 144.172 115.677 144.035C116.736 143.903 117.605 144.794 118.4 145.507C119.195 146.22 120.435 146.819 121.261 146.143C121.657 147.795 123.953 148.62 125.31 147.597C125.187 148.18 125.954 148.579 126.542 148.475C127.129 148.372 127.652 148.002 128.246 147.959C129.105 147.897 129.934 148.659 129.945 149.519C129.964 149.834 129.522 149.95 129.217 149.871C128.912 149.791 128.573 149.633 128.303 149.799C128.114 149.915 128.041 150.149 127.91 150.328C127.431 150.979 126.426 150.731 125.662 150.468C124.898 150.204 123.811 150.129 123.52 150.882C125.919 151.356 128.417 151.319 130.8 150.774C130.604 150.961 130.748 151.324 130.997 151.434C131.245 151.544 131.531 151.483 131.795 151.419C132.813 151.175 133.83 150.93 134.848 150.685C135.461 151.056 136.279 151.059 136.893 150.691C136.851 150.97 136.808 151.251 136.766 151.53C137.961 152.047 139.503 151.552 140.173 150.436C138.481 150.156 136.788 149.875 135.096 149.595C133.881 149.394 132.635 149.182 131.575 148.558C130.529 147.942 129.698 146.945 128.543 146.571C126.932 146.048 125.081 146.868 123.514 146.223C121.996 145.599 121.041 143.71 119.401 143.68C118.868 143.67 118.305 143.867 117.821 143.645C116.593 143.081 116.754 141.917 115.163 142.523C114.863 142.637 112.865 144.838 112.597 144.568Z" fill="white" fill-opacity="0.2"/>
<path d="M248.586 112.465C247.813 114.057 247.462 115.83 247.767 117.57C248.29 120.568 250.616 123.339 249.96 126.312C248.946 126.047 247.931 125.781 246.916 125.524" fill="white" fill-opacity="0.2"/>
<path d="M259.491 72.3438C259.429 72.5312 259.35 72.7105 259.273 72.8899Z" fill="white" fill-opacity="0.2"/>
<path d="M259.686 71.1583C259.671 70.4399 259.365 69.7688 258.898 69.2065Z" fill="white" fill-opacity="0.2"/>
<defs>
<filter id="filter0_i_429_230" x="340.437" y="166.454" width="106.106" height="106.106" filterUnits="userSpaceOnUse" color-interpolation-filters="sRGB">
<feFlood flood-opacity="0" result="BackgroundImageFix"/>
<feBlend mode="normal" in="SourceGraphic" in2="BackgroundImageFix" result="shape"/>
<feColorMatrix in="SourceAlpha" type="matrix" values="0 0 0 0 0 0 0 0 0 0 0 0 0 0 0 0 0 0 127 0" result="hardAlpha"/>
<feOffset dy="3.07554"/>
<feGaussianBlur stdDeviation="1.92221"/>
<feComposite in2="hardAlpha" operator="arithmetic" k2="-1" k3="1"/>
<feColorMatrix type="matrix" values="0 0 0 0 1 0 0 0 0 1 0 0 0 0 1 0 0 0 0.15 0"/>
<feBlend mode="normal" in2="shape" result="effect1_innerShadow_429_230"/>
</filter>
</defs>
</svg>
