<svg width="16" height="17" viewBox="0 0 16 17" fill="none" xmlns="http://www.w3.org/2000/svg">
<path d="M7.92893 2.03674C5.81009 2.03674 4.09428 3.77231 4.09428 5.91557V7.13862C4.09428 7.53465 3.93307 8.12871 3.73155 8.4665L3.00031 9.7012C2.55121 10.4642 2.86213 11.3145 3.69124 11.594C6.44344 12.52 9.42018 12.52 12.1724 11.594C12.9497 11.3319 13.2836 10.4117 12.8633 9.7012L12.1321 8.4665C11.9306 8.12871 11.7693 7.52883 11.7693 7.13862V5.91557C11.7636 3.78396 10.0363 2.03674 7.92893 2.03674Z" stroke="white" stroke-width="1.15333" stroke-miterlimit="10" stroke-linecap="round"/>
<path d="M5.61328 13.8264V13.8264C7.01008 14.7576 8.82979 14.7576 10.2266 13.8264V13.8264" stroke="white" stroke-width="1.15333" stroke-miterlimit="10" stroke-linecap="round"/>
</svg>
