<svg width="60" height="60" viewBox="0 0 60 60" fill="none" xmlns="http://www.w3.org/2000/svg">
<path d="M30.0003 9.1665C41.5063 9.1665 50.8337 18.4939 50.8337 29.9998C50.8337 41.5058 41.5063 50.8332 30.0003 50.8332C18.4944 50.8332 9.16699 41.5058 9.16699 29.9998C9.16699 26.232 10.1672 22.6979 11.9166 19.6483" stroke="#49CEF7" stroke-width="2" stroke-linecap="round" stroke-linejoin="round"/>
<path d="M15.417 29.9998C15.417 38.054 21.9462 44.5832 30.0003 44.5832C38.0545 44.5832 44.5837 38.054 44.5837 29.9998C44.5837 21.9457 38.0545 15.4165 30.0003 15.4165" stroke="#49CEF7" stroke-width="2" stroke-linecap="round" stroke-linejoin="round"/>
<path d="M30 38.3334C34.6024 38.3334 38.3333 34.6025 38.3333 30.0001C38.3333 25.3977 34.6024 21.6667 30 21.6667" stroke="#49CEF7" stroke-width="2" stroke-linecap="round" stroke-linejoin="round"/>
</svg>
