<svg width="16" height="16" viewBox="0 0 16 16" fill="none" xmlns="http://www.w3.org/2000/svg">
<path d="M8.16668 4.34339L9.11854 3.39152C10.1903 2.31975 11.5935 1.87519 13.0785 1.80254C13.6561 1.77429 13.9449 1.76016 14.1764 1.99174C14.408 2.22333 14.3939 2.51212 14.3656 3.08972C14.293 4.5747 13.8484 5.97786 12.7767 7.04964L11.8248 8.0015C11.0409 8.78538 10.818 9.00825 10.9826 9.85856C11.145 10.5081 11.3022 11.137 10.8299 11.6093C10.257 12.1822 9.73446 12.1822 9.16158 11.6093L4.55887 7.0066C3.986 6.43372 3.98598 5.91115 4.55887 5.33826C5.03116 4.86597 5.66012 5.02318 6.30962 5.18557C7.15993 5.35014 7.3828 5.12727 8.16668 4.34339Z" stroke="#74757C" stroke-width="1.15333" stroke-linejoin="round"/>
<path d="M11.4946 4.67004H11.5003" stroke="#74757C" stroke-width="1.53777" stroke-linecap="round" stroke-linejoin="round"/>
<path d="M2.20679 13.9613L5.41047 10.7576" stroke="#74757C" stroke-width="1.15333" stroke-linecap="round"/>
<path d="M6.05055 13.9615L7.33203 12.6801" stroke="#74757C" stroke-width="1.15333" stroke-linecap="round"/>
<path d="M2.20679 10.1172L3.48826 8.83575" stroke="#74757C" stroke-width="1.15333" stroke-linecap="round"/>
</svg>
